{"glyphs":{"0":{"ha":1310,"x_min":63,"x_max":1247,"o":"m 654 -28 q 343 26 471 -28 q 63 485 63 139 l 63 492 q 139 775 63 656 q 348 953 215 892 q 653 1015 481 1015 q 958 954 819 1015 q 1172 776 1097 893 q 1247 493 1247 658 l 1247 483 q 1171 197 1247 308 q 654 -28 1022 -28 m 653 183 q 842 213 768 183 q 1007 485 1007 271 l 1007 486 q 964 674 1007 601 q 654 806 881 806 q 303 488 303 806 l 303 486 q 394 258 303 333 q 653 183 485 183 z "},"1":{"ha":896,"x_min":61,"x_max":844,"o":"m 61 0 l 61 224 l 346 224 l 346 631 l 165 631 l 165 813 q 327 862 276 819 q 390 990 378 904 l 583 990 l 583 224 l 844 224 l 844 0 l 61 0 z "},"2":{"ha":1196,"x_min":68,"x_max":1135,"o":"m 68 0 l 68 160 q 210 422 68 338 q 561 525 319 483 q 823 590 747 558 q 899 686 899 621 q 838 785 899 753 q 644 818 778 818 q 401 765 481 818 q 322 600 322 711 l 83 600 q 224 908 83 800 q 649 1015 364 1015 q 935 972 828 1015 q 1135 686 1135 890 q 1085 529 1135 588 q 935 431 1035 469 q 665 361 835 393 q 468 318 567 343 q 360 276 393 300 q 325 211 328 251 l 1119 211 l 1119 0 l 68 0 z "},"3":{"ha":1182,"x_min":40,"x_max":1133,"o":"m 578 -26 q 260 17 375 -26 q 92 143 143 57 q 40 367 40 229 l 281 367 q 351 218 281 261 q 583 175 421 175 q 813 206 743 175 q 882 299 882 236 q 825 390 882 364 q 624 415 768 415 l 450 415 l 450 593 l 617 593 q 810 615 754 593 q 867 692 867 636 q 599 818 867 818 q 360 773 436 818 q 283 633 285 728 l 49 633 q 192 920 49 825 q 600 1015 336 1015 q 868 982 753 1015 q 1113 722 1113 911 q 1054 578 1113 626 q 885 514 996 531 q 1072 444 1010 497 q 1133 285 1133 392 q 990 52 1133 131 q 578 -26 846 -26 z "},"4":{"ha":1181,"x_min":11,"x_max":1167,"o":"m 1167 225 l 965 225 l 965 0 l 724 0 l 724 225 l 11 225 l 11 383 l 761 990 l 965 990 l 965 417 l 1167 417 l 1167 225 m 724 417 l 724 743 l 311 417 l 724 417 z "},"5":{"ha":1192,"x_min":61,"x_max":1142,"o":"m 599 -26 q 204 56 331 -26 q 61 308 78 139 l 317 308 q 402 207 331 239 q 614 175 474 175 q 833 212 763 175 q 904 329 904 249 q 653 483 904 483 q 310 397 444 483 l 276 376 l 78 444 l 165 990 l 1085 990 l 1085 982 q 1065 856 1085 899 q 995 802 1046 815 q 835 789 944 789 l 339 789 q 299 535 306 581 q 703 668 444 668 q 940 635 840 668 q 1142 328 1142 567 q 1001 62 1142 150 q 599 -26 861 -26 z "},"6":{"ha":1251,"x_min":63,"x_max":1204,"o":"m 1203 313 q 1063 64 1203 156 q 663 -28 922 -28 q 209 97 356 -28 q 63 478 63 221 q 217 884 63 753 q 674 1015 371 1015 q 1204 717 1117 1015 l 938 717 q 894 769 925 743 q 671 821 835 821 q 377 742 468 821 q 286 489 286 664 q 288 439 286 454 q 390 535 322 490 q 757 635 539 635 q 1203 313 1203 635 m 660 178 q 842 193 781 178 q 961 313 961 221 q 898 417 961 386 q 679 447 835 447 q 469 412 565 447 q 315 314 372 376 q 432 208 351 239 q 660 178 513 178 z "},"7":{"ha":1097,"x_min":19,"x_max":1092,"o":"m 172 0 q 438 471 243 239 q 786 783 607 675 l 19 783 l 19 990 l 1092 990 l 1092 819 q 707 463 875 678 q 474 0 531 233 l 172 0 z "},"8":{"ha":1232,"x_min":43,"x_max":1185,"o":"m 610 -26 q 303 -3 436 -26 q 108 84 172 22 q 43 258 43 146 q 274 496 43 438 q 85 711 85 546 q 223 935 85 857 q 617 1014 361 1014 q 1154 710 1154 1014 q 961 499 1154 551 q 1185 267 1185 449 q 1041 42 1185 111 q 610 -26 897 -26 m 644 576 q 855 604 786 576 q 924 693 924 632 q 618 824 924 824 q 317 690 317 824 q 381 603 317 631 q 585 576 444 576 l 644 576 m 614 172 q 815 188 739 172 q 949 294 949 215 q 879 387 949 358 q 657 415 810 415 l 575 415 q 358 387 429 415 q 288 294 288 358 q 315 229 288 257 q 614 172 372 172 z "},"9":{"ha":1253,"x_min":49,"x_max":1189,"o":"m 576 -26 q 51 274 113 -26 l 306 274 q 396 194 331 219 q 583 168 461 168 q 873 246 781 168 q 965 494 965 324 q 964 538 965 525 q 768 399 893 450 q 485 349 643 349 q 155 419 261 349 q 49 654 49 490 q 113 840 49 758 q 589 1015 251 1015 q 907 965 774 1015 q 1189 506 1189 861 q 1035 103 1189 232 q 576 -26 882 -26 m 571 536 q 940 654 819 536 q 825 774 908 739 q 592 810 742 810 q 365 772 433 810 q 296 660 296 733 q 322 583 296 608 q 571 536 369 536 z "}," ":{"ha":353,"x_min":0,"x_max":0,"o":""},"!":{"ha":546,"x_min":107,"x_max":422,"o":"m 408 990 l 408 858 q 397 633 408 744 q 350 367 374 431 q 269 372 326 372 q 189 367 210 372 q 167 458 182 382 q 131 858 131 647 l 131 990 l 408 990 m 265 -24 q 143 9 179 -24 q 107 122 107 42 q 147 233 107 199 q 265 267 186 267 q 383 233 344 267 q 422 122 422 200 q 383 11 422 46 q 265 -24 344 -24 z "},"\"":{"ha":731,"x_min":71,"x_max":660,"o":"m 106 622 q 89 683 97 632 q 71 965 71 792 l 71 990 l 303 990 l 303 965 q 297 808 303 874 q 268 622 286 651 l 106 622 m 463 622 q 446 683 454 632 q 428 965 428 807 l 428 990 l 660 990 l 660 965 q 654 808 660 874 q 625 622 643 651 l 463 622 z "},"#":{"ha":1551,"x_min":50,"x_max":1500,"o":"m 850 158 l 544 158 l 510 0 l 276 0 l 311 158 l 50 158 l 50 354 l 354 354 l 414 629 l 119 629 l 119 825 l 457 825 l 493 990 l 726 990 l 690 825 l 996 825 l 1032 990 l 1258 990 l 1222 825 l 1500 825 l 1500 629 l 1179 629 l 1119 354 l 1433 354 l 1433 158 l 1078 158 l 1043 0 l 815 0 l 850 158 m 953 629 l 647 629 l 588 354 l 893 354 l 953 629 z "},"$":{"ha":1167,"x_min":13,"x_max":1122,"o":"m 471 -185 l 471 -22 q 233 36 331 -8 q 13 351 57 121 l 265 351 q 376 213 289 253 q 621 172 464 172 q 821 201 757 172 q 885 290 885 229 q 853 358 885 339 q 749 388 822 379 q 504 406 676 396 q 254 444 351 414 q 107 535 154 474 q 60 701 60 597 q 164 916 60 832 q 471 1013 268 1000 l 471 1188 l 693 1188 l 693 1007 q 976 903 874 985 q 1111 669 1078 821 l 867 669 q 807 767 850 733 q 539 822 732 822 q 351 794 407 822 q 296 708 296 765 q 307 663 296 681 q 350 633 318 646 q 613 600 415 608 q 903 561 793 592 q 1066 469 1014 531 q 1119 307 1118 408 q 1015 78 1122 167 q 697 -26 908 -11 l 697 -185 l 471 -185 z "},"%":{"ha":1272,"x_min":1,"x_max":1264,"o":"m 290 522 q 92 585 158 522 q 25 760 25 647 q 58 883 25 828 q 297 1001 131 1001 q 490 935 418 1001 q 561 760 561 868 q 490 585 561 649 q 290 522 419 522 m 989 990 l 1264 990 l 290 0 l 1 0 l 989 990 m 290 667 q 393 760 393 667 q 292 850 393 850 q 192 760 192 850 q 290 667 192 667 m 968 -14 q 769 49 836 -14 q 703 224 703 111 q 736 347 703 292 q 975 465 808 465 q 1167 399 1096 465 q 1239 224 1239 332 q 1168 49 1239 113 q 968 -14 1097 -14 m 968 131 q 1071 224 1071 131 q 969 314 1071 314 q 869 224 869 314 q 968 131 869 131 z "},"&":{"ha":1410,"x_min":1,"x_max":1411,"o":"m 1168 -22 q 963 -1 1049 -22 q 790 75 878 19 q 400 -25 582 -25 q 108 46 214 -25 q 1 247 1 117 q 90 463 1 383 q 379 574 178 542 q 364 682 364 632 q 411 860 364 786 q 537 972 457 933 q 717 1011 617 1011 q 876 976 807 1011 q 1014 750 1014 901 q 978 617 1014 674 q 640 457 907 507 q 717 371 669 418 q 818 281 765 322 q 1043 474 944 360 q 1193 717 1142 589 l 1411 717 q 982 188 1272 396 q 1158 158 1076 158 q 1375 243 1294 158 l 1375 40 q 1168 -22 1310 -22 m 550 696 q 563 600 550 657 q 729 633 671 614 q 806 681 785 653 q 828 751 828 710 q 796 821 828 796 q 707 846 764 846 q 592 804 633 846 q 550 696 550 763 m 413 153 q 640 193 513 153 q 608 224 631 203 q 575 256 586 244 q 443 426 499 332 q 303 392 358 413 q 211 272 214 353 q 413 153 211 153 z "},"'":{"ha":374,"x_min":71,"x_max":303,"o":"m 106 622 q 89 685 97 632 q 71 965 71 793 l 71 990 l 303 990 l 303 965 q 297 808 303 874 q 268 622 286 651 l 106 622 z "},"(":{"ha":721,"x_min":83,"x_max":678,"o":"m 678 -268 q 247 -125 383 -250 q 83 397 83 22 q 153 781 83 633 q 353 993 222 922 q 678 1076 483 1064 l 678 860 q 411 744 486 840 q 331 392 331 644 q 367 139 331 232 q 477 10 403 51 q 678 -40 551 -31 l 678 -268 z "},")":{"ha":721,"x_min":43,"x_max":638,"o":"m 43 -42 q 307 60 235 -24 q 390 392 390 151 q 310 744 390 644 q 43 860 235 840 l 43 1076 q 365 994 231 1067 q 638 397 638 851 q 474 -125 638 22 q 43 -268 338 -250 l 43 -42 z "},"*":{"ha":796,"x_min":69,"x_max":729,"o":"m 438 697 l 490 435 l 307 435 l 360 697 l 160 521 l 69 678 l 321 764 l 69 847 l 160 1004 l 360 831 l 307 1092 l 490 1092 l 436 829 l 636 1006 l 729 849 l 474 764 l 729 678 l 638 521 l 438 697 z "},"+":{"ha":906,"x_min":57,"x_max":858,"o":"m 557 400 l 557 113 l 353 113 l 353 400 l 57 400 l 57 608 l 353 608 l 353 893 l 557 893 l 557 608 l 858 608 l 858 400 l 557 400 z "},",":{"ha":513,"x_min":103,"x_max":414,"o":"m 131 -139 q 279 -6 264 -121 q 233 -11 263 -11 q 131 14 160 -11 q 103 114 103 39 q 140 217 103 186 q 260 247 176 247 q 378 204 343 247 q 414 63 414 161 q 344 -161 414 -75 q 135 -260 274 -247 l 131 -139 z "},"-":{"ha":960,"x_min":85,"x_max":874,"o":"m 874 331 l 85 331 l 85 565 l 874 565 l 874 331 z "},".":{"ha":510,"x_min":94,"x_max":410,"o":"m 253 -21 q 131 11 167 -21 q 94 124 94 43 q 134 234 94 200 q 253 268 174 268 q 371 235 332 268 q 410 124 410 201 q 371 13 410 47 q 253 -21 332 -21 z "},"/":{"ha":614,"x_min":-4,"x_max":619,"o":"m -4 0 l 350 990 l 619 990 l 264 0 l -4 0 z "},":":{"ha":522,"x_min":107,"x_max":414,"o":"m 261 531 q 139 558 171 531 q 107 668 107 586 q 140 778 107 749 q 261 807 174 807 q 380 778 346 807 q 414 668 414 749 q 380 560 414 589 q 261 531 346 531 m 261 39 q 169 50 206 39 q 107 174 107 68 q 140 283 107 254 q 261 313 174 313 q 380 283 346 313 q 414 174 414 254 q 380 67 414 94 q 261 39 346 39 z "},";":{"ha":525,"x_min":107,"x_max":422,"o":"m 261 531 q 139 558 171 531 q 107 668 107 586 q 140 778 107 749 q 261 807 174 807 q 380 778 346 807 q 414 668 414 749 q 380 560 414 589 q 261 531 346 531 m 140 -139 q 279 -7 264 -122 q 242 -11 267 -11 q 140 14 168 -11 q 111 114 111 39 q 148 217 111 186 q 268 247 185 247 q 388 205 353 247 q 422 63 422 163 q 352 -152 422 -72 q 144 -246 282 -232 l 140 -139 z "},"<":{"ha":972,"x_min":96,"x_max":871,"o":"m 96 399 l 96 599 l 871 903 l 871 681 l 351 501 l 871 324 l 871 89 l 96 399 z "},"=":{"ha":972,"x_min":99,"x_max":875,"o":"m 99 647 l 99 840 l 875 840 l 875 647 l 99 647 m 99 182 l 99 378 l 875 378 l 875 182 l 99 182 z "},">":{"ha":972,"x_min":103,"x_max":878,"o":"m 103 324 l 622 501 l 103 681 l 103 903 l 878 599 l 878 399 l 103 89 l 103 324 z "},"?":{"ha":1222,"x_min":92,"x_max":1126,"o":"m 696 313 q 583 335 669 335 q 468 313 490 335 q 465 382 465 343 l 465 397 q 501 504 465 464 q 708 606 557 564 q 749 617 718 608 q 797 632 781 626 q 890 713 890 660 q 868 769 890 747 q 624 817 826 817 q 399 776 471 817 q 326 639 326 735 l 92 639 q 624 1013 92 1013 q 918 976 807 1013 q 1126 719 1126 907 q 1049 538 1126 594 q 885 468 994 497 q 799 443 833 456 q 700 351 707 415 l 696 313 m 585 -21 q 462 11 497 -21 q 426 124 426 43 q 465 235 426 201 q 583 268 504 268 q 702 234 663 268 q 742 124 742 200 q 703 13 742 47 q 585 -21 664 -21 z "},"@":{"ha":1353,"x_min":61,"x_max":1294,"o":"m 692 -190 q 364 -129 507 -190 q 61 371 61 0 q 233 790 61 626 q 699 954 408 954 q 1151 799 992 954 q 1294 461 1294 661 q 1224 228 1294 308 q 1035 147 1154 147 q 822 247 881 147 q 621 139 772 139 q 481 174 535 139 q 374 378 374 240 q 403 501 374 439 q 622 625 469 625 q 811 538 756 625 l 839 617 l 961 617 l 961 439 q 976 336 961 363 q 1036 310 992 310 q 1098 347 1081 310 q 1115 461 1115 383 q 1025 688 1115 599 q 697 790 922 790 q 450 738 556 790 q 239 371 239 626 q 289 165 239 256 q 692 -28 396 -28 q 997 90 893 -28 l 1176 1 q 692 -190 1011 -190 m 671 299 q 756 324 728 299 q 783 381 783 350 q 755 442 783 418 q 676 467 726 467 q 556 378 556 467 q 585 321 556 343 q 671 299 615 299 z "},"A":{"ha":1258,"x_min":1,"x_max":1258,"o":"m 904 215 l 356 215 l 253 0 l 1 0 l 503 990 l 749 990 l 1258 0 l 1010 0 l 904 215 m 625 781 l 446 404 l 810 404 l 625 781 z "},"B":{"ha":1208,"x_min":111,"x_max":1174,"o":"m 111 0 l 111 990 l 660 990 q 1032 933 915 990 q 1149 731 1149 875 l 1149 722 q 1101 579 1149 628 q 944 511 1053 531 q 1120 445 1067 494 q 1174 293 1174 396 l 1174 288 q 1115 117 1174 178 q 669 0 1007 0 l 111 0 m 338 807 l 338 599 l 682 599 q 807 604 757 599 q 919 699 919 619 l 919 704 q 894 774 919 750 q 674 807 854 807 l 338 807 m 338 418 l 338 194 l 640 194 q 825 204 765 194 q 912 235 888 213 q 936 303 936 257 l 936 308 q 911 379 936 356 q 831 410 889 401 q 657 418 772 418 l 338 418 z "},"C":{"ha":1281,"x_min":63,"x_max":1249,"o":"m 1249 421 q 1156 182 1225 278 q 643 -28 1007 -28 q 338 25 471 -28 q 63 485 63 136 l 63 492 q 140 775 63 660 q 353 953 218 892 q 667 1015 489 1015 q 938 971 815 1015 q 1243 599 1189 876 l 992 599 q 668 806 954 806 q 303 490 303 806 l 303 488 q 658 183 303 183 q 899 242 819 183 q 994 421 978 301 l 1249 421 z "},"D":{"ha":1250,"x_min":111,"x_max":1188,"o":"m 111 990 l 572 990 q 1035 871 882 990 q 1188 493 1188 751 l 1188 486 q 1038 117 1188 233 q 586 0 888 0 l 111 0 l 111 990 m 342 789 l 342 203 l 574 203 q 794 231 708 203 q 913 321 876 258 q 950 490 950 383 l 950 494 q 913 667 950 596 q 790 760 874 731 q 563 789 706 789 l 342 789 z "},"E":{"ha":1138,"x_min":111,"x_max":1086,"o":"m 1086 0 l 111 0 l 111 990 l 1057 990 l 1057 794 l 335 794 l 335 594 l 946 594 l 946 399 l 335 399 l 335 203 l 1086 203 l 1086 0 z "},"F":{"ha":1085,"x_min":111,"x_max":1029,"o":"m 340 356 l 340 0 l 111 0 l 111 990 l 1029 990 l 1029 785 l 340 785 l 340 563 l 1010 563 l 1010 356 l 340 356 z "},"G":{"ha":1332,"x_min":63,"x_max":1242,"o":"m 1035 271 q 611 -28 990 -28 q 325 25 451 -28 q 63 482 63 140 l 63 489 q 139 772 63 653 q 351 953 217 890 q 658 1015 485 1015 q 1235 643 1171 1015 l 968 643 q 665 806 935 806 q 303 485 303 806 l 303 483 q 653 172 303 172 q 1014 342 972 172 l 626 342 l 626 535 l 1242 535 l 1242 0 l 1049 0 l 1035 271 z "},"H":{"ha":1263,"x_min":111,"x_max":1151,"o":"m 921 383 l 344 383 l 344 0 l 111 0 l 111 990 l 344 990 l 344 606 l 921 606 l 921 990 l 1151 990 l 1151 0 l 921 0 l 921 383 z "},"I":{"ha":893,"x_min":67,"x_max":826,"o":"m 67 0 l 67 217 l 336 217 l 336 783 l 67 783 l 67 990 l 826 990 l 826 783 l 557 783 l 557 217 l 826 217 l 826 0 l 67 0 z "},"J":{"ha":1033,"x_min":19,"x_max":942,"o":"m 475 -28 q 129 83 239 -28 q 19 411 19 193 l 19 436 l 263 436 l 263 415 q 281 290 263 344 q 476 183 321 183 q 647 244 594 183 q 699 450 699 304 l 699 990 l 942 990 l 942 446 q 824 92 942 211 q 475 -28 706 -28 z "},"K":{"ha":1213,"x_min":111,"x_max":1219,"o":"m 600 490 l 344 275 l 344 0 l 111 0 l 111 990 l 344 990 l 344 514 l 888 990 l 1201 990 l 769 617 l 1219 0 l 942 0 l 600 490 z "},"L":{"ha":1036,"x_min":111,"x_max":1004,"o":"m 111 0 l 111 990 l 347 990 l 347 219 l 1004 219 l 1004 0 l 111 0 z "},"M":{"ha":1431,"x_min":111,"x_max":1319,"o":"m 336 664 l 336 0 l 111 0 l 111 990 l 329 990 l 714 540 l 1117 990 l 1319 990 l 1319 0 l 1094 0 l 1094 668 l 715 250 l 699 250 l 336 664 z "},"N":{"ha":1289,"x_min":111,"x_max":1178,"o":"m 336 693 l 336 0 l 111 0 l 111 990 l 344 990 l 946 318 l 954 306 l 954 990 l 1178 990 l 1178 0 l 954 0 l 346 679 l 336 693 z "},"O":{"ha":1310,"x_min":63,"x_max":1247,"o":"m 654 -28 q 343 26 471 -28 q 63 485 63 139 l 63 492 q 139 775 63 656 q 348 953 215 892 q 653 1015 481 1015 q 958 954 819 1015 q 1172 776 1097 893 q 1247 493 1247 658 l 1247 483 q 1171 197 1247 308 q 654 -28 1022 -28 m 653 183 q 842 213 768 183 q 1007 485 1007 271 l 1007 486 q 964 674 1007 601 q 654 806 881 806 q 303 488 303 806 l 303 486 q 394 258 303 333 q 653 183 485 183 z "},"P":{"ha":1178,"x_min":111,"x_max":1132,"o":"m 342 307 l 342 0 l 111 0 l 111 990 l 617 990 q 918 954 801 990 q 1081 841 1031 917 q 1132 642 1132 765 q 639 307 1132 306 l 342 307 m 342 794 l 342 503 l 625 503 q 838 533 779 503 q 897 643 897 563 q 867 743 897 713 q 781 784 839 774 q 618 794 722 794 l 342 794 z "},"Q":{"ha":1310,"x_min":63,"x_max":1247,"o":"m 840 -189 l 732 -25 q 654 -28 685 -28 q 343 26 471 -28 q 63 485 63 139 l 63 492 q 139 775 63 656 q 348 953 215 892 q 653 1015 481 1015 q 958 954 819 1015 q 1172 776 1097 893 q 1247 493 1247 658 l 1247 483 q 965 29 1247 153 l 1126 -189 l 840 -189 m 653 183 q 842 213 768 183 q 1007 485 1007 271 l 1007 486 q 964 674 1007 601 q 654 806 881 806 q 303 488 303 806 l 303 486 q 394 258 303 333 q 653 183 485 183 z "},"R":{"ha":1190,"x_min":111,"x_max":1140,"o":"m 343 319 l 343 0 l 111 0 l 111 990 l 632 990 q 1008 916 893 990 q 1124 678 1124 842 q 1072 506 1124 568 q 907 415 1019 443 q 1067 325 1018 390 q 1117 129 1117 260 l 1117 64 q 1140 0 1117 14 l 897 0 q 869 67 869 11 l 869 128 q 847 244 869 204 q 771 303 824 286 q 622 319 718 319 l 343 319 m 343 793 l 343 518 l 621 518 q 757 525 692 518 q 852 562 821 533 q 883 646 883 590 l 883 664 q 857 747 883 718 q 629 793 811 793 l 343 793 z "},"S":{"ha":1167,"x_min":13,"x_max":1119,"o":"m 615 -29 q 296 11 417 -29 q 106 134 174 51 q 13 351 39 217 l 265 351 q 376 213 289 253 q 621 174 463 174 q 822 201 758 174 q 885 290 885 229 q 853 358 885 339 q 749 388 822 379 q 504 406 676 396 q 254 444 351 414 q 107 535 154 474 q 60 701 60 597 q 184 932 60 849 q 546 1015 308 1015 q 947 935 808 1015 q 1119 669 1086 854 l 871 669 q 773 790 851 758 q 542 821 694 821 q 352 792 408 821 q 296 708 296 764 q 307 663 296 681 q 350 633 318 646 q 613 600 415 608 q 903 561 793 592 q 1068 470 1017 531 q 1119 307 1119 410 q 615 -29 1119 -29 z "},"T":{"ha":1061,"x_min":47,"x_max":1014,"o":"m 642 792 l 642 0 l 403 0 l 403 792 l 47 792 l 47 990 l 1014 990 l 1014 792 l 642 792 z "},"U":{"ha":1251,"x_min":92,"x_max":1160,"o":"m 626 -28 q 333 29 456 -28 q 92 547 92 144 l 92 990 l 336 990 l 336 554 q 369 342 336 421 q 629 196 432 196 q 789 229 725 196 q 915 554 915 292 l 915 990 l 1160 990 l 1160 547 q 1096 213 1160 340 q 626 -28 974 -28 z "},"V":{"ha":1163,"x_min":0,"x_max":1163,"o":"m 440 0 l 0 990 l 254 990 l 568 256 l 911 990 l 1163 990 l 678 0 l 440 0 z "},"W":{"ha":1789,"x_min":4,"x_max":1785,"o":"m 886 700 l 558 0 l 326 0 l 4 990 l 246 990 l 471 275 l 800 990 l 985 990 l 1271 276 l 1546 990 l 1785 990 l 1382 0 l 1160 0 l 886 700 z "},"X":{"ha":1213,"x_min":-14,"x_max":1218,"o":"m 611 376 l 285 0 l -14 0 l 461 526 l 44 990 l 335 990 l 614 663 l 892 990 l 1185 990 l 760 528 l 1218 0 l 928 0 l 611 376 z "},"Y":{"ha":1133,"x_min":-18,"x_max":1151,"o":"m 429 0 l 429 407 l -18 990 l 268 990 l 556 596 l 867 990 l 1151 990 l 672 403 l 672 0 l 429 0 z "},"Z":{"ha":1111,"x_min":51,"x_max":1057,"o":"m 51 0 l 51 193 l 756 794 l 89 794 l 89 990 l 1057 990 l 1057 778 l 385 207 l 1057 207 l 1057 0 l 51 0 z "},"[":{"ha":686,"x_min":121,"x_max":642,"o":"m 642 -262 l 121 -262 l 121 1076 l 642 1076 l 642 894 l 354 894 l 354 -81 l 642 -81 l 642 -262 z "},"\\":{"ha":614,"x_min":-10,"x_max":621,"o":"m 253 990 l 621 0 l 358 0 l -10 990 l 253 990 z "},"]":{"ha":686,"x_min":46,"x_max":567,"o":"m 46 -262 l 46 -81 l 333 -81 l 333 894 l 46 894 l 46 1074 l 567 1074 l 567 -262 l 46 -262 z "},"^":{"ha":996,"x_min":149,"x_max":847,"o":"m 500 801 l 351 514 l 149 514 l 417 990 l 583 990 l 847 514 l 647 514 l 500 801 z "},"_":{"ha":1178,"x_min":33,"x_max":1144,"o":"m 1144 -343 l 33 -343 l 33 -103 l 1144 -103 l 1144 -343 z "},"`":{"ha":1031,"x_min":233,"x_max":769,"o":"m 233 1260 l 493 1260 l 769 942 l 582 942 l 233 1260 z "},"a":{"ha":1132,"x_min":49,"x_max":1044,"o":"m 832 189 q 668 32 781 90 q 389 -26 556 -26 q 49 200 49 -26 l 49 201 q 175 404 49 346 q 263 436 207 419 q 593 474 357 460 q 731 486 703 482 q 799 508 779 493 q 818 549 818 522 l 818 550 q 797 601 818 579 q 593 656 753 656 q 432 640 486 656 q 344 597 372 626 q 311 519 317 568 l 68 519 q 213 751 88 676 q 572 825 339 825 q 832 797 724 825 q 992 696 939 768 q 1044 496 1044 624 l 1044 0 l 853 0 l 832 189 m 460 140 q 646 176 563 140 q 774 266 728 211 q 821 382 821 321 l 821 388 q 614 333 788 343 q 349 294 410 324 q 299 222 299 269 l 299 221 q 460 140 299 140 z "},"b":{"ha":1196,"x_min":94,"x_max":1136,"o":"m 683 -24 q 314 129 404 -24 l 300 0 l 94 0 l 94 1056 l 325 1056 l 325 653 q 694 824 432 824 q 1020 713 904 824 q 1136 393 1136 603 q 999 79 1136 192 q 683 -24 871 -24 m 606 167 q 828 223 761 167 q 896 393 896 279 q 827 576 896 515 q 608 636 758 636 q 392 574 468 636 q 317 393 317 511 q 606 167 317 167 z "},"c":{"ha":1165,"x_min":60,"x_max":1125,"o":"m 1125 351 q 1056 154 1117 239 q 582 -26 925 -26 q 276 25 392 -26 q 60 393 60 119 q 125 624 60 525 q 589 826 261 826 q 966 731 829 826 q 1125 457 1103 635 l 871 457 q 789 592 856 549 q 592 636 722 636 q 300 393 300 636 q 369 222 300 278 q 589 167 439 167 q 791 213 725 167 q 871 351 857 258 l 1125 351 z "},"d":{"ha":1203,"x_min":60,"x_max":1101,"o":"m 882 151 q 515 -24 790 -24 q 283 18 388 -24 q 60 392 60 108 q 117 625 60 529 q 525 824 235 824 q 871 667 767 824 l 871 1056 l 1101 1056 l 1101 0 l 899 0 l 882 151 m 586 167 q 879 393 879 167 q 803 574 879 511 q 588 636 728 636 q 300 392 300 636 q 367 221 300 275 q 586 167 435 167 z "},"e":{"ha":1172,"x_min":60,"x_max":1117,"o":"m 1107 238 q 913 35 1044 96 q 574 -26 781 -26 q 271 25 389 -26 q 60 383 60 124 q 118 603 60 503 q 592 826 250 826 q 875 775 756 826 q 1117 399 1117 668 l 1117 314 l 283 314 q 378 194 304 233 q 593 156 451 156 q 847 238 789 156 l 1107 238 m 599 646 q 289 482 342 646 l 883 482 q 796 608 864 569 q 599 646 728 646 z "},"f":{"ha":761,"x_min":15,"x_max":733,"o":"m 460 600 l 458 0 l 235 0 l 235 600 l 15 600 l 15 797 l 235 797 l 235 839 q 265 1035 235 964 q 367 1134 294 1104 q 572 1164 440 1164 l 733 1164 l 733 976 l 594 976 q 511 967 540 976 q 471 928 482 957 q 460 840 460 900 l 460 797 l 733 797 l 733 600 l 460 600 z "},"g":{"ha":1094,"x_min":28,"x_max":1097,"o":"m 1097 -72 q 1044 -228 1097 -162 q 572 -362 933 -362 l 511 -362 q 231 -342 328 -362 q 32 -178 32 -301 q 97 -55 32 -97 q 311 0 161 -12 q 94 31 161 1 q 28 146 28 61 q 306 317 28 307 q 126 385 185 335 q 67 535 67 435 q 187 740 67 665 q 544 814 307 814 l 576 814 q 706 826 663 814 q 776 874 754 838 q 797 982 797 910 l 797 993 l 1058 993 l 1058 983 q 1043 867 1058 907 q 989 810 1028 826 q 706 786 936 786 q 968 715 888 775 q 1049 535 1049 654 q 934 338 1049 400 q 582 275 819 275 l 488 275 q 318 269 368 275 q 248 252 267 264 q 229 218 229 240 q 251 190 229 199 q 478 174 290 174 l 694 174 q 1004 120 911 174 q 1097 -65 1097 67 l 1097 -72 m 557 428 q 759 454 696 428 q 822 538 822 481 q 765 626 822 600 q 571 653 707 653 l 543 653 q 356 625 410 653 q 301 532 301 597 q 359 449 301 471 q 557 428 417 428 m 600 -179 q 769 -167 719 -179 q 878 -83 878 -144 l 878 -76 q 864 -35 878 -50 q 667 0 836 0 l 479 0 q 324 -21 374 0 q 274 -92 274 -42 l 274 -93 q 337 -161 274 -143 q 550 -179 400 -179 l 600 -179 z "},"h":{"ha":1147,"x_min":94,"x_max":1060,"o":"m 322 0 l 94 0 l 94 1056 l 322 1056 l 322 635 q 668 826 421 826 q 881 778 796 826 q 1060 436 1060 679 l 1060 0 l 822 0 l 822 367 q 801 508 822 442 q 590 638 756 638 q 388 567 453 638 q 322 356 322 497 l 322 0 z "},"i":{"ha":432,"x_min":68,"x_max":374,"o":"m 221 919 q 103 951 138 919 q 68 1063 68 982 q 106 1170 68 1138 q 221 1203 144 1203 q 335 1170 297 1203 q 374 1063 374 1138 q 336 954 374 989 q 221 919 299 919 m 94 0 l 94 797 l 338 797 l 338 0 l 94 0 z "},"j":{"ha":424,"x_min":-108,"x_max":368,"o":"m 215 919 q 97 951 132 919 q 63 1063 63 982 q 101 1170 63 1138 q 215 1203 139 1203 q 330 1170 292 1203 q 368 1063 368 1138 q 331 954 368 989 q 215 919 293 919 m -108 -396 l -108 -182 l -64 -182 q 72 -153 46 -182 q 100 8 100 -124 l 100 797 l 329 797 l 329 -22 q 313 -213 329 -142 q 258 -324 297 -285 q -44 -396 186 -396 l -108 -396 z "},"k":{"ha":1104,"x_min":94,"x_max":1131,"o":"m 558 369 l 325 186 l 325 0 l 94 0 l 94 1056 l 325 1056 l 325 406 l 799 797 l 1118 797 l 739 488 l 1131 0 l 849 0 l 558 369 z "},"l":{"ha":426,"x_min":94,"x_max":332,"o":"m 94 0 l 94 1056 l 332 1056 l 332 0 l 94 0 z "},"m":{"ha":1736,"x_min":93,"x_max":1649,"o":"m 332 0 l 93 0 l 93 797 l 296 797 l 315 628 q 631 826 407 826 q 951 618 876 826 q 1078 770 993 715 q 1283 825 1163 825 q 1488 775 1406 825 q 1649 425 1649 672 l 1649 0 l 1411 0 l 1411 383 q 1393 517 1411 456 q 1199 636 1356 636 q 1043 565 1094 636 q 992 369 992 494 l 992 0 l 754 0 l 754 396 q 738 519 754 464 q 550 636 704 636 q 332 358 332 636 l 332 0 z "},"n":{"ha":1158,"x_min":93,"x_max":1071,"o":"m 333 0 l 93 0 l 93 797 l 299 797 l 318 624 q 676 826 422 826 q 890 778 803 826 q 1071 436 1071 679 l 1071 0 l 832 0 l 832 379 q 778 572 832 507 q 597 636 725 636 q 397 566 461 636 q 333 353 333 496 l 333 0 z "},"o":{"ha":1179,"x_min":60,"x_max":1119,"o":"m 582 -26 q 276 25 392 -26 q 60 393 60 119 q 125 624 60 525 q 589 826 261 826 q 871 775 751 826 q 1119 393 1119 667 q 1063 174 1119 267 q 582 -26 944 -26 m 589 167 q 812 223 744 167 q 879 393 879 279 q 810 576 879 515 q 592 636 742 636 q 300 393 300 636 q 369 222 300 278 q 589 167 439 167 z "},"p":{"ha":1199,"x_min":93,"x_max":1139,"o":"m 682 -24 q 324 119 422 -24 l 324 -286 l 93 -286 l 93 797 l 296 797 l 313 651 q 689 824 425 824 q 1020 713 901 824 q 1139 393 1139 603 q 1000 79 1139 192 q 682 -24 872 -24 m 608 167 q 831 223 764 167 q 899 393 899 279 q 830 576 899 515 q 611 636 761 636 q 395 574 471 636 q 319 393 319 511 q 608 167 319 167 z "},"q":{"ha":1199,"x_min":60,"x_max":1106,"o":"m 875 -286 l 875 122 q 515 -24 778 -24 q 286 18 390 -24 q 60 393 60 114 q 117 625 60 532 q 518 824 233 824 q 886 654 778 824 l 903 797 l 1106 797 l 1106 -286 l 875 -286 m 590 167 q 809 223 739 167 q 879 393 879 279 q 803 574 879 511 q 588 636 728 636 q 300 393 300 636 q 367 221 300 275 q 590 167 433 167 z "},"r":{"ha":801,"x_min":93,"x_max":750,"o":"m 93 0 l 93 797 l 297 797 l 324 575 q 649 806 393 806 l 750 806 l 750 575 l 643 575 q 451 546 514 575 q 360 451 386 518 q 333 264 333 385 l 333 0 l 93 0 z "},"s":{"ha":1060,"x_min":15,"x_max":1022,"o":"m 553 -26 q 176 44 307 -26 q 15 264 46 115 l 286 264 q 368 179 307 204 q 565 154 429 154 q 739 177 689 154 q 789 244 789 200 q 738 296 789 283 q 485 317 685 311 q 146 378 247 324 q 44 550 44 432 q 93 692 44 633 q 490 826 199 826 q 842 760 717 826 q 1011 549 968 693 l 756 549 q 673 631 740 607 q 488 656 606 656 q 354 643 396 656 q 272 569 272 621 q 318 517 272 532 q 565 493 372 501 q 929 428 835 483 q 1022 250 1022 378 q 901 50 1022 126 q 553 -26 779 -26 z "},"t":{"ha":842,"x_min":15,"x_max":799,"o":"m 799 0 l 614 0 q 386 38 472 0 q 272 160 306 76 q 238 393 238 244 l 238 597 l 15 597 l 15 786 q 168 792 128 786 q 222 815 204 799 q 251 867 240 832 q 264 1015 267 917 l 461 1015 l 461 797 l 799 797 l 799 597 l 461 597 l 461 432 q 500 242 461 278 q 560 212 521 219 q 676 204 600 204 l 799 204 l 799 0 z "},"u":{"ha":1131,"x_min":86,"x_max":1038,"o":"m 814 181 q 685 28 774 83 q 467 -26 597 -26 q 185 76 283 -26 q 86 361 86 179 l 86 797 l 325 797 l 325 408 q 381 226 325 286 q 564 167 436 167 q 737 234 676 167 q 797 422 797 301 l 797 797 l 1038 797 l 1038 0 l 835 0 l 814 181 z "},"v":{"ha":1111,"x_min":-1,"x_max":1113,"o":"m 432 0 l -1 797 l 260 797 l 550 239 l 849 797 l 1113 797 l 656 0 l 432 0 z "},"w":{"ha":1542,"x_min":1,"x_max":1540,"o":"m 763 542 l 488 0 l 285 0 l 1 797 l 246 797 l 417 276 l 675 797 l 861 797 l 1101 271 l 1304 797 l 1540 797 l 1211 0 l 1011 0 l 763 542 z "},"x":{"ha":1056,"x_min":-25,"x_max":1083,"o":"m 535 283 l 271 0 l -25 0 l 393 419 l 17 797 l 310 797 l 540 547 l 772 797 l 1063 797 l 683 418 l 1083 0 l 790 0 l 535 283 z "},"y":{"ha":1106,"x_min":-1,"x_max":1110,"o":"m 47 -358 l 47 -154 l 163 -154 q 274 -139 236 -154 q 345 -95 315 -126 q 407 -7 375 -64 l 433 40 l -1 797 l 257 797 l 547 274 l 557 249 l 567 271 l 856 797 l 1110 797 l 625 -49 q 428 -304 511 -247 q 151 -358 344 -358 l 47 -358 z "},"z":{"ha":1028,"x_min":36,"x_max":990,"o":"m 36 174 l 671 622 l 67 622 l 67 797 l 986 797 l 986 625 l 365 183 l 990 183 l 990 0 l 36 -1 l 36 174 z "},"{":{"ha":729,"x_min":26,"x_max":688,"o":"m 428 -262 q 164 -62 164 -262 q 224 97 164 -4 q 238 122 228 104 q 251 148 247 140 q 263 170 256 156 q 274 193 271 185 q 279 212 276 201 q 282 231 282 222 q 168 321 282 321 l 26 321 l 26 522 l 158 522 q 240 543 215 522 q 265 608 265 564 q 219 731 265 642 q 172 876 172 810 q 235 1026 172 976 q 435 1075 297 1075 l 688 1075 l 688 896 l 568 896 q 418 794 418 896 q 465 694 418 769 q 513 569 513 617 q 494 499 513 532 q 300 431 453 431 l 300 415 q 431 394 385 415 q 519 269 519 358 q 469 132 519 221 q 419 6 419 44 q 565 -83 419 -83 l 688 -83 l 688 -262 l 428 -262 z "},"|":{"ha":489,"x_min":128,"x_max":361,"o":"m 128 -89 l 128 1096 l 361 1096 l 361 -89 l 128 -89 z "},"}":{"ha":729,"x_min":42,"x_max":703,"o":"m 42 -83 l 161 -83 q 311 18 311 -83 q 264 133 311 42 q 217 274 217 228 q 235 344 217 311 q 429 413 278 414 l 429 428 q 301 449 344 428 q 219 574 219 483 q 265 696 219 621 q 310 807 310 774 q 164 896 310 896 l 42 896 l 42 1075 l 301 1075 q 565 875 565 1075 q 507 732 565 818 q 447 613 447 649 q 553 522 447 522 l 703 522 l 703 321 l 571 321 q 453 235 453 321 q 506 99 453 199 q 557 -64 557 -7 q 494 -213 557 -164 q 294 -262 432 -262 l 42 -262 l 42 -83 z "},"~":{"ha":1001,"x_min":121,"x_max":875,"o":"m 121 538 q 142 669 121 617 q 347 803 188 803 q 513 746 424 803 q 527 736 515 743 q 543 727 539 729 q 558 719 547 725 q 573 710 568 713 q 587 703 578 708 q 601 697 596 699 q 615 693 607 696 q 631 690 624 690 q 644 689 638 689 q 703 713 688 689 q 719 794 718 738 l 875 794 q 854 656 875 711 q 643 529 811 529 q 478 585 563 529 q 346 640 393 640 q 274 538 276 640 l 121 538 z "}," ":{"ha":353,"x_min":0,"x_max":0,"o":""},"¡":{"ha":546,"x_min":114,"x_max":429,"o":"m 271 822 q 394 790 358 822 q 429 676 429 758 q 390 566 429 600 q 271 532 350 532 q 153 565 192 532 q 114 676 114 599 q 153 788 114 753 q 271 822 192 822 m 128 -192 l 128 -60 q 139 165 128 54 q 186 432 163 368 q 208 430 193 432 q 237 427 222 428 q 267 426 251 426 q 347 432 286 426 q 369 340 354 417 q 406 -60 406 151 l 406 -192 l 128 -192 z "},"¢":{"ha":1146,"x_min":46,"x_max":1118,"o":"m 1118 351 q 992 93 1101 186 q 696 -21 882 0 l 696 -185 l 474 -185 l 474 -21 q 225 47 315 -6 q 46 393 46 149 q 99 600 46 507 q 474 819 207 786 l 474 965 l 697 965 l 697 821 q 899 769 803 811 q 1118 457 1089 683 l 872 457 q 590 632 839 632 q 286 397 286 632 q 358 224 286 281 q 588 168 429 168 q 783 210 717 168 q 872 351 850 253 l 1118 351 z "},"£":{"ha":1146,"x_min":26,"x_max":1122,"o":"m 843 -21 q 716 -1 782 -21 q 607 38 650 18 q 500 94 564 58 q 256 -21 408 -21 q 79 24 132 -21 q 26 153 26 69 q 81 272 26 225 q 235 319 136 319 q 404 288 311 319 q 343 407 400 340 l 68 407 l 68 574 l 232 574 q 179 731 179 644 q 225 871 179 803 q 575 1011 325 1011 q 1039 686 975 1011 l 776 685 q 581 807 753 807 q 466 776 506 807 q 426 693 426 744 q 468 574 426 639 l 790 574 l 790 407 l 540 407 q 568 285 568 354 q 561 219 568 257 q 760 167 679 167 q 854 194 829 167 q 879 294 879 221 l 879 314 l 1122 314 l 1122 281 q 1057 49 1122 118 q 843 -21 992 -21 m 260 106 q 378 161 342 106 q 247 197 301 197 q 189 153 189 197 q 208 119 189 133 q 260 106 228 106 z "},"¤":{"ha":1469,"x_min":78,"x_max":1407,"o":"m 742 35 q 489 86 600 35 l 265 -137 l 85 36 l 307 258 q 254 493 254 360 l 254 496 q 306 725 254 625 l 78 939 l 247 1119 l 481 900 q 742 958 593 958 q 1000 899 889 958 l 1229 1125 l 1407 953 l 1176 725 q 1229 494 1229 622 l 1229 492 q 1179 269 1229 369 l 1393 61 l 1225 -115 l 1008 96 q 742 35 893 35 m 742 249 q 938 313 864 249 q 1011 490 1011 376 l 1011 497 q 976 631 1011 575 q 742 746 906 746 q 547 681 619 746 q 475 497 475 615 l 475 490 q 548 312 475 375 q 742 249 621 249 z "},"¥":{"ha":1182,"x_min":8,"x_max":1172,"o":"m 696 125 l 696 0 l 453 0 l 453 125 l 171 125 l 171 286 l 453 286 l 453 374 l 175 374 l 175 542 l 453 542 l 453 549 l 8 990 l 311 990 l 582 706 l 869 990 l 1172 990 l 696 544 l 696 542 l 993 542 l 993 374 l 696 374 l 696 286 l 989 286 l 989 125 l 696 125 z "},"¦":{"ha":489,"x_min":128,"x_max":361,"o":"m 128 1096 l 361 1096 l 361 567 l 128 567 l 128 1096 m 361 456 l 361 -89 l 128 -89 l 128 456 l 361 456 z "},"§":{"ha":1250,"x_min":17,"x_max":1225,"o":"m 650 -249 q 113 86 156 -249 l 374 86 q 456 -31 388 6 q 663 -68 524 -68 q 836 -40 786 -68 q 886 42 886 -11 q 750 142 886 108 q 451 192 704 153 q 153 271 258 221 q 17 463 17 336 q 81 610 17 557 q 278 681 146 663 q 126 896 126 751 q 176 1063 126 989 q 588 1219 288 1219 q 942 1142 817 1219 q 1108 904 1068 1065 l 854 904 q 585 1049 818 1049 q 446 1031 497 1049 q 358 917 358 1000 q 494 814 358 847 q 792 761 532 804 q 1090 675 990 728 q 1225 468 1225 604 q 982 261 1225 301 q 1119 49 1119 186 q 1001 -169 1119 -89 q 650 -249 882 -249 m 681 347 q 806 324 763 333 q 949 364 900 329 q 997 447 997 399 q 861 557 997 522 q 563 606 828 565 q 447 626 551 607 q 242 514 242 625 q 379 401 242 435 q 681 347 424 389 z "},"¨":{"ha":1036,"x_min":193,"x_max":842,"o":"m 332 936 q 224 965 256 936 q 193 1065 193 993 q 227 1163 193 1133 q 332 1193 261 1193 q 436 1163 403 1193 q 469 1065 469 1133 q 436 967 469 997 q 332 936 403 936 m 703 936 q 595 965 625 936 q 565 1065 565 993 q 599 1163 565 1133 q 703 1193 632 1193 q 808 1163 774 1193 q 842 1065 842 1133 q 808 967 842 997 q 703 936 774 936 z "},"©":{"ha":1297,"x_min":47,"x_max":1250,"o":"m 649 -28 q 338 29 472 -28 q 47 497 47 150 q 219 889 47 740 q 649 1038 388 1038 q 1078 889 910 1038 q 1250 497 1250 740 q 1172 201 1250 317 q 649 -28 1022 -28 m 324 217 q 382 170 324 217 q 649 122 440 122 q 973 217 857 122 q 1089 497 1089 313 q 1035 707 1089 614 q 649 889 918 889 q 417 842 515 889 q 208 497 208 740 q 324 217 208 313 m 967 468 q 638 250 933 250 q 336 501 336 250 q 374 639 336 578 q 640 761 457 761 q 867 703 782 761 q 965 538 953 646 l 801 538 q 643 618 793 618 q 531 588 569 618 q 492 504 492 558 q 640 392 492 392 q 801 468 790 392 l 967 468 z "},"ª":{"ha":800,"x_min":22,"x_max":736,"o":"m 574 532 q 267 410 485 410 q 22 565 22 410 l 22 567 q 114 714 22 672 q 176 736 139 728 q 411 764 249 757 q 507 774 464 765 q 563 817 563 782 q 414 879 563 879 q 303 869 349 879 q 225 796 235 854 l 36 796 q 404 1013 63 1013 q 658 959 581 1013 q 736 779 736 906 l 736 428 l 586 428 l 574 532 m 315 540 q 439 563 382 540 q 529 623 496 588 q 563 699 563 658 q 422 658 536 667 q 249 631 282 649 q 215 585 215 614 q 315 540 215 540 z "},"«":{"ha":1076,"x_min":135,"x_max":1038,"o":"m 390 129 l 135 425 l 135 456 l 376 753 l 585 753 l 344 456 l 619 129 l 390 129 m 808 129 l 539 431 l 539 464 l 776 753 l 989 753 l 750 461 l 1038 129 l 808 129 z "},"¬":{"ha":1079,"x_min":40,"x_max":997,"o":"m 774 568 l 763 581 l 40 581 l 40 789 l 997 789 l 997 146 l 774 146 l 774 568 z "},"­":{"ha":960,"x_min":85,"x_max":874,"o":"m 874 331 l 85 331 l 85 565 l 874 565 l 874 331 z "},"®":{"ha":742,"x_min":60,"x_max":679,"o":"m 374 363 q 215 397 289 363 q 60 671 60 472 l 60 692 q 101 861 60 789 q 213 970 143 932 q 369 1008 283 1008 q 528 971 456 1008 q 679 697 679 890 l 679 674 q 638 508 679 579 q 528 401 597 439 q 374 363 460 363 m 374 456 q 531 513 476 456 q 585 682 585 571 l 585 689 q 528 859 585 800 q 369 918 472 918 q 211 857 267 918 q 156 683 156 796 l 156 678 q 213 512 156 568 q 374 456 269 456 m 331 621 l 331 529 l 246 529 l 246 851 l 382 851 q 515 746 515 851 q 447 658 515 678 q 504 575 504 643 l 504 549 q 510 529 504 531 l 425 529 q 418 550 418 535 l 418 575 q 409 612 418 603 q 371 621 400 621 l 331 621 m 331 778 l 331 697 l 369 697 q 431 740 431 697 q 417 770 431 763 q 369 778 404 778 l 331 778 z "},"¯":{"ha":1031,"x_min":219,"x_max":815,"o":"m 219 1103 l 815 1103 l 815 933 l 219 933 l 219 1103 z "},"°":{"ha":586,"x_min":25,"x_max":561,"o":"m 290 522 q 92 585 158 522 q 25 760 25 647 q 58 883 25 828 q 297 1001 131 1001 q 490 935 418 1001 q 561 760 561 868 q 490 585 561 649 q 290 522 419 522 m 290 667 q 393 760 393 667 q 292 850 393 850 q 192 760 192 850 q 290 667 192 667 z "},"±":{"ha":906,"x_min":110,"x_max":806,"o":"m 557 550 l 557 321 l 353 321 l 353 550 l 110 550 l 110 757 l 353 757 l 353 983 l 557 983 l 557 757 l 806 757 l 806 550 l 557 550 m 110 6 l 110 211 l 806 211 l 806 6 l 110 6 z "},"²":{"ha":547,"x_min":15,"x_max":519,"o":"m 15 496 l 15 565 q 104 715 15 667 q 269 771 161 744 q 358 829 358 792 q 279 871 358 871 q 185 799 185 871 l 22 799 q 281 1000 29 1000 q 461 954 403 1000 q 519 833 519 908 q 497 756 519 786 q 360 675 458 703 q 308 660 340 669 q 251 644 275 651 q 210 631 226 638 l 517 631 l 517 496 l 15 496 z "},"³":{"ha":571,"x_min":14,"x_max":539,"o":"m 274 485 q 78 533 140 485 q 14 681 17 581 l 181 681 q 207 629 182 646 q 292 613 232 613 q 376 653 376 613 q 363 676 376 669 q 308 683 349 683 l 215 683 l 215 800 l 301 800 q 364 832 364 800 q 289 869 364 869 q 189 808 189 869 l 25 808 q 94 949 25 897 q 292 1000 163 1000 q 468 961 408 1000 q 528 863 528 922 q 499 788 528 811 q 414 757 471 765 q 539 642 539 739 q 274 485 539 485 z "},"´":{"ha":1031,"x_min":361,"x_max":882,"o":"m 624 1260 l 882 1260 l 547 942 l 361 942 l 624 1260 z "},"¶":{"ha":1251,"x_min":42,"x_max":1139,"o":"m 574 0 l 574 307 l 522 307 q 158 388 275 306 q 42 640 42 471 q 90 828 42 749 q 544 990 192 990 l 1139 990 l 1139 0 l 924 0 l 924 803 l 789 803 l 789 0 l 574 0 m 574 496 l 574 803 l 543 803 q 326 769 390 803 q 263 646 263 735 q 324 530 263 564 q 536 496 385 496 l 574 496 z "},"·":{"ha":510,"x_min":94,"x_max":410,"o":"m 253 293 q 131 326 167 293 q 94 439 94 358 q 134 549 94 515 q 253 583 174 583 q 371 550 332 583 q 410 439 410 517 q 371 328 410 363 q 253 293 332 293 z "},"¸":{"ha":1031,"x_min":186,"x_max":786,"o":"m 510 -428 q 335 -401 406 -428 q 186 -215 213 -354 l 376 -215 q 417 -278 382 -256 q 507 -301 453 -301 q 625 -226 625 -301 q 496 -164 625 -164 l 404 -164 l 404 33 l 569 33 l 569 -50 q 732 -100 678 -54 q 786 -222 786 -146 q 715 -373 786 -318 q 510 -428 643 -428 z "},"¹":{"ha":429,"x_min":14,"x_max":413,"o":"m 14 496 l 14 640 l 142 640 l 142 761 l 39 761 l 39 879 q 163 990 144 886 l 290 990 l 290 640 l 413 640 l 413 496 l 14 496 z "},"º":{"ha":844,"x_min":47,"x_max":797,"o":"m 418 422 q 201 457 289 422 q 47 713 47 526 q 94 872 47 807 q 422 1014 189 1014 q 698 936 599 1014 q 797 715 797 858 q 704 500 797 578 q 418 422 611 422 m 422 579 q 565 613 519 579 q 610 715 610 646 q 425 857 610 857 q 285 820 333 857 q 236 715 236 783 q 422 579 236 579 z "},"»":{"ha":1076,"x_min":58,"x_max":963,"o":"m 58 129 l 346 460 l 108 753 l 319 753 l 558 464 l 558 431 l 288 129 l 58 129 m 478 129 l 753 454 l 513 753 l 719 753 l 963 456 l 963 425 l 707 129 l 478 129 z "},"¼":{"ha":1610,"x_min":185,"x_max":1468,"o":"m 871 618 l 1228 1072 l 1468 875 l 946 551 l 871 618 m 210 496 l 210 640 l 338 640 l 338 761 l 235 761 l 235 879 q 358 990 340 886 l 486 990 l 486 640 l 608 640 l 608 496 l 210 496 m 796 433 l 426 -56 l 185 156 l 725 500 l 796 433 m 1310 89 l 1310 0 l 1167 0 l 1167 89 l 842 89 l 842 197 l 1172 494 l 1310 494 l 1310 211 l 1404 211 l 1404 89 l 1310 89 m 1017 211 l 1167 211 l 1167 310 l 1172 353 l 1157 333 l 1017 211 z "},"½":{"ha":1610,"x_min":185,"x_max":1468,"o":"m 871 618 l 1228 1072 l 1468 875 l 946 551 l 871 618 m 210 496 l 210 640 l 338 640 l 338 761 l 235 761 l 235 879 q 358 990 340 886 l 486 990 l 486 640 l 608 640 l 608 496 l 210 496 m 911 0 l 911 69 q 1000 219 911 171 q 1165 275 1057 249 q 1254 333 1254 296 q 1175 375 1254 375 q 1081 303 1081 375 l 918 303 q 1176 504 925 504 q 1357 458 1299 504 q 1415 338 1415 413 q 1393 260 1415 290 q 1256 179 1354 207 q 1203 165 1236 174 q 1147 149 1171 156 q 1106 135 1122 142 l 1413 135 l 1413 0 l 911 0 m 796 433 l 426 -56 l 185 156 l 725 500 l 796 433 z "},"¾":{"ha":1610,"x_min":139,"x_max":1468,"o":"m 871 618 l 1228 1072 l 1468 875 l 946 551 l 871 618 m 399 485 q 203 533 265 485 q 139 681 142 581 l 306 681 q 332 629 307 646 q 417 613 357 613 q 501 653 501 613 q 488 676 501 669 q 433 683 474 683 l 340 683 l 340 800 l 426 800 q 489 832 489 800 q 414 869 489 869 q 314 808 314 869 l 150 808 q 219 949 150 897 q 417 1000 288 1000 q 593 961 533 1000 q 653 863 653 922 q 624 788 653 811 q 539 757 596 765 q 664 642 664 739 q 399 485 664 485 m 796 433 l 426 -56 l 185 156 l 725 500 l 796 433 m 1311 89 l 1311 0 l 1168 0 l 1168 89 l 843 89 l 843 197 l 1174 494 l 1311 494 l 1311 211 l 1406 211 l 1406 89 l 1311 89 m 1018 211 l 1168 211 l 1168 310 l 1174 353 l 1158 333 l 1018 211 z "},"¿":{"ha":1222,"x_min":133,"x_max":1168,"o":"m 675 821 q 798 789 763 821 q 833 676 833 757 q 794 565 833 599 q 676 532 756 532 q 558 566 597 532 q 518 676 518 600 q 557 786 518 751 q 675 821 596 821 m 564 488 q 676 465 590 465 q 792 488 764 465 q 794 418 794 463 l 794 403 q 758 296 794 336 q 551 194 706 239 q 510 183 542 192 q 463 168 479 174 q 369 88 369 140 q 392 31 369 53 q 636 -17 433 -17 q 861 24 789 -17 q 933 161 933 65 l 1168 161 q 636 -212 1168 -212 q 342 -176 453 -212 q 133 81 133 -107 q 211 263 133 204 q 375 332 267 304 q 461 357 419 342 q 560 449 554 385 l 564 488 z "},"À":{"ha":1258,"x_min":1,"x_max":1258,"o":"m 188 1425 l 447 1425 l 724 1107 l 536 1107 l 188 1425 m 904 215 l 356 215 l 253 0 l 1 0 l 503 990 l 749 990 l 1258 0 l 1010 0 l 904 215 m 625 781 l 446 404 l 810 404 l 625 781 z "},"Á":{"ha":1258,"x_min":1,"x_max":1258,"o":"m 796 1425 l 1054 1425 l 719 1107 l 533 1107 l 796 1425 m 904 215 l 356 215 l 253 0 l 1 0 l 503 990 l 749 990 l 1258 0 l 1010 0 l 904 215 m 625 781 l 446 404 l 810 404 l 625 781 z "},"Â":{"ha":1258,"x_min":1,"x_max":1258,"o":"m 625 1265 l 479 1088 l 271 1088 l 539 1406 l 710 1406 l 976 1088 l 772 1088 l 625 1265 m 904 215 l 356 215 l 253 0 l 1 0 l 503 990 l 749 990 l 1258 0 l 1010 0 l 904 215 m 625 781 l 446 404 l 810 404 l 625 781 z "},"Ã":{"ha":1258,"x_min":1,"x_max":1258,"o":"m 293 1082 q 311 1204 293 1150 q 500 1325 354 1325 q 650 1278 564 1325 q 769 1229 724 1229 q 824 1251 808 1229 q 840 1318 839 1272 l 979 1318 q 961 1190 979 1251 q 769 1075 919 1075 q 617 1122 689 1075 q 499 1168 539 1168 q 431 1082 438 1168 l 293 1082 m 904 215 l 356 215 l 253 0 l 1 0 l 503 990 l 749 990 l 1258 0 l 1010 0 l 904 215 m 625 781 l 446 404 l 810 404 l 625 781 z "},"Ä":{"ha":1258,"x_min":1,"x_max":1258,"o":"m 442 1094 q 334 1123 365 1094 q 303 1224 303 1151 q 337 1322 303 1292 q 442 1351 371 1351 q 546 1322 513 1351 q 579 1224 579 1292 q 546 1125 579 1156 q 442 1094 513 1094 m 813 1094 q 705 1123 735 1094 q 675 1224 675 1151 q 708 1322 675 1292 q 813 1351 742 1351 q 917 1322 883 1351 q 951 1224 951 1292 q 917 1125 951 1156 q 813 1094 883 1094 m 904 215 l 356 215 l 253 0 l 1 0 l 503 990 l 749 990 l 1258 0 l 1010 0 l 904 215 m 625 781 l 446 404 l 810 404 l 625 781 z "},"Å":{"ha":1258,"x_min":1,"x_max":1258,"o":"m 636 1082 q 474 1139 532 1082 q 417 1299 417 1196 q 476 1460 417 1401 q 636 1518 536 1518 q 799 1461 740 1518 q 858 1299 858 1404 q 799 1141 858 1200 q 636 1082 739 1082 m 636 1219 q 693 1240 667 1219 q 719 1299 719 1261 q 636 1383 719 1383 q 575 1361 597 1383 q 553 1299 553 1339 q 636 1219 553 1219 m 904 215 l 356 215 l 253 0 l 1 0 l 503 990 l 749 990 l 1258 0 l 1010 0 l 904 215 m 625 781 l 446 404 l 810 404 l 625 781 z "},"Æ":{"ha":1888,"x_min":-36,"x_max":1838,"o":"m 921 256 l 406 256 l 222 0 l -36 0 l 299 450 l 299 451 l 300 451 l 701 990 l 1804 990 l 1804 794 l 1010 794 l 1056 594 l 1694 594 l 1694 399 l 1101 399 l 1146 203 l 1838 203 l 1838 0 l 978 0 l 921 256 m 797 801 l 546 451 l 876 451 l 797 801 z "},"Ç":{"ha":1281,"x_min":63,"x_max":1249,"o":"m 661 -453 q 486 -426 557 -453 q 338 -240 364 -379 l 528 -240 q 569 -303 533 -281 q 658 -326 604 -326 q 776 -251 776 -326 q 647 -189 776 -189 l 556 -189 l 556 -25 q 294 44 414 -15 q 63 485 63 164 l 63 492 q 140 775 63 660 q 353 953 218 892 q 667 1015 489 1015 q 938 971 815 1015 q 1243 599 1189 876 l 992 599 q 668 806 954 806 q 303 490 303 806 l 303 488 q 658 183 303 183 q 899 242 819 183 q 994 421 978 301 l 1249 421 q 721 -25 1183 7 l 721 -75 q 883 -125 829 -79 q 938 -247 938 -171 q 866 -398 938 -343 q 661 -453 794 -453 z "},"È":{"ha":1138,"x_min":111,"x_max":1086,"o":"m 151 1425 l 411 1425 l 688 1107 l 500 1107 l 151 1425 m 1086 0 l 111 0 l 111 990 l 1057 990 l 1057 794 l 335 794 l 335 594 l 946 594 l 946 399 l 335 399 l 335 203 l 1086 203 l 1086 0 z "},"É":{"ha":1138,"x_min":111,"x_max":1086,"o":"m 760 1425 l 1018 1425 l 683 1107 l 497 1107 l 760 1425 m 1086 0 l 111 0 l 111 990 l 1057 990 l 1057 794 l 335 794 l 335 594 l 946 594 l 946 399 l 335 399 l 335 203 l 1086 203 l 1086 0 z "},"Ê":{"ha":1138,"x_min":111,"x_max":1086,"o":"m 589 1285 l 443 1107 l 235 1107 l 503 1425 l 674 1425 l 940 1107 l 736 1107 l 589 1285 m 1086 0 l 111 0 l 111 990 l 1057 990 l 1057 794 l 335 794 l 335 594 l 946 594 l 946 399 l 335 399 l 335 203 l 1086 203 l 1086 0 z "},"Ë":{"ha":1138,"x_min":111,"x_max":1086,"o":"m 406 1101 q 298 1130 329 1101 q 267 1231 267 1158 q 301 1328 267 1299 q 406 1358 335 1358 q 510 1328 476 1358 q 543 1231 543 1299 q 510 1132 543 1163 q 406 1101 476 1101 m 776 1101 q 669 1130 699 1101 q 639 1231 639 1158 q 672 1328 639 1299 q 776 1358 706 1358 q 881 1328 847 1358 q 915 1231 915 1299 q 881 1132 915 1163 q 776 1101 847 1101 m 1086 0 l 111 0 l 111 990 l 1057 990 l 1057 794 l 335 794 l 335 594 l 946 594 l 946 399 l 335 399 l 335 203 l 1086 203 l 1086 0 z "},"Ì":{"ha":893,"x_min":15,"x_max":826,"o":"m 15 1425 l 275 1425 l 551 1107 l 364 1107 l 15 1425 m 67 0 l 67 217 l 336 217 l 336 783 l 67 783 l 67 990 l 826 990 l 826 783 l 557 783 l 557 217 l 826 217 l 826 0 l 67 0 z "},"Í":{"ha":893,"x_min":67,"x_max":882,"o":"m 624 1425 l 882 1425 l 547 1107 l 361 1107 l 624 1425 m 67 0 l 67 217 l 336 217 l 336 783 l 67 783 l 67 990 l 826 990 l 826 783 l 557 783 l 557 217 l 826 217 l 826 0 l 67 0 z "},"Î":{"ha":893,"x_min":67,"x_max":826,"o":"m 453 1285 l 307 1107 l 99 1107 l 367 1425 l 538 1425 l 804 1107 l 600 1107 l 453 1285 m 67 0 l 67 217 l 336 217 l 336 783 l 67 783 l 67 990 l 826 990 l 826 783 l 557 783 l 557 217 l 826 217 l 826 0 l 67 0 z "},"Ï":{"ha":893,"x_min":67,"x_max":826,"o":"m 269 1101 q 162 1130 193 1101 q 131 1231 131 1158 q 165 1328 131 1299 q 269 1358 199 1358 q 374 1328 340 1358 q 407 1231 407 1299 q 374 1132 407 1163 q 269 1101 340 1101 m 640 1101 q 533 1130 563 1101 q 503 1231 503 1158 q 536 1328 503 1299 q 640 1358 569 1358 q 745 1328 711 1358 q 779 1231 779 1299 q 745 1132 779 1163 q 640 1101 711 1101 m 67 0 l 67 217 l 336 217 l 336 783 l 67 783 l 67 990 l 826 990 l 826 783 l 557 783 l 557 217 l 826 217 l 826 0 l 67 0 z "},"Ð":{"ha":1300,"x_min":-14,"x_max":1229,"o":"m 153 0 l 153 382 l -14 382 l -14 589 l 153 589 l 153 990 l 614 990 q 1076 871 924 990 q 1229 493 1229 751 l 1229 486 q 1079 117 1229 233 q 628 0 929 0 l 153 0 m 383 382 l 383 203 l 615 203 q 836 231 750 203 q 955 321 918 258 q 992 490 992 383 l 992 494 q 954 667 992 596 q 831 760 915 731 q 604 789 747 789 l 383 789 l 383 589 l 661 589 l 661 382 l 383 382 z "},"Ñ":{"ha":1286,"x_min":111,"x_max":1178,"o":"m 310 1104 q 328 1226 310 1172 q 517 1347 371 1347 q 667 1300 581 1347 q 786 1251 740 1251 q 840 1273 825 1251 q 857 1340 856 1294 l 996 1340 q 978 1213 996 1274 q 786 1097 936 1097 q 633 1144 706 1097 q 515 1190 556 1190 q 447 1104 454 1190 l 310 1104 m 336 693 l 336 0 l 111 0 l 111 990 l 344 990 l 946 318 l 954 306 l 954 990 l 1178 990 l 1178 0 l 954 0 l 346 679 l 336 693 z "},"Ò":{"ha":1310,"x_min":63,"x_max":1247,"o":"m 215 1446 l 475 1446 l 751 1128 l 564 1128 l 215 1446 m 654 -28 q 343 26 471 -28 q 63 485 63 139 l 63 492 q 139 775 63 656 q 348 953 215 892 q 653 1015 481 1015 q 958 954 819 1015 q 1172 776 1097 893 q 1247 493 1247 658 l 1247 483 q 1171 197 1247 308 q 654 -28 1022 -28 m 653 183 q 842 213 768 183 q 1007 485 1007 271 l 1007 486 q 964 674 1007 601 q 654 806 881 806 q 303 488 303 806 l 303 486 q 394 258 303 333 q 653 183 485 183 z "},"Ó":{"ha":1310,"x_min":63,"x_max":1247,"o":"m 813 1439 l 1071 1439 l 736 1121 l 550 1121 l 813 1439 m 654 -28 q 343 26 471 -28 q 63 485 63 139 l 63 492 q 139 775 63 656 q 348 953 215 892 q 653 1015 481 1015 q 958 954 819 1015 q 1172 776 1097 893 q 1247 493 1247 658 l 1247 483 q 1171 197 1247 308 q 654 -28 1022 -28 m 653 183 q 842 213 768 183 q 1007 485 1007 271 l 1007 486 q 964 674 1007 601 q 654 806 881 806 q 303 488 303 806 l 303 486 q 394 258 303 333 q 653 183 485 183 z "},"Ô":{"ha":1310,"x_min":63,"x_max":1247,"o":"m 653 1306 l 507 1128 l 299 1128 l 567 1446 l 738 1446 l 1004 1128 l 800 1128 l 653 1306 m 654 -28 q 343 26 471 -28 q 63 485 63 139 l 63 492 q 139 775 63 656 q 348 953 215 892 q 653 1015 481 1015 q 958 954 819 1015 q 1172 776 1097 893 q 1247 493 1247 658 l 1247 483 q 1171 197 1247 308 q 654 -28 1022 -28 m 653 183 q 842 213 768 183 q 1007 485 1007 271 l 1007 486 q 964 674 1007 601 q 654 806 881 806 q 303 488 303 806 l 303 486 q 394 258 303 333 q 653 183 485 183 z "},"Õ":{"ha":1310,"x_min":63,"x_max":1247,"o":"m 294 1113 q 313 1235 294 1181 q 501 1356 356 1356 q 651 1308 565 1356 q 771 1260 725 1260 q 825 1281 810 1260 q 842 1349 840 1303 l 981 1349 q 963 1221 981 1282 q 771 1106 921 1106 q 618 1153 690 1106 q 500 1199 540 1199 q 432 1113 439 1199 l 294 1113 m 654 -28 q 343 26 471 -28 q 63 485 63 139 l 63 492 q 139 775 63 656 q 348 953 215 892 q 653 1015 481 1015 q 958 954 819 1015 q 1172 776 1097 893 q 1247 493 1247 658 l 1247 483 q 1171 197 1247 308 q 654 -28 1022 -28 m 653 183 q 842 213 768 183 q 1007 485 1007 271 l 1007 486 q 964 674 1007 601 q 654 806 881 806 q 303 488 303 806 l 303 486 q 394 258 303 333 q 653 183 485 183 z "},"Ö":{"ha":1310,"x_min":63,"x_max":1247,"o":"m 469 1122 q 362 1151 393 1122 q 331 1251 331 1179 q 365 1349 331 1319 q 469 1379 399 1379 q 574 1349 540 1379 q 607 1251 607 1319 q 574 1153 607 1183 q 469 1122 540 1122 m 840 1122 q 733 1151 763 1122 q 703 1251 703 1179 q 736 1349 703 1319 q 840 1379 769 1379 q 945 1349 911 1379 q 979 1251 979 1319 q 945 1153 979 1183 q 840 1122 911 1122 m 654 -28 q 343 26 471 -28 q 63 485 63 139 l 63 492 q 139 775 63 656 q 348 953 215 892 q 653 1015 481 1015 q 958 954 819 1015 q 1172 776 1097 893 q 1247 493 1247 658 l 1247 483 q 1171 197 1247 308 q 654 -28 1022 -28 m 653 183 q 842 213 768 183 q 1007 485 1007 271 l 1007 486 q 964 674 1007 601 q 654 806 881 806 q 303 488 303 806 l 303 486 q 394 258 303 333 q 653 183 485 183 z "},"×":{"ha":885,"x_min":49,"x_max":826,"o":"m 440 382 l 181 122 l 49 258 l 308 518 l 75 756 l 208 894 l 444 653 l 688 896 l 819 761 l 576 518 l 826 261 l 693 125 l 440 382 z "},"Ø":{"ha":1310,"x_min":63,"x_max":1247,"o":"m 654 -28 q 418 0 529 -28 l 333 -125 l 136 -125 l 268 65 q 63 485 63 194 l 63 492 q 139 775 63 656 q 348 953 215 892 q 653 1015 481 1015 q 875 986 778 1015 l 950 1100 l 1147 1100 l 1026 918 q 1247 493 1247 778 l 1247 483 q 1171 197 1247 308 q 654 -28 1022 -28 m 303 486 q 399 254 303 333 l 756 799 q 654 806 703 806 q 303 488 303 806 l 303 486 m 653 183 q 842 213 768 183 q 1007 485 1007 271 l 1007 486 q 906 739 1007 657 l 544 193 q 653 183 592 183 z "},"Ù":{"ha":1251,"x_min":92,"x_max":1160,"o":"m 213 1388 l 472 1388 l 749 1069 l 561 1069 l 213 1388 m 626 -28 q 333 29 456 -28 q 92 547 92 144 l 92 990 l 336 990 l 336 554 q 369 342 336 421 q 629 196 432 196 q 789 229 725 196 q 915 554 915 292 l 915 990 l 1160 990 l 1160 547 q 1096 213 1160 340 q 626 -28 974 -28 z "},"Ú":{"ha":1251,"x_min":92,"x_max":1160,"o":"m 786 1411 l 1044 1411 l 710 1093 l 524 1093 l 786 1411 m 626 -28 q 333 29 456 -28 q 92 547 92 144 l 92 990 l 336 990 l 336 554 q 369 342 336 421 q 629 196 432 196 q 789 229 725 196 q 915 554 915 292 l 915 990 l 1160 990 l 1160 547 q 1096 213 1160 340 q 626 -28 974 -28 z "},"Û":{"ha":1251,"x_min":92,"x_max":1160,"o":"m 640 1271 l 494 1093 l 286 1093 l 554 1411 l 725 1411 l 992 1093 l 788 1093 l 640 1271 m 626 -28 q 333 29 456 -28 q 92 547 92 144 l 92 990 l 336 990 l 336 554 q 369 342 336 421 q 629 196 432 196 q 789 229 725 196 q 915 554 915 292 l 915 990 l 1160 990 l 1160 547 q 1096 213 1160 340 q 626 -28 974 -28 z "},"Ü":{"ha":1251,"x_min":92,"x_max":1160,"o":"m 457 1088 q 349 1116 381 1088 q 318 1217 318 1144 q 352 1315 318 1285 q 457 1344 386 1344 q 561 1315 528 1344 q 594 1217 594 1285 q 561 1118 594 1149 q 457 1088 528 1088 m 828 1088 q 720 1116 750 1088 q 690 1217 690 1144 q 724 1315 690 1285 q 828 1344 757 1344 q 933 1315 899 1344 q 967 1217 967 1285 q 933 1118 967 1149 q 828 1088 899 1088 m 626 -28 q 333 29 456 -28 q 92 547 92 144 l 92 990 l 336 990 l 336 554 q 369 342 336 421 q 629 196 432 196 q 789 229 725 196 q 915 554 915 292 l 915 990 l 1160 990 l 1160 547 q 1096 213 1160 340 q 626 -28 974 -28 z "},"Ý":{"ha":1133,"x_min":-32,"x_max":1138,"o":"m 736 1393 l 994 1393 l 660 1075 l 474 1075 l 736 1393 m 415 0 l 415 407 l -32 990 l 254 990 l 542 596 l 853 990 l 1138 990 l 658 403 l 658 0 l 415 0 z "},"Þ":{"ha":1178,"x_min":111,"x_max":1132,"o":"m 342 160 l 342 0 l 111 0 l 111 990 l 342 990 l 342 843 l 617 843 q 918 807 801 843 q 1081 694 1031 769 q 1132 494 1132 618 q 639 160 1132 158 l 342 160 m 342 647 l 342 356 l 625 356 q 838 385 779 356 q 897 496 897 415 q 867 596 897 565 q 781 637 839 626 q 618 647 722 647 l 342 647 z "},"ß":{"ha":1211,"x_min":96,"x_max":1169,"o":"m 728 -12 q 510 7 588 -12 l 510 199 q 686 181 614 181 q 836 196 783 181 q 924 308 924 222 q 900 375 924 350 q 665 429 854 429 l 508 429 l 508 607 l 644 607 q 825 628 769 607 q 881 701 881 650 q 861 767 881 739 q 633 826 824 826 q 453 807 522 826 q 362 746 389 786 q 335 638 335 706 l 335 0 l 96 0 l 96 649 q 231 922 96 829 q 632 1015 365 1015 q 1122 733 1122 1015 q 1066 588 1122 636 q 901 522 1010 539 q 1103 445 1036 504 q 1169 275 1169 386 q 1067 55 1169 122 q 728 -12 964 -12 z "},"à":{"ha":1132,"x_min":49,"x_max":1044,"o":"m 139 1261 l 399 1261 l 675 943 l 488 943 l 139 1261 m 832 189 q 668 32 781 90 q 389 -26 556 -26 q 49 200 49 -26 l 49 201 q 175 404 49 346 q 263 436 207 419 q 593 474 357 460 q 731 486 703 482 q 799 508 779 493 q 818 549 818 522 l 818 550 q 797 601 818 579 q 593 656 753 656 q 432 640 486 656 q 344 597 372 626 q 311 519 317 568 l 68 519 q 213 751 88 676 q 572 825 339 825 q 832 797 724 825 q 992 696 939 768 q 1044 496 1044 624 l 1044 0 l 853 0 l 832 189 m 460 140 q 646 176 563 140 q 774 266 728 211 q 821 382 821 321 l 821 388 q 614 333 788 343 q 349 294 410 324 q 299 222 299 269 l 299 221 q 460 140 299 140 z "},"á":{"ha":1132,"x_min":49,"x_max":1044,"o":"m 747 1261 l 1006 1261 l 671 943 l 485 943 l 747 1261 m 832 189 q 668 32 781 90 q 389 -26 556 -26 q 49 200 49 -26 l 49 201 q 175 404 49 346 q 263 436 207 419 q 593 474 357 460 q 731 486 703 482 q 799 508 779 493 q 818 549 818 522 l 818 550 q 797 601 818 579 q 593 656 753 656 q 432 640 486 656 q 344 597 372 626 q 311 519 317 568 l 68 519 q 213 751 88 676 q 572 825 339 825 q 832 797 724 825 q 992 696 939 768 q 1044 496 1044 624 l 1044 0 l 853 0 l 832 189 m 460 140 q 646 176 563 140 q 774 266 728 211 q 821 382 821 321 l 821 388 q 614 333 788 343 q 349 294 410 324 q 299 222 299 269 l 299 221 q 460 140 299 140 z "},"â":{"ha":1132,"x_min":49,"x_max":1044,"o":"m 576 1121 l 431 943 l 222 943 l 490 1261 l 661 1261 l 928 943 l 724 943 l 576 1121 m 832 189 q 668 32 781 90 q 389 -26 556 -26 q 49 200 49 -26 l 49 201 q 175 404 49 346 q 263 436 207 419 q 593 474 357 460 q 731 486 703 482 q 799 508 779 493 q 818 549 818 522 l 818 550 q 797 601 818 579 q 593 656 753 656 q 432 640 486 656 q 344 597 372 626 q 311 519 317 568 l 68 519 q 213 751 88 676 q 572 825 339 825 q 832 797 724 825 q 992 696 939 768 q 1044 496 1044 624 l 1044 0 l 853 0 l 832 189 m 460 140 q 646 176 563 140 q 774 266 728 211 q 821 382 821 321 l 821 388 q 614 333 788 343 q 349 294 410 324 q 299 222 299 269 l 299 221 q 460 140 299 140 z "},"ã":{"ha":1132,"x_min":49,"x_max":1044,"o":"m 218 928 q 236 1050 218 996 q 425 1171 279 1171 q 575 1124 489 1171 q 694 1075 649 1075 q 749 1097 733 1075 q 765 1164 764 1118 l 904 1164 q 886 1036 904 1097 q 694 921 844 921 q 542 968 614 921 q 424 1014 464 1014 q 356 928 363 1014 l 218 928 m 832 189 q 668 32 781 90 q 389 -26 556 -26 q 49 200 49 -26 l 49 201 q 175 404 49 346 q 263 436 207 419 q 593 474 357 460 q 731 486 703 482 q 799 508 779 493 q 818 549 818 522 l 818 550 q 797 601 818 579 q 593 656 753 656 q 432 640 486 656 q 344 597 372 626 q 311 519 317 568 l 68 519 q 213 751 88 676 q 572 825 339 825 q 832 797 724 825 q 992 696 939 768 q 1044 496 1044 624 l 1044 0 l 853 0 l 832 189 m 460 140 q 646 176 563 140 q 774 266 728 211 q 821 382 821 321 l 821 388 q 614 333 788 343 q 349 294 410 324 q 299 222 299 269 l 299 221 q 460 140 299 140 z "},"ä":{"ha":1132,"x_min":49,"x_max":1044,"o":"m 393 938 q 285 966 317 938 q 254 1067 254 994 q 288 1165 254 1135 q 393 1194 322 1194 q 497 1165 464 1194 q 531 1067 531 1135 q 497 968 531 999 q 393 938 464 938 m 764 938 q 656 966 686 938 q 626 1067 626 994 q 660 1165 626 1135 q 764 1194 693 1194 q 869 1165 835 1194 q 903 1067 903 1135 q 869 968 903 999 q 764 938 835 938 m 832 189 q 668 32 781 90 q 389 -26 556 -26 q 49 200 49 -26 l 49 201 q 175 404 49 346 q 263 436 207 419 q 593 474 357 460 q 731 486 703 482 q 799 508 779 493 q 818 549 818 522 l 818 550 q 797 601 818 579 q 593 656 753 656 q 432 640 486 656 q 344 597 372 626 q 311 519 317 568 l 68 519 q 213 751 88 676 q 572 825 339 825 q 832 797 724 825 q 992 696 939 768 q 1044 496 1044 624 l 1044 0 l 853 0 l 832 189 m 460 140 q 646 176 563 140 q 774 266 728 211 q 821 382 821 321 l 821 388 q 614 333 788 343 q 349 294 410 324 q 299 222 299 269 l 299 221 q 460 140 299 140 z "},"å":{"ha":1132,"x_min":49,"x_max":1044,"o":"m 569 932 q 408 989 465 932 q 350 1149 350 1046 q 410 1310 350 1251 q 569 1368 469 1368 q 733 1311 674 1368 q 792 1149 792 1254 q 732 991 792 1050 q 569 932 672 932 m 569 1069 q 626 1090 600 1069 q 653 1149 653 1111 q 569 1233 653 1233 q 508 1211 531 1233 q 486 1149 486 1189 q 569 1069 486 1069 m 832 189 q 668 32 781 90 q 389 -26 556 -26 q 49 200 49 -26 l 49 201 q 175 404 49 346 q 263 436 207 419 q 593 474 357 460 q 731 486 703 482 q 799 508 779 493 q 818 549 818 522 l 818 550 q 797 601 818 579 q 593 656 753 656 q 432 640 486 656 q 344 597 372 626 q 311 519 317 568 l 68 519 q 213 751 88 676 q 572 825 339 825 q 832 797 724 825 q 992 696 939 768 q 1044 496 1044 624 l 1044 0 l 853 0 l 832 189 m 460 140 q 646 176 563 140 q 774 266 728 211 q 821 382 821 321 l 821 388 q 614 333 788 343 q 349 294 410 324 q 299 222 299 269 l 299 221 q 460 140 299 140 z "},"æ":{"ha":1919,"x_min":51,"x_max":1872,"o":"m 1864 240 q 1742 76 1821 135 q 1329 -26 1603 -26 q 872 174 982 -26 q 692 27 815 81 q 399 -26 568 -26 q 51 200 51 -26 l 51 201 q 178 404 51 346 q 265 436 210 419 q 596 474 360 460 q 733 486 706 482 q 801 508 782 493 q 821 549 821 522 l 821 550 q 800 601 821 579 q 596 656 756 656 q 435 640 489 656 q 347 597 375 626 q 314 519 319 568 l 71 519 q 216 751 90 676 q 575 825 342 825 q 963 708 856 825 q 1347 826 1100 826 q 1631 775 1511 826 q 1872 399 1872 668 l 1872 314 l 1036 314 q 1129 197 1057 235 q 1349 158 1201 158 q 1510 177 1453 158 q 1597 240 1567 196 l 1864 240 m 1354 643 q 1040 485 1089 643 l 1640 485 q 1553 607 1621 571 q 1354 643 1486 643 m 463 140 q 649 176 565 140 q 777 266 731 211 q 824 382 824 321 l 824 388 q 617 333 790 343 q 351 294 413 324 q 301 222 301 269 l 301 221 q 463 140 301 140 z "},"ç":{"ha":1165,"x_min":60,"x_max":1125,"o":"m 613 -486 q 438 -460 508 -486 q 289 -274 315 -412 l 479 -274 q 520 -337 485 -314 q 610 -360 556 -360 q 728 -285 728 -360 q 599 -222 728 -222 l 507 -222 l 507 -25 l 522 -25 q 253 36 354 -17 q 60 393 60 136 q 125 624 60 525 q 589 826 261 826 q 966 731 829 826 q 1125 457 1103 635 l 871 457 q 789 592 856 549 q 592 636 722 636 q 300 393 300 636 q 369 222 300 278 q 589 167 439 167 q 791 213 725 167 q 871 351 857 258 l 1125 351 q 991 85 1113 185 q 639 -25 869 -14 l 672 -25 l 672 -108 q 835 -158 781 -112 q 889 -281 889 -204 q 817 -431 889 -376 q 613 -486 746 -486 z "},"è":{"ha":1172,"x_min":60,"x_max":1117,"o":"m 172 1263 l 432 1263 l 708 944 l 521 944 l 172 1263 m 1107 238 q 913 35 1044 96 q 574 -26 781 -26 q 271 25 389 -26 q 60 383 60 124 q 118 603 60 503 q 592 826 250 826 q 875 775 756 826 q 1117 399 1117 668 l 1117 314 l 283 314 q 378 194 304 233 q 593 156 451 156 q 847 238 789 156 l 1107 238 m 599 646 q 289 482 342 646 l 883 482 q 796 608 864 569 q 599 646 728 646 z "},"é":{"ha":1172,"x_min":60,"x_max":1117,"o":"m 781 1263 l 1039 1263 l 704 944 l 518 944 l 781 1263 m 1107 238 q 913 35 1044 96 q 574 -26 781 -26 q 271 25 389 -26 q 60 383 60 124 q 118 603 60 503 q 592 826 250 826 q 875 775 756 826 q 1117 399 1117 668 l 1117 314 l 283 314 q 378 194 304 233 q 593 156 451 156 q 847 238 789 156 l 1107 238 m 599 646 q 289 482 342 646 l 883 482 q 796 608 864 569 q 599 646 728 646 z "},"ê":{"ha":1172,"x_min":60,"x_max":1117,"o":"m 610 1122 l 464 944 l 256 944 l 524 1263 l 694 1263 l 961 944 l 757 944 l 610 1122 m 1107 238 q 913 35 1044 96 q 574 -26 781 -26 q 271 25 389 -26 q 60 383 60 124 q 118 603 60 503 q 592 826 250 826 q 875 775 756 826 q 1117 399 1117 668 l 1117 314 l 283 314 q 378 194 304 233 q 593 156 451 156 q 847 238 789 156 l 1107 238 m 599 646 q 289 482 342 646 l 883 482 q 796 608 864 569 q 599 646 728 646 z "},"ë":{"ha":1172,"x_min":60,"x_max":1117,"o":"m 426 939 q 319 967 350 939 q 288 1068 288 996 q 322 1166 288 1136 q 426 1196 356 1196 q 531 1166 497 1196 q 564 1068 564 1136 q 531 969 564 1000 q 426 939 497 939 m 797 939 q 690 967 719 939 q 660 1068 660 996 q 693 1166 660 1136 q 797 1196 726 1196 q 902 1166 868 1196 q 936 1068 936 1136 q 902 969 936 1000 q 797 939 868 939 m 1107 238 q 913 35 1044 96 q 574 -26 781 -26 q 271 25 389 -26 q 60 383 60 124 q 118 603 60 503 q 592 826 250 826 q 875 775 756 826 q 1117 399 1117 668 l 1117 314 l 283 314 q 378 194 304 233 q 593 156 451 156 q 847 238 789 156 l 1107 238 m 599 646 q 289 482 342 646 l 883 482 q 796 608 864 569 q 599 646 728 646 z "},"ì":{"ha":440,"x_min":-212,"x_max":342,"o":"m -212 1232 l 47 1232 l 324 914 l 136 914 l -212 1232 m 99 0 l 99 797 l 342 797 l 342 0 l 99 0 z "},"í":{"ha":440,"x_min":99,"x_max":654,"o":"m 396 1232 l 654 1232 l 319 914 l 133 914 l 396 1232 m 99 0 l 99 797 l 342 797 l 342 0 l 99 0 z "},"î":{"ha":440,"x_min":-129,"x_max":576,"o":"m 225 1092 l 79 914 l -129 914 l 139 1232 l 310 1232 l 576 914 l 372 914 l 225 1092 m 99 0 l 99 797 l 342 797 l 342 0 l 99 0 z "},"ï":{"ha":440,"x_min":-97,"x_max":551,"o":"m 42 908 q -66 937 -35 908 q -97 1038 -97 965 q -63 1135 -97 1106 q 42 1165 -29 1165 q 146 1135 113 1165 q 179 1038 179 1106 q 146 939 179 969 q 42 908 113 908 m 413 908 q 305 937 335 908 q 275 1038 275 965 q 308 1135 275 1106 q 413 1165 342 1165 q 517 1135 483 1165 q 551 1038 551 1106 q 517 939 551 969 q 413 908 483 908 m 99 0 l 99 797 l 342 797 l 342 0 l 99 0 z "},"ð":{"ha":1190,"x_min":60,"x_max":1131,"o":"m 592 -26 q 279 19 390 -26 q 60 351 60 106 q 177 638 60 535 q 517 742 294 742 q 876 579 781 742 q 608 875 817 732 l 479 803 l 232 803 l 493 949 q 201 1100 368 1022 l 557 1100 q 663 1043 619 1069 l 763 1100 l 1008 1100 l 775 968 q 968 785 878 893 q 1131 381 1131 582 q 1076 161 1131 254 q 592 -26 961 -26 m 599 167 q 828 211 761 167 q 896 356 896 256 q 826 506 896 458 q 601 554 757 554 q 375 506 449 554 q 301 356 301 458 q 371 212 301 257 q 599 167 440 167 z "},"ñ":{"ha":1158,"x_min":93,"x_max":1071,"o":"m 215 913 q 233 1035 215 981 q 422 1156 276 1156 q 572 1108 486 1156 q 692 1060 646 1060 q 746 1081 731 1060 q 763 1149 761 1103 l 901 1149 q 883 1021 901 1082 q 692 906 842 906 q 539 953 611 906 q 421 999 461 999 q 353 913 360 999 l 215 913 m 333 0 l 93 0 l 93 797 l 299 797 l 318 624 q 676 826 422 826 q 890 778 803 826 q 1071 436 1071 679 l 1071 0 l 832 0 l 832 379 q 778 572 832 507 q 597 636 725 636 q 397 566 461 636 q 333 353 333 496 l 333 0 z "},"ò":{"ha":1179,"x_min":60,"x_max":1119,"o":"m 142 1261 l 401 1261 l 678 943 l 490 943 l 142 1261 m 582 -26 q 276 25 392 -26 q 60 393 60 119 q 125 624 60 525 q 589 826 261 826 q 871 775 751 826 q 1119 393 1119 667 q 1063 174 1119 267 q 582 -26 944 -26 m 589 167 q 812 223 744 167 q 879 393 879 279 q 810 576 879 515 q 592 636 742 636 q 300 393 300 636 q 369 222 300 278 q 589 167 439 167 z "},"ó":{"ha":1179,"x_min":60,"x_max":1119,"o":"m 756 1240 l 1014 1240 l 679 922 l 493 922 l 756 1240 m 582 -26 q 276 25 392 -26 q 60 393 60 119 q 125 624 60 525 q 589 826 261 826 q 871 775 751 826 q 1119 393 1119 667 q 1063 174 1119 267 q 582 -26 944 -26 m 589 167 q 812 223 744 167 q 879 393 879 279 q 810 576 879 515 q 592 636 742 636 q 300 393 300 636 q 369 222 300 278 q 589 167 439 167 z "},"ô":{"ha":1179,"x_min":60,"x_max":1119,"o":"m 585 1096 l 439 918 l 231 918 l 499 1236 l 669 1236 l 936 918 l 732 918 l 585 1096 m 582 -26 q 276 25 392 -26 q 60 393 60 119 q 125 624 60 525 q 589 826 261 826 q 871 775 751 826 q 1119 393 1119 667 q 1063 174 1119 267 q 582 -26 944 -26 m 589 167 q 812 223 744 167 q 879 393 879 279 q 810 576 879 515 q 592 636 742 636 q 300 393 300 636 q 369 222 300 278 q 589 167 439 167 z "},"õ":{"ha":1179,"x_min":60,"x_max":1119,"o":"m 239 906 q 257 1028 239 974 q 446 1149 300 1149 q 596 1101 510 1149 q 715 1053 669 1053 q 769 1074 754 1053 q 786 1142 785 1096 l 925 1142 q 907 1014 925 1075 q 715 899 865 899 q 563 946 635 899 q 444 992 485 992 q 376 906 383 992 l 239 906 m 582 -26 q 276 25 392 -26 q 60 393 60 119 q 125 624 60 525 q 589 826 261 826 q 871 775 751 826 q 1119 393 1119 667 q 1063 174 1119 267 q 582 -26 944 -26 m 589 167 q 812 223 744 167 q 879 393 879 279 q 810 576 879 515 q 592 636 742 636 q 300 393 300 636 q 369 222 300 278 q 589 167 439 167 z "},"ö":{"ha":1179,"x_min":60,"x_max":1119,"o":"m 411 917 q 303 945 335 917 q 272 1046 272 974 q 306 1144 272 1114 q 411 1174 340 1174 q 515 1144 482 1174 q 549 1046 549 1114 q 515 947 549 978 q 411 917 482 917 m 782 917 q 674 945 704 917 q 644 1046 644 974 q 678 1144 644 1114 q 782 1174 711 1174 q 887 1144 853 1174 q 921 1046 921 1114 q 887 947 921 978 q 782 917 853 917 m 582 -26 q 276 25 392 -26 q 60 393 60 119 q 125 624 60 525 q 589 826 261 826 q 871 775 751 826 q 1119 393 1119 667 q 1063 174 1119 267 q 582 -26 944 -26 m 589 167 q 812 223 744 167 q 879 393 879 279 q 810 576 879 515 q 592 636 742 636 q 300 393 300 636 q 369 222 300 278 q 589 167 439 167 z "},"÷":{"ha":906,"x_min":57,"x_max":858,"o":"m 457 719 q 365 746 392 719 q 338 838 338 772 q 367 928 338 901 q 457 954 396 954 q 544 928 515 954 q 574 838 574 901 q 545 748 574 776 q 457 719 517 719 m 57 403 l 57 608 l 858 608 l 858 403 l 57 403 m 457 64 q 365 91 392 64 q 338 183 338 118 q 367 273 338 246 q 457 300 397 300 q 544 273 515 300 q 574 183 574 246 q 457 64 574 64 z "},"ø":{"ha":1201,"x_min":60,"x_max":1142,"o":"m 594 -26 q 436 -15 514 -26 l 364 -125 l 151 -125 l 261 35 q 60 393 60 136 q 126 624 60 525 q 601 826 269 826 q 772 811 689 826 l 849 925 l 1056 925 l 939 753 q 1142 397 1142 640 q 1085 175 1142 274 q 594 -26 961 -26 m 299 397 q 383 214 299 271 l 656 632 q 604 633 639 633 q 299 397 299 633 m 601 167 q 835 223 764 167 q 906 397 906 279 q 824 581 906 524 l 554 168 q 601 167 569 167 z "},"ù":{"ha":1131,"x_min":86,"x_max":1038,"o":"m 131 1210 l 390 1210 l 667 892 l 479 892 l 131 1210 m 814 181 q 685 28 774 83 q 467 -26 597 -26 q 185 76 283 -26 q 86 361 86 179 l 86 797 l 325 797 l 325 408 q 381 226 325 286 q 564 167 436 167 q 737 234 676 167 q 797 422 797 301 l 797 797 l 1038 797 l 1038 0 l 835 0 l 814 181 z "},"ú":{"ha":1131,"x_min":86,"x_max":1038,"o":"m 739 1210 l 997 1210 l 663 892 l 476 892 l 739 1210 m 814 181 q 685 28 774 83 q 467 -26 597 -26 q 185 76 283 -26 q 86 361 86 179 l 86 797 l 325 797 l 325 408 q 381 226 325 286 q 564 167 436 167 q 737 234 676 167 q 797 422 797 301 l 797 797 l 1038 797 l 1038 0 l 835 0 l 814 181 z "},"û":{"ha":1131,"x_min":86,"x_max":1038,"o":"m 568 1069 l 422 892 l 214 892 l 482 1210 l 653 1210 l 919 892 l 715 892 l 568 1069 m 814 181 q 685 28 774 83 q 467 -26 597 -26 q 185 76 283 -26 q 86 361 86 179 l 86 797 l 325 797 l 325 408 q 381 226 325 286 q 564 167 436 167 q 737 234 676 167 q 797 422 797 301 l 797 797 l 1038 797 l 1038 0 l 835 0 l 814 181 z "},"ü":{"ha":1131,"x_min":86,"x_max":1038,"o":"m 385 886 q 277 915 308 886 q 246 1015 246 943 q 280 1113 246 1083 q 385 1143 314 1143 q 489 1113 456 1143 q 522 1015 522 1083 q 489 917 522 947 q 385 886 456 886 m 756 886 q 648 915 678 886 q 618 1015 618 943 q 651 1113 618 1083 q 756 1143 685 1143 q 860 1113 826 1143 q 894 1015 894 1083 q 860 917 894 947 q 756 886 826 886 m 814 181 q 685 28 774 83 q 467 -26 597 -26 q 185 76 283 -26 q 86 361 86 179 l 86 797 l 325 797 l 325 408 q 381 226 325 286 q 564 167 436 167 q 737 234 676 167 q 797 422 797 301 l 797 797 l 1038 797 l 1038 0 l 835 0 l 814 181 z "},"ý":{"ha":1106,"x_min":-1,"x_max":1110,"o":"m 726 1219 l 985 1219 l 650 901 l 464 901 l 726 1219 m 47 -358 l 47 -154 l 163 -154 q 274 -139 236 -154 q 345 -95 315 -126 q 407 -7 375 -64 l 433 40 l -1 797 l 257 797 l 547 274 l 557 249 l 567 271 l 856 797 l 1110 797 l 625 -49 q 428 -304 511 -247 q 151 -358 344 -358 l 47 -358 z "},"þ":{"ha":1203,"x_min":97,"x_max":1143,"o":"m 686 -24 q 328 119 426 -24 l 328 -286 l 97 -286 l 97 1024 l 328 1024 l 328 650 q 693 824 435 824 q 1024 713 906 824 q 1143 393 1143 603 q 1004 79 1143 192 q 686 -24 876 -24 m 613 167 q 835 223 768 167 q 903 393 903 279 q 834 576 903 515 q 615 636 765 636 q 399 574 475 636 q 324 393 324 511 q 613 167 324 167 z "},"ÿ":{"ha":1106,"x_min":-1,"x_max":1110,"o":"m 372 896 q 265 924 296 896 q 233 1025 233 953 q 267 1123 233 1093 q 372 1153 301 1153 q 476 1123 443 1153 q 510 1025 510 1093 q 476 926 510 957 q 372 896 443 896 m 743 896 q 635 924 665 896 q 606 1025 606 953 q 639 1123 606 1093 q 743 1153 672 1153 q 848 1123 814 1153 q 882 1025 882 1093 q 848 926 882 957 q 743 896 814 896 m 47 -358 l 47 -154 l 163 -154 q 274 -139 236 -154 q 345 -95 315 -126 q 407 -7 375 -64 l 433 40 l -1 797 l 257 797 l 547 274 l 557 249 l 567 271 l 856 797 l 1110 797 l 625 -49 q 428 -304 511 -247 q 151 -358 344 -358 l 47 -358 z "},"Ā":{"ha":1258,"x_min":1,"x_max":1258,"o":"m 335 1268 l 931 1268 l 931 1099 l 335 1099 l 335 1268 m 904 215 l 356 215 l 253 0 l 1 0 l 503 990 l 749 990 l 1258 0 l 1010 0 l 904 215 m 625 781 l 446 404 l 810 404 l 625 781 z "},"ā":{"ha":1132,"x_min":49,"x_max":1044,"o":"m 286 1104 l 882 1104 l 882 935 l 286 935 l 286 1104 m 832 189 q 668 32 781 90 q 389 -26 556 -26 q 49 200 49 -26 l 49 201 q 175 404 49 346 q 263 436 207 419 q 593 474 357 460 q 731 486 703 482 q 799 508 779 493 q 818 549 818 522 l 818 550 q 797 601 818 579 q 593 656 753 656 q 432 640 486 656 q 344 597 372 626 q 311 519 317 568 l 68 519 q 213 751 88 676 q 572 825 339 825 q 832 797 724 825 q 992 696 939 768 q 1044 496 1044 624 l 1044 0 l 853 0 l 832 189 m 460 140 q 646 176 563 140 q 774 266 728 211 q 821 382 821 321 l 821 388 q 614 333 788 343 q 349 294 410 324 q 299 222 299 269 l 299 221 q 460 140 299 140 z "},"Ă":{"ha":1258,"x_min":1,"x_max":1258,"o":"m 621 1103 q 400 1143 476 1103 q 261 1435 261 1214 l 429 1435 q 474 1303 429 1342 q 622 1263 519 1264 q 770 1303 725 1264 q 815 1435 815 1342 l 988 1435 q 901 1187 988 1271 q 621 1103 814 1103 m 904 215 l 356 215 l 253 0 l 1 0 l 503 990 l 749 990 l 1258 0 l 1010 0 l 904 215 m 625 781 l 446 404 l 810 404 l 625 781 z "},"ă":{"ha":1132,"x_min":49,"x_max":1044,"o":"m 572 939 q 351 979 428 939 q 213 1271 213 1050 l 381 1271 q 426 1139 381 1178 q 574 1099 471 1100 q 722 1139 676 1100 q 767 1271 767 1178 l 939 1271 q 852 1023 939 1107 q 572 939 765 939 m 832 189 q 668 32 781 90 q 389 -26 556 -26 q 49 200 49 -26 l 49 201 q 175 404 49 346 q 263 436 207 419 q 593 474 357 460 q 731 486 703 482 q 799 508 779 493 q 818 549 818 522 l 818 550 q 797 601 818 579 q 593 656 753 656 q 432 640 486 656 q 344 597 372 626 q 311 519 317 568 l 68 519 q 213 751 88 676 q 572 825 339 825 q 832 797 724 825 q 992 696 939 768 q 1044 496 1044 624 l 1044 0 l 853 0 l 832 189 m 460 140 q 646 176 563 140 q 774 266 728 211 q 821 382 821 321 l 821 388 q 614 333 788 343 q 349 294 410 324 q 299 222 299 269 l 299 221 q 460 140 299 140 z "},"Ą":{"ha":1258,"x_min":1,"x_max":1426,"o":"m 1426 -200 q 1119 -392 1339 -392 q 938 -346 1003 -392 q 872 -211 872 -300 q 900 -99 872 -150 q 1007 4 928 -49 l 904 215 l 356 215 l 253 0 l 1 0 l 503 990 l 749 990 l 1258 0 q 1126 -82 1179 -47 q 1060 -139 1079 -114 q 1042 -193 1042 -164 q 1067 -242 1042 -225 q 1133 -260 1092 -260 q 1233 -200 1203 -260 l 1426 -200 m 625 781 l 446 404 l 810 404 l 625 781 z "},"ą":{"ha":1132,"x_min":49,"x_max":1210,"o":"m 1210 -200 q 903 -392 1122 -392 q 721 -346 786 -392 q 656 -211 656 -300 q 669 -129 656 -169 q 849 39 699 -43 l 832 189 q 668 32 781 90 q 389 -26 556 -26 q 49 200 49 -26 l 49 201 q 175 404 49 346 q 263 436 207 419 q 593 474 357 460 q 731 486 703 482 q 799 508 779 493 q 818 549 818 522 l 818 550 q 797 601 818 579 q 593 656 753 656 q 432 640 486 656 q 344 597 372 626 q 311 519 317 568 l 68 519 q 213 751 88 676 q 572 825 339 825 q 832 797 724 825 q 992 696 939 768 q 1044 496 1044 624 l 1044 0 l 1042 0 q 910 -82 963 -47 q 844 -139 863 -114 q 825 -193 825 -164 q 850 -242 825 -225 q 917 -260 875 -260 q 1017 -200 986 -260 l 1210 -200 m 460 140 q 646 176 563 140 q 774 266 728 211 q 821 382 821 321 l 821 388 q 614 333 788 343 q 349 294 410 324 q 299 222 299 269 l 299 221 q 460 140 299 140 z "},"Ć":{"ha":1281,"x_min":63,"x_max":1249,"o":"m 814 1446 l 1072 1446 l 738 1128 l 551 1128 l 814 1446 m 1249 421 q 1156 182 1225 278 q 643 -28 1007 -28 q 338 25 471 -28 q 63 485 63 136 l 63 492 q 140 775 63 660 q 353 953 218 892 q 667 1015 489 1015 q 938 971 815 1015 q 1243 599 1189 876 l 992 599 q 668 806 954 806 q 303 490 303 806 l 303 488 q 658 183 303 183 q 899 242 819 183 q 994 421 978 301 l 1249 421 z "},"ć":{"ha":1165,"x_min":60,"x_max":1125,"o":"m 774 1261 l 1032 1261 l 697 943 l 511 943 l 774 1261 m 1125 351 q 1056 154 1117 239 q 582 -26 925 -26 q 276 25 392 -26 q 60 393 60 119 q 125 624 60 525 q 589 826 261 826 q 966 731 829 826 q 1125 457 1103 635 l 871 457 q 789 592 856 549 q 592 636 722 636 q 300 393 300 636 q 369 222 300 278 q 589 167 439 167 q 791 213 725 167 q 871 351 857 258 l 1125 351 z "},"Ĉ":{"ha":1281,"x_min":63,"x_max":1249,"o":"m 643 1306 l 497 1128 l 289 1128 l 557 1446 l 728 1446 l 994 1128 l 790 1128 l 643 1306 m 1249 421 q 1156 182 1225 278 q 643 -28 1007 -28 q 338 25 471 -28 q 63 485 63 136 l 63 492 q 140 775 63 660 q 353 953 218 892 q 667 1015 489 1015 q 938 971 815 1015 q 1243 599 1189 876 l 992 599 q 668 806 954 806 q 303 490 303 806 l 303 488 q 658 183 303 183 q 899 242 819 183 q 994 421 978 301 l 1249 421 z "},"ĉ":{"ha":1165,"x_min":60,"x_max":1125,"o":"m 603 1121 l 457 943 l 249 943 l 517 1261 l 688 1261 l 954 943 l 750 943 l 603 1121 m 1125 351 q 1056 154 1117 239 q 582 -26 925 -26 q 276 25 392 -26 q 60 393 60 119 q 125 624 60 525 q 589 826 261 826 q 966 731 829 826 q 1125 457 1103 635 l 871 457 q 789 592 856 549 q 592 636 722 636 q 300 393 300 636 q 369 222 300 278 q 589 167 439 167 q 791 213 725 167 q 871 351 857 258 l 1125 351 z "},"Ċ":{"ha":1281,"x_min":63,"x_max":1249,"o":"m 643 1121 q 524 1152 558 1121 q 490 1264 490 1183 q 528 1372 490 1340 q 643 1404 565 1404 q 758 1372 721 1404 q 796 1264 796 1340 q 758 1154 796 1188 q 643 1121 721 1121 m 1249 421 q 1156 182 1225 278 q 643 -28 1007 -28 q 338 25 471 -28 q 63 485 63 136 l 63 492 q 140 775 63 660 q 353 953 218 892 q 667 1015 489 1015 q 938 971 815 1015 q 1243 599 1189 876 l 992 599 q 668 806 954 806 q 303 490 303 806 l 303 488 q 658 183 303 183 q 899 242 819 183 q 994 421 978 301 l 1249 421 z "},"ċ":{"ha":1165,"x_min":60,"x_max":1125,"o":"m 603 936 q 484 967 518 936 q 450 1079 450 999 q 488 1188 450 1156 q 603 1219 525 1219 q 718 1188 681 1219 q 756 1079 756 1156 q 718 969 756 1003 q 603 936 681 936 m 1125 351 q 1056 154 1117 239 q 582 -26 925 -26 q 276 25 392 -26 q 60 393 60 119 q 125 624 60 525 q 589 826 261 826 q 966 731 829 826 q 1125 457 1103 635 l 871 457 q 789 592 856 549 q 592 636 722 636 q 300 393 300 636 q 369 222 300 278 q 589 167 439 167 q 791 213 725 167 q 871 351 857 258 l 1125 351 z "},"Č":{"ha":1281,"x_min":63,"x_max":1249,"o":"m 554 1128 l 286 1460 l 493 1460 l 639 1276 l 788 1460 l 992 1460 l 725 1128 l 554 1128 m 1249 421 q 1156 182 1225 278 q 643 -28 1007 -28 q 338 25 471 -28 q 63 485 63 136 l 63 492 q 140 775 63 660 q 353 953 218 892 q 667 1015 489 1015 q 938 971 815 1015 q 1243 599 1189 876 l 992 599 q 668 806 954 806 q 303 490 303 806 l 303 488 q 658 183 303 183 q 899 242 819 183 q 994 421 978 301 l 1249 421 z "},"č":{"ha":1165,"x_min":60,"x_max":1125,"o":"m 514 943 l 246 1275 l 453 1275 l 599 1092 l 747 1275 l 951 1275 l 685 943 l 514 943 m 1125 351 q 1056 154 1117 239 q 582 -26 925 -26 q 276 25 392 -26 q 60 393 60 119 q 125 624 60 525 q 589 826 261 826 q 966 731 829 826 q 1125 457 1103 635 l 871 457 q 789 592 856 549 q 592 636 722 636 q 300 393 300 636 q 369 222 300 278 q 589 167 439 167 q 791 213 725 167 q 871 351 857 258 l 1125 351 z "},"Ď":{"ha":1250,"x_min":111,"x_max":1188,"o":"m 543 1107 l 275 1439 l 482 1439 l 628 1256 l 776 1439 l 981 1439 l 714 1107 l 543 1107 m 111 990 l 572 990 q 1035 871 882 990 q 1188 493 1188 751 l 1188 486 q 1038 117 1188 233 q 586 0 888 0 l 111 0 l 111 990 m 342 789 l 342 203 l 574 203 q 794 231 708 203 q 913 321 876 258 q 950 490 950 383 l 950 494 q 913 667 950 596 q 790 760 874 731 q 563 789 706 789 l 342 789 z "},"ď":{"ha":1196,"x_min":60,"x_max":1481,"o":"m 1274 1190 l 1481 1190 l 1357 900 l 1201 900 l 1274 1190 m 882 151 q 515 -24 790 -24 q 283 18 388 -24 q 60 392 60 108 q 117 625 60 529 q 525 824 235 824 q 871 667 767 824 l 871 1056 l 1101 1056 l 1101 0 l 899 0 l 882 151 m 586 167 q 879 393 879 167 q 803 574 879 511 q 588 636 728 636 q 300 392 300 636 q 367 221 300 275 q 586 167 435 167 z "},"Đ":{"ha":1300,"x_min":-14,"x_max":1229,"o":"m 153 0 l 153 382 l -14 382 l -14 589 l 153 589 l 153 990 l 614 990 q 1076 871 924 990 q 1229 493 1229 751 l 1229 486 q 1079 117 1229 233 q 628 0 929 0 l 153 0 m 383 382 l 383 203 l 615 203 q 836 231 750 203 q 955 321 918 258 q 992 490 992 383 l 992 494 q 954 667 992 596 q 831 760 915 731 q 604 789 747 789 l 383 789 l 383 589 l 661 589 l 661 382 l 383 382 z "},"đ":{"ha":1203,"x_min":60,"x_max":1210,"o":"m 882 151 q 515 -24 790 -24 q 283 18 388 -24 q 60 392 60 108 q 117 625 60 529 q 525 824 235 824 q 871 667 767 824 l 871 839 l 721 839 l 721 951 l 871 951 l 871 1056 l 1101 1056 l 1101 951 l 1210 951 l 1210 839 l 1101 839 l 1101 0 l 899 0 l 882 151 m 586 167 q 879 393 879 167 q 803 574 879 511 q 588 636 728 636 q 300 392 300 636 q 367 221 300 275 q 586 167 435 167 z "},"Ē":{"ha":1138,"x_min":111,"x_max":1086,"o":"m 299 1268 l 894 1268 l 894 1099 l 299 1099 l 299 1268 m 1086 0 l 111 0 l 111 990 l 1057 990 l 1057 794 l 335 794 l 335 594 l 946 594 l 946 399 l 335 399 l 335 203 l 1086 203 l 1086 0 z "},"ē":{"ha":1172,"x_min":60,"x_max":1117,"o":"m 319 1106 l 915 1106 l 915 936 l 319 936 l 319 1106 m 1107 238 q 913 35 1044 96 q 574 -26 781 -26 q 271 25 389 -26 q 60 383 60 124 q 118 603 60 503 q 592 826 250 826 q 875 775 756 826 q 1117 399 1117 668 l 1117 314 l 283 314 q 378 194 304 233 q 593 156 451 156 q 847 238 789 156 l 1107 238 m 599 646 q 289 482 342 646 l 883 482 q 796 608 864 569 q 599 646 728 646 z "},"Ĕ":{"ha":1138,"x_min":111,"x_max":1086,"o":"m 585 1103 q 364 1143 440 1103 q 225 1435 225 1214 l 393 1435 q 438 1303 393 1342 q 586 1263 483 1264 q 734 1303 689 1264 q 779 1435 779 1342 l 951 1435 q 865 1187 951 1271 q 585 1103 778 1103 m 1086 0 l 111 0 l 111 990 l 1057 990 l 1057 794 l 335 794 l 335 594 l 946 594 l 946 399 l 335 399 l 335 203 l 1086 203 l 1086 0 z "},"ĕ":{"ha":1172,"x_min":60,"x_max":1117,"o":"m 606 940 q 385 981 461 940 q 246 1272 246 1051 l 414 1272 q 459 1140 414 1179 q 607 1100 504 1101 q 755 1140 710 1101 q 800 1272 800 1179 l 972 1272 q 885 1024 972 1108 q 606 940 799 940 m 1107 238 q 913 35 1044 96 q 574 -26 781 -26 q 271 25 389 -26 q 60 383 60 124 q 118 603 60 503 q 592 826 250 826 q 875 775 756 826 q 1117 399 1117 668 l 1117 314 l 283 314 q 378 194 304 233 q 593 156 451 156 q 847 238 789 156 l 1107 238 m 599 646 q 289 482 342 646 l 883 482 q 796 608 864 569 q 599 646 728 646 z "},"Ė":{"ha":1138,"x_min":111,"x_max":1086,"o":"m 589 1100 q 470 1131 504 1100 q 436 1243 436 1163 q 474 1351 436 1319 q 589 1383 511 1383 q 704 1351 667 1383 q 742 1243 742 1319 q 704 1133 742 1167 q 589 1100 667 1100 m 1086 0 l 111 0 l 111 990 l 1057 990 l 1057 794 l 335 794 l 335 594 l 946 594 l 946 399 l 335 399 l 335 203 l 1086 203 l 1086 0 z "},"ė":{"ha":1172,"x_min":60,"x_max":1117,"o":"m 610 938 q 491 969 525 938 q 457 1081 457 1000 q 494 1189 457 1157 q 610 1221 532 1221 q 725 1189 688 1221 q 763 1081 763 1157 q 725 971 763 1004 q 610 938 688 938 m 1107 238 q 913 35 1044 96 q 574 -26 781 -26 q 271 25 389 -26 q 60 383 60 124 q 118 603 60 503 q 592 826 250 826 q 875 775 756 826 q 1117 399 1117 668 l 1117 314 l 283 314 q 378 194 304 233 q 593 156 451 156 q 847 238 789 156 l 1107 238 m 599 646 q 289 482 342 646 l 883 482 q 796 608 864 569 q 599 646 728 646 z "},"Ę":{"ha":1138,"x_min":111,"x_max":1254,"o":"m 1254 -200 q 947 -392 1167 -392 q 765 -346 831 -392 q 700 -211 700 -300 q 726 -101 700 -151 q 828 0 753 -51 l 111 0 l 111 990 l 1057 990 l 1057 794 l 335 794 l 335 594 l 946 594 l 946 399 l 335 399 l 335 203 l 1086 203 l 1086 0 q 954 -82 1007 -47 q 888 -139 907 -114 q 869 -193 869 -164 q 894 -242 869 -225 q 961 -260 919 -260 q 1061 -200 1031 -260 l 1254 -200 z "},"ę":{"ha":1172,"x_min":60,"x_max":1117,"o":"m 751 -360 q 569 -314 635 -360 q 504 -179 504 -268 q 564 -26 504 -92 q 267 28 383 -26 q 60 383 60 125 q 118 603 60 503 q 592 826 250 826 q 875 775 756 826 q 1117 399 1117 668 l 1117 314 l 283 314 q 378 194 304 233 q 593 156 451 156 q 847 238 789 156 l 1107 238 q 857 13 1031 69 q 746 -60 786 -28 q 674 -161 674 -110 q 699 -210 674 -193 q 765 -228 724 -228 q 865 -168 835 -228 l 1058 -168 q 751 -360 971 -360 m 599 646 q 289 482 342 646 l 883 482 q 796 608 864 569 q 599 646 728 646 z "},"Ě":{"ha":1138,"x_min":111,"x_max":1086,"o":"m 500 1107 l 232 1439 l 439 1439 l 585 1256 l 733 1439 l 938 1439 l 671 1107 l 500 1107 m 1086 0 l 111 0 l 111 990 l 1057 990 l 1057 794 l 335 794 l 335 594 l 946 594 l 946 399 l 335 399 l 335 203 l 1086 203 l 1086 0 z "},"ě":{"ha":1172,"x_min":60,"x_max":1117,"o":"m 521 944 l 253 1276 l 460 1276 l 606 1093 l 754 1276 l 958 1276 l 692 944 l 521 944 m 1107 238 q 913 35 1044 96 q 574 -26 781 -26 q 271 25 389 -26 q 60 383 60 124 q 118 603 60 503 q 592 826 250 826 q 875 775 756 826 q 1117 399 1117 668 l 1117 314 l 283 314 q 378 194 304 233 q 593 156 451 156 q 847 238 789 156 l 1107 238 m 599 646 q 289 482 342 646 l 883 482 q 796 608 864 569 q 599 646 728 646 z "},"Ĝ":{"ha":1332,"x_min":63,"x_max":1242,"o":"m 679 1292 l 533 1114 l 325 1114 l 593 1432 l 764 1432 l 1031 1114 l 826 1114 l 679 1292 m 1035 271 q 611 -28 990 -28 q 325 25 451 -28 q 63 482 63 140 l 63 489 q 139 772 63 653 q 351 953 217 890 q 658 1015 485 1015 q 1235 643 1171 1015 l 968 643 q 665 806 935 806 q 303 485 303 806 l 303 483 q 653 172 303 172 q 1014 342 972 172 l 626 342 l 626 535 l 1242 535 l 1242 0 l 1049 0 l 1035 271 z "},"ĝ":{"ha":1097,"x_min":28,"x_max":1100,"o":"m 560 1121 l 414 943 l 206 943 l 474 1261 l 644 1261 l 911 943 l 707 943 l 560 1121 m 1100 -72 q 1047 -228 1100 -162 q 575 -362 936 -362 l 511 -362 q 231 -342 328 -362 q 32 -178 32 -301 q 97 -55 32 -97 q 311 0 161 -12 q 94 31 161 1 q 28 146 28 61 q 306 317 28 307 q 126 385 185 335 q 67 535 67 435 q 187 740 67 665 q 544 814 307 814 l 576 814 q 767 824 728 814 q 791 840 785 829 q 797 871 797 850 l 797 882 l 1058 882 l 1058 872 q 1043 816 1058 835 q 989 790 1028 797 q 706 786 958 786 q 968 715 888 775 q 1049 535 1049 654 q 934 338 1049 400 q 582 275 819 275 l 488 275 q 318 269 368 275 q 248 252 267 264 q 229 218 229 240 q 251 190 229 199 q 478 174 290 174 l 697 174 q 1007 120 914 174 q 1100 -65 1100 67 l 1100 -72 m 557 428 q 759 454 696 428 q 822 538 822 481 q 765 626 822 600 q 571 653 707 653 l 543 653 q 356 625 410 653 q 301 532 301 597 q 359 449 301 471 q 557 428 417 428 m 603 -179 q 772 -167 722 -179 q 881 -83 881 -144 l 881 -76 q 867 -35 881 -50 q 669 0 839 0 l 479 0 q 324 -21 374 0 q 274 -92 274 -42 l 274 -93 q 337 -161 274 -143 q 550 -179 400 -179 l 603 -179 z "},"Ğ":{"ha":1332,"x_min":63,"x_max":1242,"o":"m 675 1124 q 454 1164 531 1124 q 315 1456 315 1235 l 483 1456 q 528 1324 483 1363 q 676 1283 574 1285 q 824 1324 779 1285 q 869 1456 869 1363 l 1042 1456 q 955 1208 1042 1292 q 675 1124 868 1124 m 1035 271 q 611 -28 990 -28 q 325 25 451 -28 q 63 482 63 140 l 63 489 q 139 772 63 653 q 351 953 217 890 q 658 1015 485 1015 q 1235 643 1171 1015 l 968 643 q 665 806 935 806 q 303 485 303 806 l 303 483 q 653 172 303 172 q 1014 342 972 172 l 626 342 l 626 535 l 1242 535 l 1242 0 l 1049 0 l 1035 271 z "},"ğ":{"ha":1097,"x_min":28,"x_max":1100,"o":"m 556 939 q 335 979 411 939 q 196 1271 196 1050 l 364 1271 q 409 1139 364 1178 q 557 1099 454 1100 q 705 1139 660 1100 q 750 1271 750 1178 l 922 1271 q 835 1023 922 1107 q 556 939 749 939 m 1100 -72 q 1047 -228 1100 -162 q 575 -362 936 -362 l 511 -362 q 231 -342 328 -362 q 32 -178 32 -301 q 97 -55 32 -97 q 311 0 161 -12 q 94 31 161 1 q 28 146 28 61 q 306 317 28 307 q 126 385 185 335 q 67 535 67 435 q 187 740 67 665 q 544 814 307 814 l 576 814 q 767 824 728 814 q 791 840 785 829 q 797 871 797 850 l 797 882 l 1058 882 l 1058 872 q 1043 816 1058 835 q 989 790 1028 797 q 706 786 958 786 q 968 715 888 775 q 1049 535 1049 654 q 934 338 1049 400 q 582 275 819 275 l 488 275 q 318 269 368 275 q 248 252 267 264 q 229 218 229 240 q 251 190 229 199 q 478 174 290 174 l 697 174 q 1007 120 914 174 q 1100 -65 1100 67 l 1100 -72 m 557 428 q 759 454 696 428 q 822 538 822 481 q 765 626 822 600 q 571 653 707 653 l 543 653 q 356 625 410 653 q 301 532 301 597 q 359 449 301 471 q 557 428 417 428 m 603 -179 q 772 -167 722 -179 q 881 -83 881 -144 l 881 -76 q 867 -35 881 -50 q 669 0 839 0 l 479 0 q 324 -21 374 0 q 274 -92 274 -42 l 274 -93 q 337 -161 274 -143 q 550 -179 400 -179 l 603 -179 z "},"Ġ":{"ha":1332,"x_min":63,"x_max":1242,"o":"m 679 1121 q 560 1152 594 1121 q 526 1264 526 1183 q 564 1372 526 1340 q 679 1404 601 1404 q 794 1372 757 1404 q 832 1264 832 1340 q 794 1154 832 1188 q 679 1121 757 1121 m 1035 271 q 611 -28 990 -28 q 325 25 451 -28 q 63 482 63 140 l 63 489 q 139 772 63 653 q 351 953 217 890 q 658 1015 485 1015 q 1235 643 1171 1015 l 968 643 q 665 806 935 806 q 303 485 303 806 l 303 483 q 653 172 303 172 q 1014 342 972 172 l 626 342 l 626 535 l 1242 535 l 1242 0 l 1049 0 l 1035 271 z "},"ġ":{"ha":1097,"x_min":28,"x_max":1100,"o":"m 560 936 q 441 967 475 936 q 407 1079 407 999 q 444 1188 407 1156 q 560 1219 482 1219 q 675 1188 638 1219 q 713 1079 713 1156 q 675 969 713 1003 q 560 936 638 936 m 1100 -72 q 1047 -228 1100 -162 q 575 -362 936 -362 l 511 -362 q 231 -342 328 -362 q 32 -178 32 -301 q 97 -55 32 -97 q 311 0 161 -12 q 94 31 161 1 q 28 146 28 61 q 306 317 28 307 q 126 385 185 335 q 67 535 67 435 q 187 740 67 665 q 544 814 307 814 l 576 814 q 767 824 728 814 q 791 840 785 829 q 797 871 797 850 l 797 882 l 1058 882 l 1058 872 q 1043 816 1058 835 q 989 790 1028 797 q 706 786 958 786 q 968 715 888 775 q 1049 535 1049 654 q 934 338 1049 400 q 582 275 819 275 l 488 275 q 318 269 368 275 q 248 252 267 264 q 229 218 229 240 q 251 190 229 199 q 478 174 290 174 l 697 174 q 1007 120 914 174 q 1100 -65 1100 67 l 1100 -72 m 557 428 q 759 454 696 428 q 822 538 822 481 q 765 626 822 600 q 571 653 707 653 l 543 653 q 356 625 410 653 q 301 532 301 597 q 359 449 301 471 q 557 428 417 428 m 603 -179 q 772 -167 722 -179 q 881 -83 881 -144 l 881 -76 q 867 -35 881 -50 q 669 0 839 0 l 479 0 q 324 -21 374 0 q 274 -92 274 -42 l 274 -93 q 337 -161 274 -143 q 550 -179 400 -179 l 603 -179 z "},"Ģ":{"ha":1332,"x_min":63,"x_max":1242,"o":"m 1035 271 q 611 -28 990 -28 q 325 25 451 -28 q 63 482 63 140 l 63 489 q 139 772 63 653 q 351 953 217 890 q 658 1015 485 1015 q 1235 643 1171 1015 l 968 643 q 665 806 935 806 q 303 485 303 806 l 303 483 q 653 172 303 172 q 1014 342 972 172 l 626 342 l 626 535 l 1242 535 l 1242 0 l 1049 0 l 1035 271 m 556 -361 q 729 -282 711 -354 q 665 -290 697 -290 q 558 -272 586 -290 q 529 -194 529 -254 q 566 -117 529 -139 q 690 -94 603 -94 q 814 -124 778 -94 q 850 -231 850 -154 q 825 -346 850 -296 q 556 -454 771 -449 l 556 -361 z "},"ģ":{"ha":1097,"x_min":28,"x_max":1100,"o":"m 681 951 q 663 940 681 951 q 557 929 644 929 q 433 959 469 929 q 397 1065 397 989 q 422 1181 397 1131 q 692 1289 476 1283 l 692 1196 q 518 1117 536 1189 q 582 1125 550 1125 q 690 1107 661 1125 q 718 1029 718 1089 q 681 951 718 972 m 1100 -72 q 1047 -228 1100 -162 q 575 -362 936 -362 l 511 -362 q 231 -342 328 -362 q 32 -178 32 -301 q 97 -55 32 -97 q 311 0 161 -12 q 94 31 161 1 q 28 146 28 61 q 306 317 28 307 q 126 385 185 335 q 67 535 67 435 q 187 740 67 665 q 544 814 307 814 l 576 814 q 767 824 728 814 q 791 840 785 829 q 797 871 797 850 l 797 882 l 1058 882 l 1058 872 q 1043 816 1058 835 q 989 790 1028 797 q 706 786 958 786 q 968 715 888 775 q 1049 535 1049 654 q 934 338 1049 400 q 582 275 819 275 l 488 275 q 318 269 368 275 q 248 252 267 264 q 229 218 229 240 q 251 190 229 199 q 478 174 290 174 l 697 174 q 1007 120 914 174 q 1100 -65 1100 67 l 1100 -72 m 557 428 q 759 454 696 428 q 822 538 822 481 q 765 626 822 600 q 571 653 707 653 l 543 653 q 356 625 410 653 q 301 532 301 597 q 359 449 301 471 q 557 428 417 428 m 603 -179 q 772 -167 722 -179 q 881 -83 881 -144 l 881 -76 q 867 -35 881 -50 q 669 0 839 0 l 479 0 q 324 -21 374 0 q 274 -92 274 -42 l 274 -93 q 337 -161 274 -143 q 550 -179 400 -179 l 603 -179 z "},"Ĥ":{"ha":1264,"x_min":111,"x_max":1151,"o":"m 639 1251 l 493 1074 l 285 1074 l 553 1392 l 724 1392 l 990 1074 l 786 1074 l 639 1251 m 921 383 l 344 383 l 344 0 l 111 0 l 111 990 l 344 990 l 344 606 l 921 606 l 921 990 l 1151 990 l 1151 0 l 921 0 l 921 383 z "},"ĥ":{"ha":1147,"x_min":-144,"x_max":1060,"o":"m 210 1318 l 64 1140 l -144 1140 l 124 1458 l 294 1458 l 561 1140 l 357 1140 l 210 1318 m 322 0 l 94 0 l 94 1056 l 322 1056 l 322 635 q 668 826 421 826 q 881 778 796 826 q 1060 436 1060 679 l 1060 0 l 822 0 l 822 367 q 801 508 822 442 q 590 638 756 638 q 388 567 453 638 q 322 356 322 497 l 322 0 z "},"Ħ":{"ha":1293,"x_min":-17,"x_max":1311,"o":"m 935 300 l 360 300 l 360 0 l 126 0 l 126 639 l -17 639 l -17 826 l 126 826 l 126 990 l 360 990 l 360 826 l 935 826 l 935 990 l 1167 990 l 1167 826 l 1311 826 l 1311 639 l 1167 639 l 1167 0 l 935 0 l 935 300 m 935 639 l 360 639 l 360 489 l 935 489 l 935 639 z "},"ħ":{"ha":1147,"x_min":-11,"x_max":1060,"o":"m 322 0 l 94 0 l 94 839 l -11 839 l -11 947 l 94 947 l 94 1056 l 322 1056 l 322 947 l 511 947 l 511 839 l 322 839 l 322 635 q 668 826 421 826 q 881 778 796 826 q 1060 436 1060 679 l 1060 0 l 822 0 l 822 367 q 801 508 822 442 q 590 638 756 638 q 388 567 453 638 q 322 356 322 497 l 322 0 z "},"Ĩ":{"ha":893,"x_min":67,"x_max":826,"o":"m 94 1092 q 113 1214 94 1160 q 301 1335 156 1335 q 451 1288 365 1335 q 571 1239 525 1239 q 625 1260 610 1239 q 642 1328 640 1282 l 781 1328 q 763 1200 781 1261 q 571 1085 721 1085 q 418 1132 490 1085 q 300 1178 340 1178 q 232 1092 239 1178 l 94 1092 m 67 0 l 67 217 l 336 217 l 336 783 l 67 783 l 67 990 l 826 990 l 826 783 l 557 783 l 557 217 l 826 217 l 826 0 l 67 0 z "},"ĩ":{"ha":440,"x_min":-133,"x_max":553,"o":"m -133 899 q -115 1021 -133 967 q 74 1142 -72 1142 q 224 1094 138 1142 q 343 1046 297 1046 q 397 1067 382 1046 q 414 1135 413 1089 l 553 1135 q 535 1007 553 1068 q 343 892 493 892 q 190 939 263 892 q 72 985 113 985 q 4 899 11 985 l -133 899 m 99 0 l 99 797 l 342 797 l 342 0 l 99 0 z "},"Ī":{"ha":893,"x_min":67,"x_max":826,"o":"m 163 1268 l 758 1268 l 758 1099 l 163 1099 l 163 1268 m 67 0 l 67 217 l 336 217 l 336 783 l 67 783 l 67 990 l 826 990 l 826 783 l 557 783 l 557 217 l 826 217 l 826 0 l 67 0 z "},"ī":{"ha":440,"x_min":-65,"x_max":531,"o":"m -65 1075 l 531 1075 l 531 906 l -65 906 l -65 1075 m 99 0 l 99 797 l 342 797 l 342 0 l 99 0 z "},"Ĭ":{"ha":893,"x_min":67,"x_max":826,"o":"m 449 1103 q 228 1143 304 1103 q 89 1435 89 1214 l 257 1435 q 302 1303 257 1342 q 450 1263 347 1264 q 598 1303 553 1264 q 643 1435 643 1342 l 815 1435 q 728 1187 815 1271 q 449 1103 642 1103 m 67 0 l 67 217 l 336 217 l 336 783 l 67 783 l 67 990 l 826 990 l 826 783 l 557 783 l 557 217 l 826 217 l 826 0 l 67 0 z "},"ĭ":{"ha":440,"x_min":-139,"x_max":588,"o":"m 221 910 q 0 950 76 910 q -139 1242 -139 1021 l 29 1242 q 74 1110 29 1149 q 222 1069 119 1071 q 370 1110 325 1071 q 415 1242 415 1149 l 588 1242 q 501 994 588 1078 q 221 910 414 910 m 99 0 l 99 797 l 342 797 l 342 0 l 99 0 z "},"Į":{"ha":893,"x_min":67,"x_max":992,"o":"m 992 -200 q 685 -392 904 -392 q 503 -346 568 -392 q 438 -211 438 -300 q 464 -101 438 -151 q 565 0 490 -51 l 67 0 l 67 217 l 336 217 l 336 783 l 67 783 l 67 990 l 826 990 l 826 783 l 557 783 l 557 217 l 826 217 l 826 0 l 824 0 q 692 -82 744 -47 q 626 -139 644 -114 q 607 -193 607 -164 q 632 -242 607 -225 q 699 -260 657 -260 q 799 -200 768 -260 l 992 -200 z "},"į":{"ha":432,"x_min":-47,"x_max":507,"o":"m 221 919 q 103 951 138 919 q 68 1063 68 982 q 106 1170 68 1138 q 221 1203 144 1203 q 335 1170 297 1203 q 374 1063 374 1138 q 336 954 374 989 q 221 919 299 919 m 200 -392 q 18 -346 83 -392 q -47 -211 -47 -300 q -18 -97 -47 -149 q 94 10 11 -44 l 94 797 l 338 797 l 338 1 l 339 0 q 207 -82 260 -47 q 141 -139 160 -114 q 122 -193 122 -164 q 147 -242 122 -225 q 214 -260 172 -260 q 314 -200 283 -260 l 507 -200 q 200 -392 419 -392 z "},"İ":{"ha":893,"x_min":67,"x_max":826,"o":"m 453 1100 q 334 1131 368 1100 q 300 1243 300 1163 q 338 1351 300 1319 q 453 1383 375 1383 q 568 1351 531 1383 q 606 1243 606 1319 q 568 1133 606 1167 q 453 1100 531 1100 m 67 0 l 67 217 l 336 217 l 336 783 l 67 783 l 67 990 l 826 990 l 826 783 l 557 783 l 557 217 l 826 217 l 826 0 l 67 0 z "},"ı":{"ha":440,"x_min":99,"x_max":342,"o":"m 99 0 l 99 797 l 342 797 l 342 0 l 99 0 z "},"Ĳ":{"ha":1418,"x_min":67,"x_max":1321,"o":"m 67 0 l 67 217 l 310 217 l 310 783 l 67 783 l 67 990 l 775 990 l 775 783 l 531 783 l 531 217 l 803 217 l 803 0 l 67 0 m 913 217 l 921 217 q 1057 247 1033 217 q 1078 417 1078 278 l 1078 990 l 1321 990 l 1321 410 q 1307 188 1321 265 q 1254 69 1293 110 q 1139 15 1215 29 q 921 0 1063 0 l 913 0 l 913 217 z "},"ĳ":{"ha":890,"x_min":68,"x_max":819,"o":"m 221 919 q 103 951 138 919 q 68 1063 68 982 q 106 1170 68 1138 q 221 1203 144 1203 q 335 1170 297 1203 q 374 1063 374 1138 q 336 954 374 989 q 221 919 299 919 m 667 919 q 549 951 583 919 q 514 1063 514 982 q 552 1170 514 1138 q 667 1203 590 1203 q 781 1170 743 1203 q 819 1063 819 1138 q 782 954 819 989 q 667 919 744 919 m 99 0 l 99 797 l 342 797 l 342 0 l 99 0 m 336 -396 l 336 -182 l 379 -182 q 515 -153 489 -182 q 543 8 543 -124 l 543 797 l 781 797 l 781 -22 q 708 -324 781 -251 q 404 -396 635 -396 l 336 -396 z "},"Ĵ":{"ha":1033,"x_min":19,"x_max":1169,"o":"m 818 1268 l 672 1090 l 464 1090 l 732 1408 l 903 1408 l 1169 1090 l 965 1090 l 818 1268 m 475 -28 q 129 83 239 -28 q 19 411 19 193 l 19 436 l 263 436 l 263 415 q 281 290 263 344 q 476 183 321 183 q 647 244 594 183 q 699 450 699 304 l 699 990 l 942 990 l 942 446 q 824 92 942 211 q 475 -28 706 -28 z "},"ĵ":{"ha":435,"x_min":-135,"x_max":571,"o":"m 219 1092 l 74 914 l -135 914 l 133 1232 l 304 1232 l 571 914 l 367 914 l 219 1092 m -108 -182 l -65 -182 q 71 -153 44 -182 q 99 8 99 -124 l 99 797 l 336 797 l 336 -22 q 264 -324 336 -251 q -40 -396 190 -396 l -108 -396 l -108 -182 z "},"Ķ":{"ha":1213,"x_min":111,"x_max":1219,"o":"m 600 490 l 344 275 l 344 0 l 111 0 l 111 990 l 344 990 l 344 514 l 888 990 l 1201 990 l 769 617 l 1219 0 l 942 0 l 600 490 m 524 -294 q 697 -215 679 -287 q 633 -224 667 -224 q 526 -206 554 -224 q 497 -128 497 -187 q 534 -50 497 -72 q 658 -28 571 -28 q 782 -58 746 -28 q 818 -164 818 -87 q 793 -279 818 -229 q 524 -387 739 -382 l 524 -294 z "},"ķ":{"ha":1108,"x_min":94,"x_max":1131,"o":"m 558 369 l 325 186 l 325 0 l 94 0 l 94 1056 l 325 1056 l 325 406 l 799 797 l 1118 797 l 739 488 l 1131 0 l 849 0 l 558 369 m 475 -324 q 649 -244 631 -317 q 585 -253 617 -253 q 477 -235 506 -253 q 449 -157 449 -217 q 485 -79 449 -101 q 610 -57 522 -57 q 733 -87 697 -57 q 769 -193 769 -117 q 744 -308 769 -258 q 475 -417 690 -411 l 475 -324 z "},"ĸ":{"ha":1108,"x_min":101,"x_max":1135,"o":"m 561 368 l 329 186 l 329 0 l 101 0 l 101 797 l 329 797 l 329 406 l 803 797 l 1122 797 l 743 488 l 1135 0 l 854 0 l 561 368 z "},"Ĺ":{"ha":1036,"x_min":111,"x_max":1004,"o":"m 410 1425 l 668 1425 l 333 1107 l 147 1107 l 410 1425 m 111 0 l 111 990 l 347 990 l 347 219 l 1004 219 l 1004 0 l 111 0 z "},"ĺ":{"ha":426,"x_min":94,"x_max":647,"o":"m 389 1458 l 647 1458 l 313 1140 l 126 1140 l 389 1458 m 94 0 l 94 1056 l 332 1056 l 332 0 l 94 0 z "},"Ļ":{"ha":1036,"x_min":111,"x_max":1004,"o":"m 111 0 l 111 990 l 347 990 l 347 219 l 1004 219 l 1004 0 l 111 0 m 429 -357 q 603 -278 585 -350 q 539 -286 572 -286 q 431 -268 460 -286 q 403 -190 403 -250 q 440 -112 403 -135 q 564 -90 476 -90 q 688 -120 651 -90 q 724 -226 724 -150 q 699 -342 724 -292 q 429 -450 644 -444 l 429 -357 z "},"ļ":{"ha":426,"x_min":44,"x_max":365,"o":"m 94 0 l 94 1056 l 332 1056 l 332 0 l 94 0 m 71 -337 q 244 -258 226 -331 q 181 -267 214 -267 q 73 -249 101 -267 q 44 -171 44 -231 q 81 -93 44 -115 q 206 -71 118 -71 q 329 -101 293 -71 q 365 -207 365 -131 q 340 -322 365 -272 q 71 -431 286 -425 l 71 -337 z "},"Ľ":{"ha":1036,"x_min":111,"x_max":1004,"o":"m 764 1047 l 971 1047 l 847 757 l 692 757 l 764 1047 m 111 0 l 111 990 l 347 990 l 347 219 l 1004 219 l 1004 0 l 111 0 z "},"ľ":{"ha":426,"x_min":94,"x_max":725,"o":"m 518 1197 l 725 1197 l 601 907 l 446 907 l 518 1197 m 94 0 l 94 1056 l 332 1056 l 332 0 l 94 0 z "},"Ŀ":{"ha":1036,"x_min":111,"x_max":1008,"o":"m 111 0 l 111 990 l 347 990 l 347 219 l 1004 219 l 1004 0 l 111 0 m 856 390 q 737 422 771 390 q 703 533 703 453 q 740 642 703 610 q 856 674 778 674 q 971 642 933 674 q 1008 533 1008 610 q 971 424 1008 457 q 856 390 933 390 z "},"ŀ":{"ha":815,"x_min":94,"x_max":774,"o":"m 94 0 l 94 1056 l 332 1056 l 332 0 l 94 0 m 621 279 q 502 310 536 279 q 468 422 468 342 q 506 531 468 499 q 621 563 543 563 q 736 531 699 563 q 774 422 774 499 q 736 313 774 346 q 621 279 699 279 z "},"Ł":{"ha":1074,"x_min":-43,"x_max":1036,"o":"m 143 0 l 143 396 l 15 351 l -43 531 l 143 597 l 143 990 l 379 990 l 379 681 l 674 785 l 744 608 l 379 479 l 379 219 l 1036 219 l 1036 0 l 143 0 z "},"ł":{"ha":469,"x_min":-26,"x_max":493,"o":"m 110 0 l 110 350 l 10 317 l -26 431 l 110 476 l 110 1056 l 347 1056 l 347 556 l 457 593 l 493 479 l 347 431 l 347 0 l 110 0 z "},"Ń":{"ha":1286,"x_min":111,"x_max":1178,"o":"m 847 1389 l 1106 1389 l 771 1071 l 585 1071 l 847 1389 m 336 693 l 336 0 l 111 0 l 111 990 l 344 990 l 946 318 l 954 306 l 954 990 l 1178 990 l 1178 0 l 954 0 l 346 679 l 336 693 z "},"ń":{"ha":1158,"x_min":93,"x_max":1071,"o":"m 744 1246 l 1003 1246 l 668 928 l 482 928 l 744 1246 m 333 0 l 93 0 l 93 797 l 299 797 l 318 624 q 676 826 422 826 q 890 778 803 826 q 1071 436 1071 679 l 1071 0 l 832 0 l 832 379 q 778 572 832 507 q 597 636 725 636 q 397 566 461 636 q 333 353 333 496 l 333 0 z "},"Ņ":{"ha":1286,"x_min":111,"x_max":1178,"o":"m 336 693 l 336 0 l 111 0 l 111 990 l 344 990 l 946 318 l 954 306 l 954 990 l 1178 990 l 1178 0 l 954 0 l 346 679 l 336 693 m 526 -312 q 700 -233 682 -306 q 636 -242 668 -242 q 528 -224 557 -242 q 500 -146 500 -206 q 537 -68 500 -90 q 661 -46 574 -46 q 785 -76 749 -46 q 821 -182 821 -106 q 796 -297 821 -247 q 526 -406 742 -400 l 526 -312 z "},"ņ":{"ha":1158,"x_min":93,"x_max":1071,"o":"m 333 0 l 93 0 l 93 797 l 299 797 l 318 624 q 676 826 422 826 q 890 778 803 826 q 1071 436 1071 679 l 1071 0 l 832 0 l 832 379 q 778 572 832 507 q 597 636 725 636 q 397 566 461 636 q 333 353 333 496 l 333 0 m 479 -329 q 653 -250 635 -322 q 589 -258 621 -258 q 481 -240 510 -258 q 453 -162 453 -222 q 490 -85 453 -107 q 614 -62 526 -62 q 738 -92 701 -62 q 774 -199 774 -122 q 749 -314 774 -264 q 479 -422 694 -417 l 479 -329 z "},"Ň":{"ha":1286,"x_min":111,"x_max":1178,"o":"m 588 1071 l 319 1403 l 526 1403 l 672 1219 l 821 1403 l 1025 1403 l 758 1071 l 588 1071 m 336 693 l 336 0 l 111 0 l 111 990 l 344 990 l 946 318 l 954 306 l 954 990 l 1178 990 l 1178 0 l 954 0 l 346 679 l 336 693 z "},"ň":{"ha":1158,"x_min":93,"x_max":1071,"o":"m 485 928 l 217 1260 l 424 1260 l 569 1076 l 718 1260 l 922 1260 l 656 928 l 485 928 m 333 0 l 93 0 l 93 797 l 299 797 l 318 624 q 676 826 422 826 q 890 778 803 826 q 1071 436 1071 679 l 1071 0 l 832 0 l 832 379 q 778 572 832 507 q 597 636 725 636 q 397 566 461 636 q 333 353 333 496 l 333 0 z "},"Ŋ":{"ha":1286,"x_min":110,"x_max":1176,"o":"m 735 -399 l 735 -182 l 778 -182 q 893 -172 851 -182 q 941 -131 929 -162 q 953 -21 953 -99 l 953 0 l 367 654 l 335 697 l 335 0 l 110 0 l 110 990 l 343 990 l 910 356 l 953 299 l 953 990 l 1176 990 l 1176 -21 q 1160 -215 1176 -143 q 1106 -326 1144 -286 q 800 -399 1033 -399 l 735 -399 z "},"ŋ":{"ha":1163,"x_min":93,"x_max":1071,"o":"m 618 -396 l 618 -182 l 661 -182 q 771 -171 733 -182 q 819 -122 807 -160 q 832 8 832 -83 l 832 368 q 810 510 832 451 q 599 638 765 638 q 397 567 461 638 q 332 353 332 496 l 332 0 l 93 0 l 93 797 l 299 797 l 318 624 q 676 826 422 826 q 890 778 800 826 q 1071 433 1071 676 l 1071 -22 q 994 -324 1071 -249 q 686 -396 917 -396 l 618 -396 z "},"Ō":{"ha":1310,"x_min":63,"x_max":1247,"o":"m 363 1289 l 958 1289 l 958 1119 l 363 1119 l 363 1289 m 654 -28 q 343 26 471 -28 q 63 485 63 139 l 63 492 q 139 775 63 656 q 348 953 215 892 q 653 1015 481 1015 q 958 954 819 1015 q 1172 776 1097 893 q 1247 493 1247 658 l 1247 483 q 1171 197 1247 308 q 654 -28 1022 -28 m 653 183 q 842 213 768 183 q 1007 485 1007 271 l 1007 486 q 964 674 1007 601 q 654 806 881 806 q 303 488 303 806 l 303 486 q 394 258 303 333 q 653 183 485 183 z "},"ō":{"ha":1179,"x_min":60,"x_max":1119,"o":"m 294 1107 l 890 1107 l 890 938 l 294 938 l 294 1107 m 582 -26 q 276 25 392 -26 q 60 393 60 119 q 125 624 60 525 q 589 826 261 826 q 871 775 751 826 q 1119 393 1119 667 q 1063 174 1119 267 q 582 -26 944 -26 m 589 167 q 812 223 744 167 q 879 393 879 279 q 810 576 879 515 q 592 636 742 636 q 300 393 300 636 q 369 222 300 278 q 589 167 439 167 z "},"Ŏ":{"ha":1310,"x_min":63,"x_max":1247,"o":"m 649 1124 q 428 1164 504 1124 q 289 1456 289 1235 l 457 1456 q 502 1324 457 1363 q 650 1283 547 1285 q 798 1324 753 1285 q 843 1456 843 1363 l 1015 1456 q 928 1208 1015 1292 q 649 1124 842 1124 m 654 -28 q 343 26 471 -28 q 63 485 63 139 l 63 492 q 139 775 63 656 q 348 953 215 892 q 653 1015 481 1015 q 958 954 819 1015 q 1172 776 1097 893 q 1247 493 1247 658 l 1247 483 q 1171 197 1247 308 q 654 -28 1022 -28 m 653 183 q 842 213 768 183 q 1007 485 1007 271 l 1007 486 q 964 674 1007 601 q 654 806 881 806 q 303 488 303 806 l 303 486 q 394 258 303 333 q 653 183 485 183 z "},"ŏ":{"ha":1179,"x_min":60,"x_max":1119,"o":"m 575 917 q 354 957 431 917 q 215 1249 215 1028 l 383 1249 q 428 1117 383 1156 q 576 1076 474 1078 q 724 1117 679 1078 q 769 1249 769 1156 l 942 1249 q 855 1001 942 1085 q 575 917 768 917 m 582 -26 q 276 25 392 -26 q 60 393 60 119 q 125 624 60 525 q 589 826 261 826 q 871 775 751 826 q 1119 393 1119 667 q 1063 174 1119 267 q 582 -26 944 -26 m 589 167 q 812 223 744 167 q 879 393 879 279 q 810 576 879 515 q 592 636 742 636 q 300 393 300 636 q 369 222 300 278 q 589 167 439 167 z "},"Ő":{"ha":1310,"x_min":63,"x_max":1263,"o":"m 567 1128 l 397 1128 l 671 1446 l 915 1446 l 567 1128 m 918 1128 l 746 1128 l 1019 1446 l 1263 1446 l 918 1128 m 654 -28 q 343 26 471 -28 q 63 485 63 139 l 63 492 q 139 775 63 656 q 348 953 215 892 q 653 1015 481 1015 q 958 954 819 1015 q 1172 776 1097 893 q 1247 493 1247 658 l 1247 483 q 1171 197 1247 308 q 654 -28 1022 -28 m 653 183 q 842 213 768 183 q 1007 485 1007 271 l 1007 486 q 964 674 1007 601 q 654 806 881 806 q 303 488 303 806 l 303 486 q 394 258 303 333 q 653 183 485 183 z "},"ő":{"ha":1179,"x_min":60,"x_max":1189,"o":"m 493 935 l 324 935 l 597 1253 l 842 1253 l 493 935 m 844 935 l 672 935 l 946 1253 l 1189 1253 l 844 935 m 582 -26 q 276 25 392 -26 q 60 393 60 119 q 125 624 60 525 q 589 826 261 826 q 871 775 751 826 q 1119 393 1119 667 q 1063 174 1119 267 q 582 -26 944 -26 m 589 167 q 812 223 744 167 q 879 393 879 279 q 810 576 879 515 q 592 636 742 636 q 300 393 300 636 q 369 222 300 278 q 589 167 439 167 z "},"Œ":{"ha":1992,"x_min":63,"x_max":1940,"o":"m 993 57 q 654 -28 867 -28 q 343 26 471 -28 q 63 485 63 139 l 63 492 q 139 775 63 656 q 348 953 215 892 q 653 1015 481 1015 q 993 922 868 1015 l 993 990 l 1907 990 l 1907 794 l 1217 794 l 1217 594 l 1796 594 l 1796 399 l 1217 399 l 1217 203 l 1940 203 l 1940 0 l 993 0 l 993 57 m 653 183 q 842 213 768 183 q 1007 485 1007 271 l 1007 486 q 964 674 1007 601 q 654 806 881 806 q 303 488 303 806 l 303 486 q 394 258 303 333 q 653 183 485 183 z "},"œ":{"ha":2008,"x_min":60,"x_max":1947,"o":"m 1939 240 q 1817 76 1896 135 q 1404 -26 1678 -26 q 999 97 1129 -26 q 582 -26 860 -26 q 276 25 392 -26 q 60 393 60 119 q 125 624 60 525 q 589 826 261 826 q 1006 686 865 826 q 1422 826 1149 826 q 1706 775 1586 826 q 1947 399 1947 668 l 1947 314 l 1111 314 q 1204 197 1132 235 q 1424 158 1276 158 q 1585 177 1528 158 q 1672 240 1642 196 l 1939 240 m 1429 643 q 1115 485 1164 643 l 1715 485 q 1628 607 1696 571 q 1429 643 1561 643 m 589 167 q 812 223 744 167 q 879 393 879 279 q 810 576 879 515 q 592 636 742 636 q 300 393 300 636 q 369 222 300 278 q 589 167 439 167 z "},"Ŕ":{"ha":1190,"x_min":111,"x_max":1140,"o":"m 769 1425 l 1028 1425 l 693 1107 l 507 1107 l 769 1425 m 343 319 l 343 0 l 111 0 l 111 990 l 632 990 q 1008 916 893 990 q 1124 678 1124 842 q 1072 506 1124 568 q 907 415 1019 443 q 1067 325 1018 390 q 1117 129 1117 260 l 1117 64 q 1140 0 1117 14 l 897 0 q 869 67 869 11 l 869 128 q 847 244 869 204 q 771 303 824 286 q 622 319 718 319 l 343 319 m 343 793 l 343 518 l 621 518 q 757 525 692 518 q 852 562 821 533 q 883 646 883 590 l 883 664 q 857 747 883 718 q 629 793 811 793 l 343 793 z "},"ŕ":{"ha":806,"x_min":93,"x_max":857,"o":"m 599 1203 l 857 1203 l 522 885 l 336 885 l 599 1203 m 93 0 l 93 797 l 297 797 l 324 575 q 649 806 393 806 l 750 806 l 750 575 l 643 575 q 451 546 514 575 q 360 451 386 518 q 333 264 333 385 l 333 0 l 93 0 z "},"Ŗ":{"ha":1190,"x_min":111,"x_max":1140,"o":"m 343 319 l 343 0 l 111 0 l 111 990 l 632 990 q 1008 916 893 990 q 1124 678 1124 842 q 1072 506 1124 568 q 907 415 1019 443 q 1067 325 1018 390 q 1117 129 1117 260 l 1117 64 q 1140 0 1117 14 l 897 0 q 869 67 869 11 l 869 128 q 847 244 869 204 q 771 303 824 286 q 622 319 718 319 l 343 319 m 343 793 l 343 518 l 621 518 q 757 525 692 518 q 852 562 821 533 q 883 646 883 590 l 883 664 q 857 747 883 718 q 629 793 811 793 l 343 793 m 501 -318 q 675 -239 657 -311 q 611 -247 644 -247 q 503 -229 532 -247 q 475 -151 475 -211 q 512 -74 475 -96 q 636 -51 549 -51 q 760 -81 724 -51 q 796 -187 796 -111 q 771 -303 796 -253 q 501 -411 717 -406 l 501 -318 z "},"ŗ":{"ha":806,"x_min":58,"x_max":750,"o":"m 93 0 l 93 797 l 297 797 l 324 575 q 649 806 393 806 l 750 806 l 750 575 l 643 575 q 451 546 514 575 q 360 451 386 518 q 333 264 333 385 l 333 0 l 93 0 m 85 -340 q 258 -261 240 -333 q 194 -269 226 -269 q 87 -251 115 -269 q 58 -174 58 -233 q 95 -96 58 -118 q 219 -74 132 -74 q 343 -103 307 -74 q 379 -210 379 -133 q 354 -325 379 -275 q 85 -433 300 -428 l 85 -340 z "},"Ř":{"ha":1190,"x_min":111,"x_max":1140,"o":"m 510 1107 l 242 1439 l 449 1439 l 594 1256 l 743 1439 l 947 1439 l 681 1107 l 510 1107 m 343 319 l 343 0 l 111 0 l 111 990 l 632 990 q 1008 916 893 990 q 1124 678 1124 842 q 1072 506 1124 568 q 907 415 1019 443 q 1067 325 1018 390 q 1117 129 1117 260 l 1117 64 q 1140 0 1117 14 l 897 0 q 869 67 869 11 l 869 128 q 847 244 869 204 q 771 303 824 286 q 622 319 718 319 l 343 319 m 343 793 l 343 518 l 621 518 q 757 525 692 518 q 852 562 821 533 q 883 646 883 590 l 883 664 q 857 747 883 718 q 629 793 811 793 l 343 793 z "},"ř":{"ha":806,"x_min":75,"x_max":781,"o":"m 343 883 l 75 1215 l 282 1215 l 428 1032 l 576 1215 l 781 1215 l 514 883 l 343 883 m 93 0 l 93 797 l 297 797 l 324 575 q 649 806 393 806 l 750 806 l 750 575 l 643 575 q 451 546 514 575 q 360 451 386 518 q 333 264 333 385 l 333 0 l 93 0 z "},"Ś":{"ha":1167,"x_min":13,"x_max":1119,"o":"m 736 1446 l 994 1446 l 660 1128 l 474 1128 l 736 1446 m 615 -29 q 296 11 417 -29 q 106 134 174 51 q 13 351 39 217 l 265 351 q 376 213 289 253 q 621 174 463 174 q 822 201 758 174 q 885 290 885 229 q 853 358 885 339 q 749 388 822 379 q 504 406 676 396 q 254 444 351 414 q 107 535 154 474 q 60 701 60 597 q 184 932 60 849 q 546 1015 308 1015 q 947 935 808 1015 q 1119 669 1086 854 l 871 669 q 773 790 851 758 q 542 821 694 821 q 352 792 408 821 q 296 708 296 764 q 307 663 296 681 q 350 633 318 646 q 613 600 415 608 q 903 561 793 592 q 1068 470 1017 531 q 1119 307 1119 410 q 615 -29 1119 -29 z "},"ś":{"ha":1060,"x_min":15,"x_max":1022,"o":"m 690 1244 l 949 1244 l 614 926 l 428 926 l 690 1244 m 553 -26 q 176 44 307 -26 q 15 264 46 115 l 286 264 q 368 179 307 204 q 565 154 429 154 q 739 177 689 154 q 789 244 789 200 q 738 296 789 283 q 485 317 685 311 q 146 378 247 324 q 44 550 44 432 q 93 692 44 633 q 490 826 199 826 q 842 760 717 826 q 1011 549 968 693 l 756 549 q 673 631 740 607 q 488 656 606 656 q 354 643 396 656 q 272 569 272 621 q 318 517 272 532 q 565 493 372 501 q 929 428 835 483 q 1022 250 1022 378 q 901 50 1022 126 q 553 -26 779 -26 z "},"Ŝ":{"ha":1167,"x_min":13,"x_max":1119,"o":"m 565 1306 l 419 1128 l 211 1128 l 479 1446 l 650 1446 l 917 1128 l 713 1128 l 565 1306 m 615 -29 q 296 11 417 -29 q 106 134 174 51 q 13 351 39 217 l 265 351 q 376 213 289 253 q 621 174 463 174 q 822 201 758 174 q 885 290 885 229 q 853 358 885 339 q 749 388 822 379 q 504 406 676 396 q 254 444 351 414 q 107 535 154 474 q 60 701 60 597 q 184 932 60 849 q 546 1015 308 1015 q 947 935 808 1015 q 1119 669 1086 854 l 871 669 q 773 790 851 758 q 542 821 694 821 q 352 792 408 821 q 296 708 296 764 q 307 663 296 681 q 350 633 318 646 q 613 600 415 608 q 903 561 793 592 q 1068 470 1017 531 q 1119 307 1119 410 q 615 -29 1119 -29 z "},"ŝ":{"ha":1060,"x_min":15,"x_max":1022,"o":"m 499 1121 l 353 943 l 144 943 l 413 1261 l 583 1261 l 850 943 l 646 943 l 499 1121 m 553 -26 q 176 44 307 -26 q 15 264 46 115 l 286 264 q 368 179 307 204 q 565 154 429 154 q 739 177 689 154 q 789 244 789 200 q 738 296 789 283 q 485 317 685 311 q 146 378 247 324 q 44 550 44 432 q 93 692 44 633 q 490 826 199 826 q 842 760 717 826 q 1011 549 968 693 l 756 549 q 673 631 740 607 q 488 656 606 656 q 354 643 396 656 q 272 569 272 621 q 318 517 272 532 q 565 493 372 501 q 929 428 835 483 q 1022 250 1022 378 q 901 50 1022 126 q 553 -26 779 -26 z "},"Ş":{"ha":1167,"x_min":13,"x_max":1119,"o":"m 636 -453 q 461 -426 532 -453 q 313 -240 339 -379 l 503 -240 q 544 -303 508 -281 q 633 -326 579 -326 q 751 -251 751 -326 q 622 -189 751 -189 l 531 -189 l 531 -28 q 260 24 369 -19 q 13 351 60 106 l 265 351 q 376 213 289 253 q 621 174 463 174 q 822 201 758 174 q 885 290 885 229 q 853 358 885 339 q 749 388 822 379 q 504 406 676 396 q 254 444 351 414 q 107 535 154 474 q 60 701 60 597 q 184 932 60 849 q 546 1015 308 1015 q 947 935 808 1015 q 1119 669 1086 854 l 871 669 q 773 790 851 758 q 542 821 694 821 q 352 792 408 821 q 296 708 296 764 q 307 663 296 681 q 350 633 318 646 q 613 600 415 608 q 903 561 793 592 q 1068 470 1017 531 q 1119 307 1119 410 q 696 -26 1119 0 l 696 -75 q 858 -125 804 -79 q 913 -247 913 -171 q 841 -398 913 -343 q 636 -453 769 -453 z "},"ş":{"ha":1060,"x_min":15,"x_max":1022,"o":"m 514 -456 q 339 -429 410 -456 q 190 -243 217 -382 l 381 -243 q 422 -306 386 -283 q 511 -329 457 -329 q 629 -254 629 -329 q 500 -192 629 -192 l 408 -192 l 408 -19 q 137 70 233 0 q 15 264 40 140 l 286 264 q 368 179 307 204 q 565 154 429 154 q 739 177 689 154 q 789 244 789 200 q 738 296 789 283 q 485 317 685 311 q 146 378 247 324 q 44 550 44 432 q 93 692 44 633 q 490 826 199 826 q 842 760 717 826 q 1011 549 968 693 l 756 549 q 673 631 740 607 q 488 656 606 656 q 354 643 396 656 q 272 569 272 621 q 318 517 272 532 q 565 493 372 501 q 929 428 835 483 q 1022 250 1022 378 q 906 53 1022 128 q 574 -26 790 -22 l 574 -78 q 736 -128 682 -82 q 790 -250 790 -174 q 719 -401 790 -346 q 514 -456 647 -456 z "},"Š":{"ha":1167,"x_min":13,"x_max":1119,"o":"m 476 1128 l 208 1460 l 415 1460 l 561 1276 l 710 1460 l 914 1460 l 647 1128 l 476 1128 m 615 -29 q 296 11 417 -29 q 106 134 174 51 q 13 351 39 217 l 265 351 q 376 213 289 253 q 621 174 463 174 q 822 201 758 174 q 885 290 885 229 q 853 358 885 339 q 749 388 822 379 q 504 406 676 396 q 254 444 351 414 q 107 535 154 474 q 60 701 60 597 q 184 932 60 849 q 546 1015 308 1015 q 947 935 808 1015 q 1119 669 1086 854 l 871 669 q 773 790 851 758 q 542 821 694 821 q 352 792 408 821 q 296 708 296 764 q 307 663 296 681 q 350 633 318 646 q 613 600 415 608 q 903 561 793 592 q 1068 470 1017 531 q 1119 307 1119 410 q 615 -29 1119 -29 z "},"š":{"ha":1060,"x_min":15,"x_max":1022,"o":"m 451 917 l 183 1249 l 390 1249 l 536 1065 l 685 1249 l 889 1249 l 622 917 l 451 917 m 553 -26 q 176 44 307 -26 q 15 264 46 115 l 286 264 q 368 179 307 204 q 565 154 429 154 q 739 177 689 154 q 789 244 789 200 q 738 296 789 283 q 485 317 685 311 q 146 378 247 324 q 44 550 44 432 q 93 692 44 633 q 490 826 199 826 q 842 760 717 826 q 1011 549 968 693 l 756 549 q 673 631 740 607 q 488 656 606 656 q 354 643 396 656 q 272 569 272 621 q 318 517 272 532 q 565 493 372 501 q 929 428 835 483 q 1022 250 1022 378 q 901 50 1022 126 q 553 -26 779 -26 z "},"Ţ":{"ha":1061,"x_min":47,"x_max":1014,"o":"m 642 792 l 642 0 l 403 0 l 403 792 l 47 792 l 47 990 l 1014 990 l 1014 792 l 642 792 m 383 -337 q 557 -258 539 -331 q 493 -267 525 -267 q 385 -249 414 -267 q 357 -171 357 -231 q 394 -93 357 -115 q 518 -71 431 -71 q 642 -101 606 -71 q 678 -207 678 -131 q 653 -322 678 -272 q 383 -431 599 -425 l 383 -337 z "},"ţ":{"ha":842,"x_min":15,"x_max":799,"o":"m 799 0 l 614 0 q 386 38 472 0 q 272 160 306 76 q 238 393 238 244 l 238 597 l 15 597 l 15 786 q 168 792 128 786 q 222 815 204 799 q 251 867 240 832 q 264 1015 267 917 l 461 1015 l 461 797 l 799 797 l 799 597 l 461 597 l 461 432 q 500 242 461 278 q 560 212 521 219 q 676 204 600 204 l 799 204 l 799 0 m 290 -337 q 464 -258 446 -331 q 400 -267 433 -267 q 292 -249 321 -267 q 264 -171 264 -231 q 301 -93 264 -115 q 425 -71 338 -71 q 549 -101 513 -71 q 585 -207 585 -131 q 560 -322 585 -272 q 290 -431 506 -425 l 290 -337 z "},"Ť":{"ha":1061,"x_min":47,"x_max":1014,"o":"m 440 1107 l 172 1439 l 379 1439 l 525 1256 l 674 1439 l 878 1439 l 611 1107 l 440 1107 m 642 792 l 642 0 l 403 0 l 403 792 l 47 792 l 47 990 l 1014 990 l 1014 792 l 642 792 z "},"ť":{"ha":842,"x_min":15,"x_max":982,"o":"m 775 1163 l 982 1163 l 858 872 l 703 872 l 775 1163 m 799 0 l 614 0 q 386 38 472 0 q 272 160 306 76 q 238 393 238 244 l 238 597 l 15 597 l 15 786 q 168 792 128 786 q 222 815 204 799 q 251 867 240 832 q 264 1015 267 917 l 461 1015 l 461 797 l 799 797 l 799 597 l 461 597 l 461 432 q 500 242 461 278 q 560 212 521 219 q 676 204 600 204 l 799 204 l 799 0 z "},"Ŧ":{"ha":1061,"x_min":47,"x_max":1014,"o":"m 642 329 l 642 0 l 403 0 l 403 329 l 204 329 l 204 515 l 403 515 l 403 792 l 47 792 l 47 990 l 1014 990 l 1014 792 l 642 792 l 642 515 l 867 515 l 867 329 l 642 329 z "},"ŧ":{"ha":842,"x_min":15,"x_max":799,"o":"m 799 0 l 614 0 q 394 35 474 0 q 280 144 315 69 q 240 353 244 219 l 61 353 l 61 506 l 240 506 l 240 597 l 15 597 l 15 786 q 171 792 131 786 q 225 815 207 799 q 254 867 243 832 q 267 1024 269 918 l 461 1024 l 461 797 l 799 797 l 799 597 l 461 597 l 461 506 l 696 506 l 696 353 l 464 353 q 489 256 469 288 q 551 215 508 225 q 676 204 593 204 l 799 204 l 799 0 z "},"Ũ":{"ha":1251,"x_min":92,"x_max":1160,"o":"m 282 1078 q 300 1200 282 1146 q 489 1321 343 1321 q 639 1274 553 1321 q 758 1225 713 1225 q 813 1247 797 1225 q 829 1314 828 1268 l 968 1314 q 950 1186 968 1247 q 758 1071 908 1071 q 606 1118 678 1071 q 488 1164 528 1164 q 419 1078 426 1164 l 282 1078 m 626 -28 q 333 29 456 -28 q 92 547 92 144 l 92 990 l 336 990 l 336 554 q 369 342 336 421 q 629 196 432 196 q 789 229 725 196 q 915 554 915 292 l 915 990 l 1160 990 l 1160 547 q 1096 213 1160 340 q 626 -28 974 -28 z "},"ũ":{"ha":1131,"x_min":86,"x_max":1038,"o":"m 210 876 q 228 999 210 944 q 417 1119 271 1119 q 567 1072 481 1119 q 686 1024 640 1024 q 740 1045 725 1024 q 757 1113 756 1067 l 896 1113 q 878 985 896 1046 q 686 869 836 869 q 533 917 606 869 q 415 963 456 963 q 347 876 354 963 l 210 876 m 814 181 q 685 28 774 83 q 467 -26 597 -26 q 185 76 283 -26 q 86 361 86 179 l 86 797 l 325 797 l 325 408 q 381 226 325 286 q 564 167 436 167 q 737 234 676 167 q 797 422 797 301 l 797 797 l 1038 797 l 1038 0 l 835 0 l 814 181 z "},"Ū":{"ha":1251,"x_min":92,"x_max":1160,"o":"m 350 1254 l 946 1254 l 946 1085 l 350 1085 l 350 1254 m 626 -28 q 333 29 456 -28 q 92 547 92 144 l 92 990 l 336 990 l 336 554 q 369 342 336 421 q 629 196 432 196 q 789 229 725 196 q 915 554 915 292 l 915 990 l 1160 990 l 1160 547 q 1096 213 1160 340 q 626 -28 974 -28 z "},"ū":{"ha":1131,"x_min":86,"x_max":1038,"o":"m 278 1053 l 874 1053 l 874 883 l 278 883 l 278 1053 m 814 181 q 685 28 774 83 q 467 -26 597 -26 q 185 76 283 -26 q 86 361 86 179 l 86 797 l 325 797 l 325 408 q 381 226 325 286 q 564 167 436 167 q 737 234 676 167 q 797 422 797 301 l 797 797 l 1038 797 l 1038 0 l 835 0 l 814 181 z "},"Ŭ":{"ha":1251,"x_min":92,"x_max":1160,"o":"m 636 1089 q 415 1129 492 1089 q 276 1421 276 1200 l 444 1421 q 490 1289 444 1328 q 638 1249 535 1250 q 785 1289 740 1250 q 831 1421 831 1328 l 1003 1421 q 916 1173 1003 1257 q 636 1089 829 1089 m 626 -28 q 333 29 456 -28 q 92 547 92 144 l 92 990 l 336 990 l 336 554 q 369 342 336 421 q 629 196 432 196 q 789 229 725 196 q 915 554 915 292 l 915 990 l 1160 990 l 1160 547 q 1096 213 1160 340 q 626 -28 974 -28 z "},"ŭ":{"ha":1131,"x_min":86,"x_max":1038,"o":"m 564 888 q 343 928 419 888 q 204 1219 204 999 l 372 1219 q 417 1088 372 1126 q 565 1047 463 1049 q 713 1088 668 1049 q 758 1219 758 1126 l 931 1219 q 844 972 931 1056 q 564 888 757 888 m 814 181 q 685 28 774 83 q 467 -26 597 -26 q 185 76 283 -26 q 86 361 86 179 l 86 797 l 325 797 l 325 408 q 381 226 325 286 q 564 167 436 167 q 737 234 676 167 q 797 422 797 301 l 797 797 l 1038 797 l 1038 0 l 835 0 l 814 181 z "},"Ů":{"ha":1251,"x_min":92,"x_max":1160,"o":"m 633 1082 q 472 1139 529 1082 q 414 1299 414 1196 q 474 1460 414 1401 q 633 1518 533 1518 q 797 1461 738 1518 q 856 1299 856 1404 q 796 1141 856 1200 q 633 1082 736 1082 m 633 1219 q 690 1240 664 1219 q 717 1299 717 1261 q 633 1383 717 1383 q 572 1361 594 1383 q 550 1299 550 1339 q 633 1219 550 1219 m 626 -28 q 333 29 456 -28 q 92 547 92 144 l 92 990 l 336 990 l 336 554 q 369 342 336 421 q 629 196 432 196 q 789 229 725 196 q 915 554 915 292 l 915 990 l 1160 990 l 1160 547 q 1096 213 1160 340 q 626 -28 974 -28 z "},"ů":{"ha":1131,"x_min":86,"x_max":1038,"o":"m 561 881 q 399 938 457 881 q 342 1097 342 994 q 401 1258 342 1200 q 561 1317 461 1317 q 724 1260 665 1317 q 783 1097 783 1203 q 724 940 783 999 q 561 881 664 881 m 561 1018 q 618 1039 592 1018 q 644 1097 644 1060 q 561 1182 644 1182 q 500 1160 522 1182 q 478 1097 478 1138 q 561 1018 478 1018 m 814 181 q 685 28 774 83 q 467 -26 597 -26 q 185 76 283 -26 q 86 361 86 179 l 86 797 l 325 797 l 325 408 q 381 226 325 286 q 564 167 436 167 q 737 234 676 167 q 797 422 797 301 l 797 797 l 1038 797 l 1038 0 l 835 0 l 814 181 z "},"Ű":{"ha":1251,"x_min":92,"x_max":1250,"o":"m 554 1093 l 385 1093 l 658 1411 l 903 1411 l 554 1093 m 906 1093 l 733 1093 l 1007 1411 l 1250 1411 l 906 1093 m 626 -28 q 333 29 456 -28 q 92 547 92 144 l 92 990 l 336 990 l 336 554 q 369 342 336 421 q 629 196 432 196 q 789 229 725 196 q 915 554 915 292 l 915 990 l 1160 990 l 1160 547 q 1096 213 1160 340 q 626 -28 974 -28 z "},"ű":{"ha":1131,"x_min":86,"x_max":1178,"o":"m 482 892 l 313 892 l 586 1210 l 831 1210 l 482 892 m 833 892 l 661 892 l 935 1210 l 1178 1210 l 833 892 m 814 181 q 685 28 774 83 q 467 -26 597 -26 q 185 76 283 -26 q 86 361 86 179 l 86 797 l 325 797 l 325 408 q 381 226 325 286 q 564 167 436 167 q 737 234 676 167 q 797 422 797 301 l 797 797 l 1038 797 l 1038 0 l 835 0 l 814 181 z "},"Ų":{"ha":1251,"x_min":92,"x_max":1160,"o":"m 767 -365 q 585 -319 650 -365 q 519 -185 519 -274 q 583 -26 519 -92 q 314 40 422 -21 q 92 547 92 163 l 92 990 l 336 990 l 336 554 q 369 342 336 421 q 629 196 432 196 q 789 229 725 196 q 915 554 915 292 l 915 990 l 1160 990 l 1160 547 q 899 22 1160 140 q 771 -58 794 -42 q 689 -167 689 -112 q 714 -216 689 -199 q 781 -233 739 -233 q 881 -174 850 -233 l 1074 -174 q 767 -365 986 -365 z "},"ų":{"ha":1131,"x_min":86,"x_max":1206,"o":"m 1206 -200 q 899 -392 1118 -392 q 717 -346 782 -392 q 651 -211 651 -300 q 665 -132 651 -169 q 831 32 692 -49 l 814 181 q 685 28 774 83 q 467 -26 597 -26 q 185 76 283 -26 q 86 361 86 179 l 86 797 l 325 797 l 325 408 q 381 226 325 286 q 564 167 436 167 q 737 234 676 167 q 797 422 797 301 l 797 797 l 1038 797 l 1038 0 q 906 -82 958 -47 q 840 -139 858 -114 q 821 -193 821 -164 q 846 -242 821 -225 q 913 -260 871 -260 q 1013 -200 982 -260 l 1206 -200 z "},"Ŵ":{"ha":1789,"x_min":4,"x_max":1785,"o":"m 899 1285 l 753 1107 l 544 1107 l 813 1425 l 983 1425 l 1250 1107 l 1046 1107 l 899 1285 m 886 700 l 558 0 l 326 0 l 4 990 l 246 990 l 471 275 l 800 990 l 985 990 l 1271 276 l 1546 990 l 1785 990 l 1382 0 l 1160 0 l 886 700 z "},"ŵ":{"ha":1542,"x_min":1,"x_max":1540,"o":"m 779 1092 l 633 914 l 425 914 l 693 1232 l 864 1232 l 1131 914 l 926 914 l 779 1092 m 763 542 l 488 0 l 285 0 l 1 797 l 246 797 l 417 276 l 675 797 l 861 797 l 1101 271 l 1304 797 l 1540 797 l 1211 0 l 1011 0 l 763 542 z "},"Ŷ":{"ha":1133,"x_min":-32,"x_max":1138,"o":"m 556 1267 l 410 1089 l 201 1089 l 469 1407 l 640 1407 l 907 1089 l 703 1089 l 556 1267 m 415 0 l 415 407 l -32 990 l 254 990 l 542 596 l 853 990 l 1138 990 l 658 403 l 658 0 l 415 0 z "},"ŷ":{"ha":1106,"x_min":-1,"x_max":1110,"o":"m 556 1079 l 410 901 l 201 901 l 469 1219 l 640 1219 l 907 901 l 703 901 l 556 1079 m 47 -358 l 47 -154 l 163 -154 q 274 -139 236 -154 q 345 -95 315 -126 q 407 -7 375 -64 l 433 40 l -1 797 l 257 797 l 547 274 l 557 249 l 567 271 l 856 797 l 1110 797 l 625 -49 q 428 -304 511 -247 q 151 -358 344 -358 l 47 -358 z "},"Ÿ":{"ha":1133,"x_min":-32,"x_max":1138,"o":"m 372 1083 q 265 1112 296 1083 q 233 1213 233 1140 q 267 1310 233 1281 q 372 1340 301 1340 q 476 1310 443 1340 q 510 1213 510 1281 q 476 1114 510 1144 q 372 1083 443 1083 m 743 1083 q 635 1112 665 1083 q 606 1213 606 1140 q 639 1310 606 1281 q 743 1340 672 1340 q 848 1310 814 1340 q 882 1213 882 1281 q 848 1114 882 1144 q 743 1083 814 1083 m 415 0 l 415 407 l -32 990 l 254 990 l 542 596 l 853 990 l 1138 990 l 658 403 l 658 0 l 415 0 z "},"Ź":{"ha":1111,"x_min":51,"x_max":1057,"o":"m 749 1425 l 1007 1425 l 672 1107 l 486 1107 l 749 1425 m 51 0 l 51 193 l 756 794 l 89 794 l 89 990 l 1057 990 l 1057 778 l 385 207 l 1057 207 l 1057 0 l 51 0 z "},"ź":{"ha":1028,"x_min":36,"x_max":990,"o":"m 699 1232 l 957 1232 l 622 914 l 436 914 l 699 1232 m 36 174 l 671 622 l 67 622 l 67 797 l 986 797 l 986 625 l 365 183 l 990 183 l 990 0 l 36 -1 l 36 174 z "},"Ż":{"ha":1111,"x_min":51,"x_max":1057,"o":"m 578 1100 q 459 1131 493 1100 q 425 1243 425 1163 q 463 1351 425 1319 q 578 1383 500 1383 q 693 1351 656 1383 q 731 1243 731 1319 q 693 1133 731 1167 q 578 1100 656 1100 m 51 0 l 51 193 l 756 794 l 89 794 l 89 990 l 1057 990 l 1057 778 l 385 207 l 1057 207 l 1057 0 l 51 0 z "},"ż":{"ha":1028,"x_min":36,"x_max":990,"o":"m 528 907 q 409 938 443 907 q 375 1050 375 969 q 413 1158 375 1126 q 528 1190 450 1190 q 643 1158 606 1190 q 681 1050 681 1126 q 643 940 681 974 q 528 907 606 907 m 36 174 l 671 622 l 67 622 l 67 797 l 986 797 l 986 625 l 365 183 l 990 183 l 990 0 l 36 -1 l 36 174 z "},"Ž":{"ha":1111,"x_min":51,"x_max":1057,"o":"m 489 1107 l 221 1439 l 428 1439 l 574 1256 l 722 1439 l 926 1439 l 660 1107 l 489 1107 m 51 0 l 51 193 l 756 794 l 89 794 l 89 990 l 1057 990 l 1057 778 l 385 207 l 1057 207 l 1057 0 l 51 0 z "},"ž":{"ha":1028,"x_min":36,"x_max":990,"o":"m 439 914 l 171 1246 l 378 1246 l 524 1063 l 672 1246 l 876 1246 l 610 914 l 439 914 m 36 174 l 671 622 l 67 622 l 67 797 l 986 797 l 986 625 l 365 183 l 990 183 l 990 0 l 36 -1 l 36 174 z "},"ƒ":{"ha":718,"x_min":-39,"x_max":713,"o":"m 463 140 q 447 -52 463 19 q 393 -164 432 -124 q 89 -236 321 -236 l -39 -236 l -39 -42 l 68 -42 q 208 -12 182 -42 q 239 149 239 18 l 239 447 l 3 447 l 3 647 l 239 647 l 239 901 q 321 1165 239 1085 q 585 1246 403 1246 l 713 1246 l 713 1058 l 617 1058 q 518 1044 547 1058 q 475 993 486 1032 q 464 869 464 954 l 464 647 l 710 647 l 710 447 l 463 447 l 463 140 z "},"Ǻ":{"ha":1258,"x_min":1,"x_max":1258,"o":"m 811 1688 l 1069 1688 l 735 1369 l 549 1369 l 811 1688 m 253 0 l 1 0 l 464 914 q 417 1061 417 969 q 476 1222 417 1164 q 636 1281 536 1281 q 799 1224 740 1281 q 858 1061 858 1167 q 794 900 858 958 l 1258 0 l 1010 0 l 904 215 l 356 215 l 253 0 m 553 1061 q 592 990 553 1008 l 672 990 q 719 1061 719 1010 q 636 1146 719 1146 q 575 1124 597 1146 q 553 1061 553 1101 m 625 781 l 446 404 l 810 404 l 625 781 z "},"ǻ":{"ha":1132,"x_min":49,"x_max":1044,"o":"m 774 1764 l 1032 1764 l 697 1446 l 511 1446 l 774 1764 m 579 908 q 417 965 475 908 q 360 1125 360 1022 q 419 1286 360 1228 q 579 1344 479 1344 q 742 1288 683 1344 q 801 1125 801 1231 q 742 967 801 1026 q 579 908 682 908 m 579 1046 q 636 1067 610 1046 q 663 1125 663 1088 q 579 1210 663 1210 q 518 1188 540 1210 q 496 1125 496 1165 q 579 1046 496 1046 m 832 189 q 668 32 781 90 q 389 -26 556 -26 q 49 200 49 -26 l 49 201 q 175 404 49 346 q 263 436 207 419 q 593 474 357 460 q 731 486 703 482 q 799 508 779 493 q 818 549 818 522 l 818 550 q 797 601 818 579 q 593 656 753 656 q 432 640 486 656 q 344 597 372 626 q 311 519 317 568 l 68 519 q 213 751 88 676 q 572 825 339 825 q 832 797 724 825 q 992 696 939 768 q 1044 496 1044 624 l 1044 0 l 853 0 l 832 189 m 460 140 q 646 176 563 140 q 774 266 728 211 q 821 382 821 321 l 821 388 q 614 333 788 343 q 349 294 410 324 q 299 222 299 269 l 299 221 q 460 140 299 140 z "},"Ǽ":{"ha":1888,"x_min":-36,"x_max":1838,"o":"m 997 1425 l 1256 1425 l 921 1107 l 735 1107 l 997 1425 m 921 256 l 406 256 l 222 0 l -36 0 l 299 450 l 299 451 l 300 451 l 701 990 l 1804 990 l 1804 794 l 1010 794 l 1056 594 l 1694 594 l 1694 399 l 1101 399 l 1146 203 l 1838 203 l 1838 0 l 978 0 l 921 256 m 797 801 l 546 451 l 876 451 l 797 801 z "},"ǽ":{"ha":1919,"x_min":51,"x_max":1872,"o":"m 1169 1214 l 1428 1214 l 1093 896 l 907 896 l 1169 1214 m 1864 240 q 1742 76 1821 135 q 1329 -26 1603 -26 q 872 174 982 -26 q 692 27 815 81 q 399 -26 568 -26 q 51 200 51 -26 l 51 201 q 178 404 51 346 q 265 436 210 419 q 596 474 360 460 q 733 486 706 482 q 801 508 782 493 q 821 549 821 522 l 821 550 q 800 601 821 579 q 596 656 756 656 q 435 640 489 656 q 347 597 375 626 q 314 519 319 568 l 71 519 q 216 751 90 676 q 575 825 342 825 q 963 708 856 825 q 1347 826 1100 826 q 1631 775 1511 826 q 1872 399 1872 668 l 1872 314 l 1036 314 q 1129 197 1057 235 q 1349 158 1201 158 q 1510 177 1453 158 q 1597 240 1567 196 l 1864 240 m 1354 643 q 1040 485 1089 643 l 1640 485 q 1553 607 1621 571 q 1354 643 1486 643 m 463 140 q 649 176 565 140 q 777 266 731 211 q 824 382 824 321 l 824 388 q 617 333 790 343 q 351 294 413 324 q 301 222 301 269 l 301 221 q 463 140 301 140 z "},"Ǿ":{"ha":1310,"x_min":63,"x_max":1247,"o":"m 836 1461 l 1094 1461 l 760 1143 l 574 1143 l 836 1461 m 654 -28 q 418 0 529 -28 l 333 -125 l 136 -125 l 268 65 q 63 485 63 194 l 63 492 q 139 775 63 656 q 348 953 215 892 q 653 1015 481 1015 q 875 986 778 1015 l 950 1100 l 1147 1100 l 1026 918 q 1247 493 1247 778 l 1247 483 q 1171 197 1247 308 q 654 -28 1022 -28 m 303 486 q 399 254 303 333 l 756 799 q 654 806 703 806 q 303 488 303 806 l 303 486 m 653 183 q 842 213 768 183 q 1007 485 1007 271 l 1007 486 q 906 739 1007 657 l 544 193 q 653 183 592 183 z "},"ǿ":{"ha":1201,"x_min":60,"x_max":1142,"o":"m 769 1244 l 1028 1244 l 693 926 l 507 926 l 769 1244 m 594 -26 q 436 -15 514 -26 l 364 -125 l 151 -125 l 261 35 q 60 393 60 136 q 126 624 60 525 q 601 826 269 826 q 772 811 689 826 l 849 925 l 1056 925 l 939 753 q 1142 397 1142 640 q 1085 175 1142 274 q 594 -26 961 -26 m 299 397 q 383 214 299 271 l 656 632 q 604 633 639 633 q 299 397 299 633 m 601 167 q 835 223 764 167 q 906 397 906 279 q 824 581 906 524 l 554 168 q 601 167 569 167 z "},"Ș":{"ha":1167,"x_min":13,"x_max":1119,"o":"m 615 -29 q 296 11 417 -29 q 106 134 174 51 q 13 351 39 217 l 265 351 q 376 213 289 253 q 621 174 463 174 q 822 201 758 174 q 885 290 885 229 q 853 358 885 339 q 749 388 822 379 q 504 406 676 396 q 254 444 351 414 q 107 535 154 474 q 60 701 60 597 q 184 932 60 849 q 546 1015 308 1015 q 947 935 808 1015 q 1119 669 1086 854 l 871 669 q 773 790 851 758 q 542 821 694 821 q 352 792 408 821 q 296 708 296 764 q 307 663 296 681 q 350 633 318 646 q 613 600 415 608 q 903 561 793 592 q 1068 470 1017 531 q 1119 307 1119 410 q 615 -29 1119 -29 m 503 -362 q 676 -283 658 -356 q 613 -292 646 -292 q 505 -274 533 -292 q 476 -196 476 -256 q 513 -118 476 -140 q 638 -96 550 -96 q 761 -126 725 -96 q 797 -232 797 -156 q 772 -347 797 -297 q 503 -456 718 -450 l 503 -362 z "},"ș":{"ha":1060,"x_min":15,"x_max":1022,"o":"m 553 -26 q 176 44 307 -26 q 15 264 46 115 l 286 264 q 368 179 307 204 q 565 154 429 154 q 739 177 689 154 q 789 244 789 200 q 738 296 789 283 q 485 317 685 311 q 146 378 247 324 q 44 550 44 432 q 93 692 44 633 q 490 826 199 826 q 842 760 717 826 q 1011 549 968 693 l 756 549 q 673 631 740 607 q 488 656 606 656 q 354 643 396 656 q 272 569 272 621 q 318 517 272 532 q 565 493 372 501 q 929 428 835 483 q 1022 250 1022 378 q 901 50 1022 126 q 553 -26 779 -26 m 426 -362 q 600 -283 582 -356 q 536 -292 568 -292 q 428 -274 457 -292 q 400 -196 400 -256 q 437 -118 400 -140 q 561 -96 474 -96 q 685 -126 649 -96 q 721 -232 721 -156 q 696 -347 721 -297 q 426 -456 642 -450 l 426 -362 z "},"ȷ":{"ha":435,"x_min":-108,"x_max":336,"o":"m -108 -182 l -65 -182 q 71 -153 44 -182 q 99 8 99 -124 l 99 797 l 336 797 l 336 -22 q 264 -324 336 -251 q -40 -396 190 -396 l -108 -396 l -108 -182 z "},"Ʌ":{"ha":1258,"x_min":1,"x_max":1258,"o":"m 625 783 l 251 0 l 1 0 l 503 990 l 749 990 l 1258 0 l 1011 0 l 625 783 z "},"ˆ":{"ha":1031,"x_min":163,"x_max":868,"o":"m 517 1119 l 371 942 l 163 942 l 431 1260 l 601 1260 l 868 942 l 664 942 l 517 1119 z "},"ˇ":{"ha":1031,"x_min":160,"x_max":865,"o":"m 428 942 l 160 1274 l 367 1274 l 513 1090 l 661 1274 l 865 1274 l 599 942 l 428 942 z "},"˘":{"ha":1031,"x_min":150,"x_max":876,"o":"m 510 938 q 289 978 365 938 q 150 1269 150 1049 l 318 1269 q 363 1138 318 1176 q 511 1097 408 1099 q 659 1138 614 1099 q 704 1269 704 1176 l 876 1269 q 790 1022 876 1106 q 510 938 703 938 z "},"˙":{"ha":1038,"x_min":346,"x_max":651,"o":"m 499 935 q 380 966 414 935 q 346 1078 346 997 q 383 1186 346 1154 q 499 1218 421 1218 q 614 1186 576 1218 q 651 1078 651 1154 q 614 968 651 1001 q 499 935 576 935 z "},"˚":{"ha":1031,"x_min":290,"x_max":732,"o":"m 510 931 q 348 988 406 931 q 290 1147 290 1044 q 350 1308 290 1250 q 510 1367 410 1367 q 673 1310 614 1367 q 732 1147 732 1253 q 672 990 732 1049 q 510 931 613 931 m 510 1068 q 567 1089 540 1068 q 593 1147 593 1110 q 510 1232 593 1232 q 449 1210 471 1232 q 426 1147 426 1188 q 510 1068 426 1068 z "},"˛":{"ha":1031,"x_min":269,"x_max":824,"o":"m 517 -392 q 335 -346 400 -392 q 269 -211 269 -300 q 288 -121 269 -162 q 519 68 325 -22 l 656 0 q 524 -82 576 -47 q 458 -139 476 -114 q 439 -193 439 -164 q 464 -242 439 -225 q 531 -260 489 -260 q 631 -200 600 -260 l 824 -200 q 517 -392 736 -392 z "},"˜":{"ha":1031,"x_min":151,"x_max":838,"o":"m 151 926 q 169 1049 151 994 q 358 1169 213 1169 q 508 1122 422 1169 q 628 1074 582 1074 q 682 1095 667 1074 q 699 1163 697 1117 l 838 1163 q 819 1035 838 1096 q 628 919 778 919 q 475 967 547 919 q 357 1013 397 1013 q 289 926 296 1013 l 151 926 z "},"˝":{"ha":1031,"x_min":75,"x_max":940,"o":"m 244 942 l 75 942 l 349 1260 l 593 1260 l 244 942 m 596 942 l 424 942 l 697 1260 l 940 1260 l 596 942 z "},"μ":{"ha":1126,"x_min":76,"x_max":1028,"o":"m 508 -22 q 307 50 376 -22 l 307 -286 l 76 -286 l 76 797 l 313 797 l 313 454 q 336 315 313 378 q 547 183 388 183 q 685 224 635 183 q 789 488 789 300 l 789 797 l 1028 797 l 1028 0 l 825 0 l 806 172 q 688 30 764 82 q 508 -22 613 -22 z "},"π":{"ha":1325,"x_min":35,"x_max":1290,"o":"m 808 768 l 500 768 l 500 0 l 265 0 l 265 768 l 35 768 l 35 990 l 1290 990 l 1290 768 l 1042 768 l 1042 408 q 1058 281 1042 321 q 1114 230 1075 242 q 1232 218 1153 218 l 1275 218 l 1275 0 l 1210 0 q 892 72 974 0 q 808 378 808 150 l 808 768 z "},"฿":{"ha":1208,"x_min":111,"x_max":1174,"o":"m 542 -158 l 542 0 l 111 0 l 111 990 l 542 990 l 542 1165 l 714 1165 l 714 990 q 1045 926 942 985 q 1149 731 1149 868 l 1149 722 q 1101 579 1149 628 q 944 511 1053 531 q 1120 445 1067 494 q 1174 293 1174 396 l 1174 288 q 1061 71 1174 136 q 714 0 949 6 l 714 -158 l 542 -158 m 542 599 l 542 807 l 338 807 l 338 599 l 542 599 m 919 704 q 876 786 919 767 q 714 807 832 806 l 714 599 q 869 620 818 600 q 919 699 919 640 l 919 704 m 542 194 l 542 418 l 338 418 l 338 194 l 542 194 m 936 308 q 917 375 936 351 q 714 418 881 417 l 714 196 q 853 208 803 197 q 917 242 899 219 q 936 303 936 264 l 936 308 z "},"Ẁ":{"ha":1789,"x_min":4,"x_max":1785,"o":"m 461 1425 l 721 1425 l 997 1107 l 810 1107 l 461 1425 m 886 700 l 558 0 l 326 0 l 4 990 l 246 990 l 471 275 l 800 990 l 985 990 l 1271 276 l 1546 990 l 1785 990 l 1382 0 l 1160 0 l 886 700 z "},"ẁ":{"ha":1542,"x_min":1,"x_max":1540,"o":"m 342 1232 l 601 1232 l 878 914 l 690 914 l 342 1232 m 763 542 l 488 0 l 285 0 l 1 797 l 246 797 l 417 276 l 675 797 l 861 797 l 1101 271 l 1304 797 l 1540 797 l 1211 0 l 1011 0 l 763 542 z "},"Ẃ":{"ha":1789,"x_min":4,"x_max":1785,"o":"m 1069 1425 l 1328 1425 l 993 1107 l 807 1107 l 1069 1425 m 886 700 l 558 0 l 326 0 l 4 990 l 246 990 l 471 275 l 800 990 l 985 990 l 1271 276 l 1546 990 l 1785 990 l 1382 0 l 1160 0 l 886 700 z "},"ẃ":{"ha":1542,"x_min":1,"x_max":1540,"o":"m 950 1232 l 1208 1232 l 874 914 l 688 914 l 950 1232 m 763 542 l 488 0 l 285 0 l 1 797 l 246 797 l 417 276 l 675 797 l 861 797 l 1101 271 l 1304 797 l 1540 797 l 1211 0 l 1011 0 l 763 542 z "},"Ẅ":{"ha":1789,"x_min":4,"x_max":1785,"o":"m 715 1101 q 608 1130 639 1101 q 576 1231 576 1158 q 610 1328 576 1299 q 715 1358 644 1358 q 819 1328 786 1358 q 853 1231 853 1299 q 819 1132 853 1163 q 715 1101 786 1101 m 1086 1101 q 978 1130 1008 1101 q 949 1231 949 1158 q 982 1328 949 1299 q 1086 1358 1015 1358 q 1191 1328 1157 1358 q 1225 1231 1225 1299 q 1191 1132 1225 1163 q 1086 1101 1157 1101 m 886 700 l 558 0 l 326 0 l 4 990 l 246 990 l 471 275 l 800 990 l 985 990 l 1271 276 l 1546 990 l 1785 990 l 1382 0 l 1160 0 l 886 700 z "},"ẅ":{"ha":1542,"x_min":1,"x_max":1540,"o":"m 596 908 q 488 937 519 908 q 457 1038 457 965 q 491 1135 457 1106 q 596 1165 525 1165 q 700 1135 667 1165 q 733 1038 733 1106 q 700 939 733 969 q 596 908 667 908 m 967 908 q 859 937 889 908 q 829 1038 829 965 q 863 1135 829 1106 q 967 1165 896 1165 q 1072 1135 1038 1165 q 1106 1038 1106 1106 q 1072 939 1106 969 q 967 908 1038 908 m 763 542 l 488 0 l 285 0 l 1 797 l 246 797 l 417 276 l 675 797 l 861 797 l 1101 271 l 1304 797 l 1540 797 l 1211 0 l 1011 0 l 763 542 z "},"Ỳ":{"ha":1133,"x_min":-32,"x_max":1138,"o":"m 153 1386 l 413 1386 l 689 1068 l 501 1068 l 153 1386 m 415 0 l 415 407 l -32 990 l 254 990 l 542 596 l 853 990 l 1138 990 l 658 403 l 658 0 l 415 0 z "},"ỳ":{"ha":1106,"x_min":-1,"x_max":1110,"o":"m 118 1219 l 378 1219 l 654 901 l 467 901 l 118 1219 m 47 -358 l 47 -154 l 163 -154 q 274 -139 236 -154 q 345 -95 315 -126 q 407 -7 375 -64 l 433 40 l -1 797 l 257 797 l 547 274 l 557 249 l 567 271 l 856 797 l 1110 797 l 625 -49 q 428 -304 511 -247 q 151 -358 344 -358 l 47 -358 z "},"‒":{"ha":1106,"x_min":85,"x_max":1021,"o":"m 1021 331 l 85 331 l 85 565 l 1021 565 l 1021 331 z "},"–":{"ha":890,"x_min":85,"x_max":806,"o":"m 806 331 l 85 331 l 85 565 l 806 565 l 806 331 z "},"—":{"ha":1265,"x_min":85,"x_max":1181,"o":"m 1181 331 l 85 331 l 85 565 l 1181 565 l 1181 331 z "},"―":{"ha":1904,"x_min":85,"x_max":1819,"o":"m 1819 331 l 85 331 l 85 565 l 1819 565 l 1819 331 z "},"‖":{"ha":996,"x_min":128,"x_max":868,"o":"m 128 -89 l 128 1096 l 361 1096 l 361 -89 l 128 -89 m 635 -89 l 635 1096 l 868 1096 l 868 -89 l 635 -89 z "},"‗":{"ha":1206,"x_min":33,"x_max":1172,"o":"m 1172 0 l 33 0 l 33 157 l 1172 157 l 1172 0 m 1172 -251 l 33 -251 l 33 -94 l 1172 -94 l 1172 -251 z "},"‘":{"ha":474,"x_min":111,"x_max":372,"o":"m 244 547 q 141 583 171 547 q 111 710 111 619 q 332 997 111 953 l 357 907 q 258 857 290 889 q 219 765 226 825 q 258 771 235 771 q 348 749 324 771 q 372 663 372 728 q 342 573 372 599 q 244 547 313 547 z "},"’":{"ha":474,"x_min":108,"x_max":369,"o":"m 124 640 q 224 692 192 661 q 261 782 256 724 q 222 776 246 776 q 133 798 157 776 q 108 885 108 819 q 138 974 108 949 q 236 1000 168 1000 q 340 964 310 1000 q 369 838 369 928 q 149 550 369 593 l 124 640 z "},"‚":{"ha":522,"x_min":132,"x_max":393,"o":"m 147 -135 q 228 -92 196 -129 q 267 4 260 -54 q 246 3 260 3 q 156 24 181 3 q 132 111 132 46 q 162 201 132 175 q 260 226 192 226 q 363 190 333 226 q 393 64 393 154 q 172 -224 393 -181 l 147 -135 z "},"‛":{"ha":474,"x_min":107,"x_max":367,"o":"m 326 550 q 107 842 107 593 q 239 1000 107 1000 q 337 974 307 1000 q 367 885 367 949 q 342 798 367 819 q 253 776 318 776 q 232 778 239 776 q 271 683 239 719 q 351 639 303 646 l 326 550 z "},"“":{"ha":858,"x_min":111,"x_max":757,"o":"m 244 547 q 141 583 171 547 q 111 710 111 619 q 332 997 111 953 l 357 907 q 258 857 290 889 q 219 765 226 825 q 258 771 235 771 q 348 749 324 771 q 372 663 372 728 q 342 573 372 599 q 244 547 313 547 m 629 547 q 526 583 556 547 q 496 710 496 619 q 717 997 496 953 l 742 907 q 643 857 675 889 q 604 765 611 825 q 643 771 619 771 q 733 749 708 771 q 757 663 757 728 q 727 573 757 599 q 629 547 697 547 z "},"”":{"ha":858,"x_min":104,"x_max":750,"o":"m 119 640 q 219 692 188 661 q 257 782 251 724 q 218 776 242 776 q 128 798 153 776 q 104 885 104 819 q 134 974 104 949 q 232 1000 164 1000 q 335 964 306 1000 q 365 838 365 928 q 144 550 365 593 l 119 640 m 504 640 q 604 692 572 661 q 642 782 636 724 q 603 776 626 776 q 513 798 538 776 q 489 885 489 819 q 519 974 489 949 q 617 1000 549 1000 q 720 964 690 1000 q 750 838 750 928 q 529 550 750 593 l 504 640 z "},"„":{"ha":858,"x_min":99,"x_max":744,"o":"m 114 -133 q 214 -83 182 -115 q 251 8 246 -51 q 213 3 236 3 q 123 24 147 3 q 99 111 99 46 q 128 201 99 175 q 226 226 158 226 q 330 190 300 226 q 360 64 360 154 q 139 -224 360 -181 l 114 -133 m 499 -133 q 599 -83 567 -115 q 636 8 631 -51 q 597 3 621 3 q 508 24 532 3 q 483 111 483 46 q 513 201 483 175 q 611 226 543 226 q 715 190 685 226 q 744 64 744 154 q 524 -224 744 -181 l 499 -133 z "},"‟":{"ha":858,"x_min":103,"x_max":747,"o":"m 317 550 q 103 842 103 592 q 232 1000 103 1000 q 333 974 303 1000 q 363 885 363 949 q 337 799 363 821 q 246 776 311 776 q 235 777 242 776 q 228 778 229 778 q 342 639 239 653 l 317 550 m 701 550 q 488 842 488 592 q 617 1000 488 1000 q 717 974 688 1000 q 747 885 747 949 q 722 799 747 821 q 631 776 696 776 q 620 777 626 776 q 613 778 614 778 q 726 639 624 653 l 701 550 z "},"†":{"ha":976,"x_min":93,"x_max":883,"o":"m 603 656 l 603 -89 l 369 -89 l 369 656 l 93 656 l 93 876 l 369 876 l 369 1096 l 603 1096 l 603 876 l 883 876 l 883 656 l 603 656 z "},"‡":{"ha":976,"x_min":93,"x_max":883,"o":"m 600 111 l 600 -89 l 367 -89 l 367 111 l 93 111 l 93 332 l 367 332 l 367 653 l 93 653 l 93 874 l 367 874 l 367 1096 l 600 1096 l 600 874 l 883 874 l 883 653 l 600 653 l 600 332 l 883 332 l 883 111 l 600 111 z "},"•":{"ha":565,"x_min":104,"x_max":461,"o":"m 282 224 q 145 265 186 224 q 104 401 104 306 q 147 538 104 496 q 282 579 190 579 q 418 539 375 579 q 461 401 461 499 q 417 266 461 308 q 282 224 374 224 z "},"…":{"ha":1336,"x_min":104,"x_max":1231,"o":"m 244 -17 q 135 10 165 -17 q 104 118 104 38 q 135 224 104 196 q 244 251 167 251 q 349 224 319 251 q 379 118 379 196 q 350 12 379 40 q 244 -17 321 -17 m 672 -17 q 563 10 593 -17 q 532 118 532 38 q 563 224 532 196 q 672 251 594 251 q 779 224 749 251 q 810 118 810 196 q 779 12 810 40 q 672 -17 749 -17 m 1096 -17 q 986 10 1017 -17 q 956 118 956 38 q 987 224 956 196 q 1096 251 1018 251 q 1201 224 1171 251 q 1231 118 1231 196 q 1201 12 1231 40 q 1096 -17 1172 -17 z "},"‰":{"ha":1875,"x_min":1,"x_max":1842,"o":"m 290 522 q 92 585 158 522 q 25 760 25 647 q 58 883 25 828 q 297 1001 131 1001 q 490 935 418 1001 q 561 760 561 868 q 490 585 561 649 q 290 522 419 522 m 989 990 l 1264 990 l 290 0 l 1 0 l 989 990 m 290 667 q 393 760 393 667 q 292 850 393 850 q 192 760 192 850 q 290 667 192 667 m 968 -14 q 769 49 836 -14 q 703 224 703 111 q 736 347 703 292 q 975 465 808 465 q 1167 399 1096 465 q 1239 224 1239 332 q 1168 49 1239 113 q 968 -14 1097 -14 m 1571 -14 q 1372 49 1439 -14 q 1306 224 1306 111 q 1339 347 1306 292 q 1578 465 1411 465 q 1770 399 1699 465 q 1842 224 1842 332 q 1771 49 1842 113 q 1571 -14 1700 -14 m 968 131 q 1071 224 1071 131 q 969 314 1071 314 q 869 224 869 314 q 968 131 869 131 m 1571 131 q 1674 224 1674 131 q 1572 314 1674 314 q 1472 224 1472 314 q 1571 131 1472 131 z "},"′":{"ha":272,"x_min":11,"x_max":263,"o":"m 11 701 l 53 990 l 263 990 l 157 701 l 11 701 z "},"″":{"ha":544,"x_min":11,"x_max":535,"o":"m 11 701 l 54 990 l 265 990 l 158 701 l 11 701 m 290 701 l 325 990 l 535 990 l 438 701 l 290 701 z "},"‴":{"ha":1088,"x_min":71,"x_max":1017,"o":"m 303 990 l 303 965 q 297 808 303 874 q 267 622 282 646 l 106 622 q 89 683 97 632 q 71 965 71 792 l 71 990 l 303 990 m 660 990 l 660 965 q 654 808 660 874 q 624 622 639 646 l 463 622 q 446 683 454 632 q 428 965 428 807 l 428 990 l 660 990 m 1017 990 l 1017 965 q 1011 808 1017 874 q 982 622 1000 651 l 821 622 q 804 683 813 632 q 785 965 785 800 l 785 990 l 1017 990 z "},"‹":{"ha":681,"x_min":135,"x_max":619,"o":"m 390 129 l 135 417 l 135 450 l 372 753 l 590 753 l 349 443 l 619 129 l 390 129 z "},"›":{"ha":681,"x_min":61,"x_max":546,"o":"m 61 129 l 332 443 l 90 753 l 308 753 l 546 450 l 546 417 l 290 129 l 61 129 z "},"‼":{"ha":1007,"x_min":107,"x_max":890,"o":"m 408 990 l 408 858 q 397 633 408 744 q 350 367 374 431 q 269 372 326 372 q 189 367 210 372 q 167 458 182 382 q 131 858 131 647 l 131 990 l 408 990 m 876 990 l 876 858 q 865 633 876 744 q 818 367 842 431 q 738 372 794 372 q 657 367 678 372 q 635 458 650 382 q 599 858 599 647 l 599 990 l 876 990 m 265 -24 q 143 9 179 -24 q 107 122 107 42 q 147 233 107 199 q 265 267 186 267 q 383 233 344 267 q 422 122 422 200 q 383 11 422 46 q 265 -24 344 -24 m 733 -24 q 611 9 647 -24 q 575 122 575 42 q 615 233 575 199 q 733 267 654 267 q 851 233 813 267 q 890 122 890 200 q 851 11 890 46 q 733 -24 813 -24 z "},"‽":{"ha":1222,"x_min":92,"x_max":1126,"o":"m 676 328 q 594 332 614 332 q 508 328 524 332 q 501 413 504 346 q 493 761 493 601 l 493 810 q 365 756 403 796 q 326 639 326 715 l 92 639 q 220 919 92 829 q 607 1010 349 1010 q 1126 717 1126 1010 q 1015 533 1126 588 q 963 511 993 522 q 912 494 932 500 q 855 480 892 489 q 804 467 818 471 q 681 367 688 436 l 676 328 m 699 761 q 690 565 699 696 q 825 631 726 592 q 890 707 890 656 q 844 784 890 760 q 699 814 797 808 l 699 761 m 594 -21 q 472 11 508 -21 q 436 124 436 43 q 476 234 436 200 q 594 268 515 268 q 713 234 674 268 q 753 124 753 200 q 713 14 753 49 q 594 -21 674 -21 z "},"⁄":{"ha":1610,"x_min":190,"x_max":1474,"o":"m 876 618 l 1233 1072 l 1474 875 l 951 551 l 876 618 m 801 433 l 432 -56 l 190 156 l 731 500 l 801 433 z "},"⁰":{"ha":600,"x_min":11,"x_max":576,"o":"m 292 482 q 82 551 153 482 q 11 740 11 619 q 46 872 11 811 q 299 1003 122 1003 q 446 968 382 1003 q 576 740 576 899 q 501 553 576 624 q 292 482 426 482 m 292 635 q 370 663 340 635 q 400 740 400 692 q 372 816 400 789 q 293 843 343 843 q 188 740 188 843 q 214 663 188 690 q 292 635 240 635 z "},"⁴":{"ha":567,"x_min":3,"x_max":565,"o":"m 471 585 l 471 496 l 328 496 l 328 585 l 3 585 l 3 693 l 333 990 l 471 990 l 471 707 l 565 707 l 565 585 l 471 585 m 178 707 l 328 707 l 328 806 l 333 849 l 318 829 l 178 707 z "},"⁵":{"ha":569,"x_min":18,"x_max":551,"o":"m 289 485 q 101 524 165 485 q 18 649 36 564 l 214 649 q 296 613 229 613 q 393 665 393 613 q 308 722 393 722 q 197 683 244 722 l 188 675 l 43 696 l 75 990 l 515 990 q 481 891 514 917 q 363 865 447 865 l 206 865 l 190 757 q 371 832 251 832 q 551 668 551 832 q 487 535 551 586 q 289 485 422 485 z "},"⁶":{"ha":604,"x_min":26,"x_max":569,"o":"m 569 663 q 503 531 569 579 q 314 482 436 482 q 142 517 206 482 q 26 735 26 578 q 60 872 26 811 q 306 1003 132 1003 q 564 839 531 1003 l 385 839 q 304 874 368 874 q 214 836 249 874 q 179 743 179 799 q 181 718 179 728 q 389 811 251 811 q 569 663 569 811 m 318 614 q 408 661 408 614 q 331 706 408 706 q 206 651 260 706 q 318 614 240 614 z "},"⁷":{"ha":507,"x_min":7,"x_max":493,"o":"m 67 496 q 135 626 94 561 q 317 847 225 769 l 7 847 l 7 990 l 493 990 l 493 860 q 257 496 344 711 l 67 496 z "},"⁸":{"ha":604,"x_min":22,"x_max":571,"o":"m 292 485 q 85 520 149 485 q 22 633 22 556 q 115 749 22 718 q 46 849 46 776 q 115 961 46 922 q 301 1000 183 1000 q 492 963 422 1000 q 561 851 561 926 q 481 747 561 781 q 571 633 571 717 q 502 520 571 556 q 292 485 433 485 m 315 793 q 404 835 404 793 q 381 869 404 858 q 301 879 358 879 q 203 835 203 879 q 286 793 203 793 l 315 793 m 210 615 q 222 609 210 615 q 297 604 235 604 q 386 615 360 604 q 413 650 413 625 q 390 685 413 675 q 315 694 368 694 l 283 694 q 185 650 185 694 q 210 615 185 625 z "},"⁹":{"ha":576,"x_min":1,"x_max":551,"o":"m 268 481 q 88 519 158 481 q 1 636 18 558 l 188 636 q 267 610 203 610 q 403 736 403 610 q 217 663 343 663 q 8 811 8 663 q 77 950 8 899 q 263 1001 146 1001 q 481 931 410 1001 q 551 738 551 861 q 480 549 551 618 q 268 481 408 481 m 268 769 q 389 818 346 769 q 265 872 363 872 q 171 817 171 872 q 194 780 171 790 q 268 769 217 769 z "},"⁺":{"ha":604,"x_min":68,"x_max":519,"o":"m 361 661 l 361 507 l 222 507 l 222 661 l 68 661 l 68 797 l 222 797 l 222 949 l 361 949 l 361 797 l 519 797 l 519 661 l 361 661 z "},"⁻":{"ha":604,"x_min":67,"x_max":521,"o":"m 67 658 l 67 801 l 521 801 l 521 658 l 67 658 z "},"⁼":{"ha":604,"x_min":67,"x_max":521,"o":"m 67 778 l 67 914 l 521 914 l 521 778 l 67 778 m 67 550 l 67 686 l 521 686 l 521 550 l 67 550 z "},"⁽":{"ha":451,"x_min":44,"x_max":429,"o":"m 429 306 q 139 423 233 322 q 44 721 44 524 q 96 954 44 864 q 429 1154 197 1136 l 429 994 q 222 721 222 968 q 247 581 222 633 q 429 472 292 488 l 429 306 z "},"⁾":{"ha":451,"x_min":10,"x_max":394,"o":"m 10 472 q 121 504 76 481 q 217 721 217 557 q 10 994 217 968 l 10 1154 q 206 1096 115 1146 q 394 721 394 990 q 300 423 394 524 q 10 306 206 322 l 10 472 z "},"₀":{"ha":600,"x_min":17,"x_max":582,"o":"m 297 -14 q 88 55 158 -14 q 17 244 17 124 q 51 376 17 315 q 304 507 128 507 q 451 472 388 507 q 582 244 582 403 q 507 57 582 128 q 297 -14 432 -14 m 297 139 q 376 167 346 139 q 406 244 406 196 q 377 320 406 293 q 299 347 349 347 q 193 244 193 347 q 219 167 193 194 q 297 139 246 139 z "},"₁":{"ha":429,"x_min":19,"x_max":418,"o":"m 19 0 l 19 144 l 147 144 l 147 265 l 44 265 l 44 383 q 168 494 150 390 l 296 494 l 296 144 l 418 144 l 418 0 l 19 0 z "},"₂":{"ha":547,"x_min":21,"x_max":525,"o":"m 21 0 l 21 69 q 110 219 21 171 q 275 275 167 249 q 364 333 364 296 q 285 375 364 375 q 190 303 190 375 l 28 303 q 286 504 35 504 q 467 458 408 504 q 525 338 525 413 q 503 260 525 290 q 365 179 464 207 q 313 165 346 174 q 256 149 281 156 q 215 135 232 142 l 522 135 l 522 0 l 21 0 z "},"₃":{"ha":571,"x_min":19,"x_max":544,"o":"m 279 -11 q 84 37 146 -11 q 19 185 22 85 l 186 185 q 213 133 188 150 q 297 117 238 117 q 382 157 382 117 q 368 181 382 174 q 314 188 354 188 l 221 188 l 221 304 l 307 304 q 369 336 369 304 q 294 374 369 374 q 194 313 194 374 l 31 313 q 99 453 31 401 q 297 504 168 504 q 474 465 414 504 q 533 367 533 426 q 505 292 533 315 q 419 261 476 269 q 544 146 544 243 q 279 -11 544 -11 z "},"₄":{"ha":567,"x_min":8,"x_max":571,"o":"m 476 89 l 476 0 l 333 0 l 333 89 l 8 89 l 8 197 l 339 494 l 476 494 l 476 211 l 571 211 l 571 89 l 476 89 m 183 211 l 333 211 l 333 310 l 339 353 l 324 333 l 183 211 z "},"₅":{"ha":569,"x_min":24,"x_max":557,"o":"m 294 -11 q 106 28 171 -11 q 24 153 42 68 l 219 153 q 301 117 235 117 q 399 169 399 117 q 314 226 399 226 q 203 188 250 226 l 193 179 l 49 200 l 81 494 l 521 494 q 486 395 519 421 q 368 369 453 369 l 211 369 l 196 261 q 376 336 257 336 q 557 172 557 336 q 492 40 557 90 q 294 -11 428 -11 z "},"₆":{"ha":604,"x_min":32,"x_max":575,"o":"m 575 167 q 508 35 575 83 q 319 -14 442 -14 q 147 21 211 -14 q 32 239 32 82 q 65 376 32 317 q 311 507 138 507 q 569 343 536 507 l 390 343 q 310 378 374 378 q 219 340 254 378 q 185 247 185 303 q 186 222 185 232 q 394 315 257 315 q 575 167 575 315 m 324 118 q 414 165 414 118 q 336 210 414 210 q 211 156 265 210 q 324 118 246 118 z "},"₇":{"ha":507,"x_min":13,"x_max":499,"o":"m 72 0 q 140 131 100 65 q 322 351 231 274 l 13 351 l 13 494 l 499 494 l 499 364 q 263 0 350 215 l 72 0 z "},"₈":{"ha":604,"x_min":28,"x_max":576,"o":"m 297 -11 q 91 24 154 -11 q 28 138 28 60 q 121 253 28 222 q 51 353 51 281 q 120 465 51 426 q 307 504 189 504 q 497 467 428 504 q 567 356 567 431 q 486 251 567 285 q 576 138 576 221 q 508 24 576 60 q 297 -11 439 -11 m 321 297 q 410 339 410 297 q 387 373 410 363 q 307 383 364 383 q 208 339 208 383 q 292 297 208 297 l 321 297 m 215 119 q 228 114 215 119 q 303 108 240 108 q 392 119 365 108 q 418 154 418 129 q 396 189 418 179 q 321 199 374 199 l 289 199 q 190 154 190 199 q 215 119 190 129 z "},"₉":{"ha":576,"x_min":7,"x_max":557,"o":"m 274 -15 q 94 24 164 -15 q 7 140 24 63 l 193 140 q 272 114 208 114 q 408 240 408 114 q 222 167 349 167 q 14 315 14 167 q 83 454 14 403 q 268 506 151 506 q 486 435 415 506 q 557 242 557 365 q 485 53 557 122 q 274 -15 414 -15 m 274 274 q 394 322 351 274 q 271 376 368 376 q 176 321 176 376 q 199 284 176 294 q 274 274 222 274 z "},"₊":{"ha":604,"x_min":74,"x_max":525,"o":"m 367 165 l 367 11 l 228 11 l 228 165 l 74 165 l 74 301 l 228 301 l 228 453 l 367 453 l 367 301 l 525 301 l 525 165 l 367 165 z "},"₋":{"ha":604,"x_min":72,"x_max":526,"o":"m 72 163 l 72 306 l 526 306 l 526 163 l 72 163 z "},"₌":{"ha":604,"x_min":72,"x_max":526,"o":"m 72 282 l 72 418 l 526 418 l 526 282 l 72 282 m 72 54 l 72 190 l 526 190 l 526 54 l 72 54 z "},"₍":{"ha":451,"x_min":50,"x_max":435,"o":"m 435 -190 q 144 -73 239 -174 q 50 225 50 28 q 101 458 50 368 q 435 658 203 640 l 435 499 q 228 225 228 472 q 253 85 228 136 q 435 -24 297 -8 l 435 -190 z "},"₎":{"ha":451,"x_min":15,"x_max":400,"o":"m 15 -24 q 126 8 82 -15 q 222 225 222 61 q 15 499 222 472 l 15 658 q 211 600 121 650 q 400 225 400 494 q 306 -73 400 28 q 15 -190 211 -174 l 15 -24 z "},"₡":{"ha":1253,"x_min":63,"x_max":1218,"o":"m 492 -18 q 425 -6 469 -17 l 376 -147 l 239 -147 l 306 38 q 63 485 63 158 l 63 492 q 136 769 63 657 q 335 949 208 886 q 629 1015 463 1011 l 665 1122 l 796 1122 l 760 1008 q 829 997 774 1007 l 871 1122 l 1007 1122 l 951 956 q 1211 599 1164 854 l 965 599 q 881 739 949 689 l 699 186 q 968 421 940 208 l 1218 421 q 1129 183 1194 282 q 629 -28 993 -28 l 624 -28 l 585 -147 l 449 -147 l 492 -18 m 764 793 q 693 804 726 803 l 496 201 q 565 188 514 197 l 764 793 m 303 488 q 382 265 303 340 l 557 799 q 303 490 303 761 l 303 488 z "},"₢":{"ha":1232,"x_min":63,"x_max":1206,"o":"m 1206 356 q 1108 151 1181 246 q 629 -28 964 -28 q 333 25 464 -28 q 63 485 63 138 l 63 492 q 139 775 63 656 q 348 953 215 892 q 653 1015 481 1015 q 1006 929 867 1015 q 1193 669 1146 843 l 936 669 q 654 806 878 806 q 303 490 303 806 l 303 488 q 501 200 303 257 l 501 610 l 674 610 l 704 418 q 751 542 719 504 q 956 619 813 619 l 1060 619 l 1060 407 l 929 407 q 793 389 844 407 q 731 329 749 372 q 713 206 713 286 l 713 188 q 950 356 896 210 l 1206 356 z "},"₣":{"ha":1049,"x_min":111,"x_max":994,"o":"m 339 151 l 339 0 l 111 0 l 111 990 l 994 990 l 994 785 l 339 785 l 339 654 l 956 654 l 956 447 l 339 447 l 339 358 l 956 358 l 956 151 l 339 151 z "},"₤":{"ha":1146,"x_min":26,"x_max":1122,"o":"m 843 -21 q 716 -1 782 -21 q 607 38 650 18 q 500 94 564 58 q 256 -21 408 -21 q 79 24 132 -21 q 26 153 26 69 q 81 272 26 225 q 235 319 136 319 q 426 279 318 319 q 394 368 425 322 l 67 368 l 67 465 l 311 465 l 257 524 l 67 524 l 67 621 l 193 621 q 172 717 172 669 q 219 860 172 794 q 572 1011 325 1011 q 1039 686 975 1011 l 776 685 q 578 807 753 807 q 463 776 503 807 q 424 693 424 744 q 438 621 424 665 l 803 621 l 803 524 l 490 524 q 524 465 507 497 l 803 465 l 803 368 l 560 368 q 568 285 568 333 q 561 219 568 257 q 760 167 679 167 q 854 194 829 167 q 879 294 879 221 l 879 314 l 1122 314 l 1122 281 q 1057 49 1122 118 q 843 -21 992 -21 m 260 106 q 388 157 343 106 q 247 197 303 197 q 189 153 189 197 q 208 119 189 133 q 260 106 228 106 z "},"₦":{"ha":1432,"x_min":38,"x_max":1394,"o":"m 757 304 l 399 304 l 399 0 l 189 0 l 189 304 l 38 304 l 38 444 l 189 444 l 189 568 l 38 568 l 38 707 l 189 707 l 189 990 l 464 990 l 664 707 l 1035 707 l 1035 990 l 1244 990 l 1244 707 l 1394 707 l 1394 568 l 1244 568 l 1244 444 l 1394 444 l 1394 304 l 1244 304 l 1244 0 l 972 0 l 757 304 m 399 707 l 472 707 l 449 740 l 392 846 l 399 749 l 399 707 m 571 568 l 399 568 l 399 444 l 658 444 l 571 568 m 1035 568 l 761 568 l 849 444 l 1035 444 l 1035 568 m 1042 151 l 1035 253 l 1035 304 l 947 304 l 982 256 l 1042 151 z "},"₧":{"ha":2975,"x_min":111,"x_max":2936,"o":"m 342 307 l 342 0 l 111 0 l 111 990 l 617 990 q 951 942 835 990 q 1108 786 1068 893 q 1279 792 1239 786 q 1333 815 1315 799 q 1363 867 1351 832 q 1375 1024 1378 918 l 1569 1024 l 1569 797 l 1871 797 l 1871 604 l 1569 604 l 1569 439 q 1599 249 1569 285 q 1655 219 1618 226 q 1767 211 1692 211 l 2476 211 q 2656 220 2610 211 q 2703 258 2703 229 q 2692 290 2703 279 q 2650 307 2682 300 q 2399 317 2593 317 q 2061 373 2164 317 q 1958 550 1958 429 q 2007 692 1958 633 q 2404 826 2113 826 q 2756 760 2631 826 q 2925 549 2882 693 l 2669 549 q 2587 631 2654 607 q 2401 656 2519 656 q 2268 643 2310 656 q 2186 569 2186 621 q 2232 513 2186 528 q 2479 493 2293 493 q 2846 435 2746 493 q 2936 250 2936 381 q 2467 0 2936 0 l 1704 0 q 1417 89 1486 0 q 1349 393 1349 168 l 1349 604 l 1131 604 q 639 307 1103 306 l 342 307 m 342 794 l 342 503 l 625 503 q 838 533 779 503 q 897 643 897 563 q 867 743 897 713 q 781 784 839 774 q 618 794 722 794 l 342 794 z "},"₨":{"ha":2257,"x_min":111,"x_max":2218,"o":"m 1749 -26 q 1488 -4 1593 -26 q 1163 114 1340 25 l 1108 142 q 813 281 886 256 q 539 319 700 319 l 343 319 l 343 0 l 111 0 l 111 990 l 632 990 q 1008 916 893 990 q 1124 678 1124 842 q 1064 497 1124 560 q 875 410 1004 433 q 974 393 924 404 q 1186 311 1058 369 l 1244 283 q 1761 154 1514 154 q 1935 177 1885 154 q 1985 244 1985 200 q 1944 292 1985 276 q 1692 315 1881 313 q 1388 358 1485 324 q 1240 550 1240 407 q 1289 692 1240 633 q 1686 826 1394 826 q 2038 760 1913 826 q 2207 549 2164 693 l 1951 549 q 1869 631 1936 607 q 1683 656 1801 656 q 1550 643 1592 656 q 1468 569 1468 621 q 1508 519 1468 535 q 1763 494 1568 497 q 2069 451 1972 486 q 2218 250 2218 396 q 2097 50 2218 126 q 1749 -26 1975 -26 m 343 793 l 343 518 l 621 518 q 757 525 692 518 q 852 562 821 533 q 883 646 883 590 l 883 664 q 857 747 883 718 q 629 793 811 793 l 343 793 z "},"₩":{"ha":1869,"x_min":38,"x_max":1832,"o":"m 1079 322 l 725 322 l 574 0 l 358 0 l 256 322 l 38 322 l 38 449 l 215 449 l 194 517 l 38 517 l 38 642 l 154 642 l 43 990 l 254 990 l 361 642 l 683 642 l 844 990 l 1001 990 l 1140 642 l 1474 642 l 1608 990 l 1817 990 l 1675 642 l 1832 642 l 1832 517 l 1624 517 l 1596 449 l 1832 449 l 1832 322 l 1544 322 l 1414 0 l 1206 0 l 1079 322 m 918 736 l 874 642 l 954 642 l 918 736 m 626 517 l 400 517 l 421 449 l 594 449 l 626 517 m 1003 517 l 815 517 l 783 449 l 1031 449 l 1003 517 m 1425 517 l 1190 517 l 1218 449 l 1399 449 l 1425 517 m 536 322 l 460 322 l 490 221 l 536 322 m 1350 322 l 1268 322 l 1310 218 l 1350 322 z "},"₪":{"ha":1300,"x_min":78,"x_max":1233,"o":"m 290 793 l 290 0 l 78 0 l 78 990 l 468 990 q 735 936 640 990 q 919 525 919 835 q 903 390 919 440 q 840 315 886 338 q 706 293 794 293 l 706 407 q 689 625 706 538 q 620 753 674 713 q 458 793 567 793 l 290 793 m 396 0 l 396 697 q 513 685 472 697 q 574 638 554 672 q 607 369 607 582 l 607 201 l 746 201 q 896 235 836 201 q 1018 592 1018 301 l 1018 990 l 1233 990 l 1233 571 q 1119 141 1233 282 q 756 0 1006 0 l 396 0 z "},"€":{"ha":1251,"x_min":22,"x_max":1278,"o":"m 1278 278 q 726 -28 1158 -28 q 189 286 290 -28 l 22 286 l 22 439 l 161 439 q 160 485 160 454 l 160 492 q 161 522 160 513 l 22 522 l 22 672 l 188 672 q 306 858 228 786 q 750 1015 471 1015 q 978 982 872 1015 q 1264 725 1199 910 l 974 725 q 751 806 919 806 q 442 672 521 806 l 1019 672 l 940 522 l 401 522 q 400 490 400 513 l 400 488 q 403 439 400 469 l 900 439 l 822 286 l 460 286 q 742 183 544 183 q 1006 278 924 183 l 1278 278 z "},"₮":{"ha":1089,"x_min":50,"x_max":1042,"o":"m 654 254 l 654 0 l 415 0 l 415 165 l 257 107 l 257 250 l 415 308 l 415 431 l 257 372 l 257 514 l 415 572 l 415 789 l 50 789 l 50 990 l 1042 990 l 1042 789 l 654 789 l 654 660 l 813 718 l 813 578 l 654 519 l 654 397 l 813 456 l 813 313 l 654 254 z "},"₱":{"ha":1292,"x_min":38,"x_max":1254,"o":"m 388 168 l 388 0 l 160 0 l 160 429 l 38 429 l 38 544 l 160 544 l 160 615 l 38 615 l 38 729 l 160 729 l 160 990 l 651 990 q 1140 729 1042 990 l 1254 729 l 1254 615 l 1165 615 q 1167 572 1167 603 q 1165 544 1167 554 l 1254 544 l 1254 429 l 1143 429 q 983 238 1100 308 q 674 168 865 167 l 388 168 m 388 803 l 388 729 l 900 729 q 653 803 840 803 l 388 803 m 946 574 q 944 615 946 603 l 388 615 l 388 544 l 944 544 q 946 574 946 554 m 660 356 q 906 429 847 356 l 388 429 l 388 356 l 660 356 z "},"℅":{"ha":1272,"x_min":1,"x_max":1264,"o":"m 560 731 q 481 576 550 631 q 290 522 413 522 q 92 585 158 522 q 25 760 25 647 q 58 883 25 828 q 297 1001 131 1001 q 481 945 413 1001 q 560 790 550 889 l 392 790 q 292 850 383 850 q 192 760 192 850 q 290 667 192 667 q 390 731 376 667 l 560 731 m 989 990 l 1264 990 l 290 0 l 1 0 l 989 990 m 968 -14 q 769 49 836 -14 q 703 224 703 111 q 736 347 703 292 q 975 465 808 465 q 1167 399 1096 465 q 1239 224 1239 332 q 1168 49 1239 113 q 968 -14 1097 -14 m 968 131 q 1071 224 1071 131 q 969 314 1071 314 q 869 224 869 314 q 968 131 869 131 z "},"№":{"ha":2188,"x_min":110,"x_max":2100,"o":"m 1721 422 q 1504 457 1592 422 q 1350 713 1350 526 q 1397 872 1350 807 q 1725 1014 1492 1014 q 2001 936 1901 1014 q 2100 715 2100 858 q 2007 500 2100 578 q 1721 422 1914 422 m 335 693 l 335 0 l 110 0 l 110 990 l 343 990 l 944 318 l 953 306 l 953 990 l 1176 990 l 1176 0 l 953 0 l 344 679 l 335 693 m 1725 579 q 1867 613 1822 579 q 1913 715 1913 646 q 1728 857 1913 857 q 1588 820 1636 857 q 1539 715 1539 783 q 1725 579 1539 579 m 2082 118 l 1367 118 l 1367 304 l 2082 304 l 2082 118 z "},"℗":{"ha":1297,"x_min":47,"x_max":1250,"o":"m 649 -28 q 338 29 472 -28 q 47 497 47 150 q 219 889 47 740 q 649 1038 388 1038 q 1078 889 910 1038 q 1250 497 1250 740 q 1172 201 1250 317 q 649 -28 1022 -28 m 324 217 q 382 170 324 217 q 649 122 440 122 q 973 217 857 122 q 1089 497 1089 313 q 1035 706 1089 614 q 649 888 918 888 q 417 840 515 888 q 208 497 208 739 q 324 217 208 313 m 558 386 l 558 263 l 418 263 l 418 735 l 686 735 q 928 560 928 735 q 696 386 928 385 l 558 386 m 558 613 l 558 501 l 690 501 q 770 515 750 501 q 790 561 790 529 q 769 600 790 588 q 686 613 747 613 l 558 613 z "},"℠":{"ha":1136,"x_min":3,"x_max":1081,"o":"m 236 550 q 65 588 118 550 q 3 713 11 625 l 139 713 q 242 649 140 649 q 340 693 340 649 q 313 722 340 714 q 192 735 285 729 q 49 771 92 739 q 7 865 7 803 q 28 935 7 897 q 225 1008 76 1008 q 385 974 332 1008 q 451 863 438 940 l 317 863 q 214 908 307 908 q 131 872 131 908 q 139 854 131 863 q 276 835 154 840 q 417 799 378 831 q 458 704 457 768 q 401 590 458 631 q 236 550 343 550 m 672 818 l 672 568 l 542 568 l 542 990 l 663 990 l 810 818 l 964 990 l 1081 990 l 1081 568 l 951 568 l 951 819 l 813 667 l 806 667 l 672 818 z "},"™":{"ha":1083,"x_min":4,"x_max":1043,"o":"m 272 861 l 272 568 l 136 568 l 136 861 l 4 861 l 4 990 l 407 990 l 407 861 l 272 861 m 635 818 l 635 568 l 504 568 l 504 990 l 625 990 l 772 818 l 926 990 l 1043 990 l 1043 568 l 914 568 l 914 819 l 775 667 l 768 667 l 635 818 z "},"Ω":{"ha":1376,"x_min":7,"x_max":1329,"o":"m 525 0 l 7 0 l 7 206 l 288 206 q 136 538 136 346 q 275 864 136 725 q 671 1011 425 1011 q 1079 872 932 1011 q 1211 551 1211 742 q 1039 206 1211 368 l 1329 206 l 1329 0 l 832 0 l 740 172 q 909 351 853 256 q 965 532 965 446 q 935 664 965 607 q 671 792 871 792 q 456 720 531 792 q 381 532 381 649 q 433 349 381 443 q 596 172 485 254 l 525 0 z "},"⅓":{"ha":1610,"x_min":185,"x_max":1468,"o":"m 871 618 l 1228 1072 l 1468 875 l 946 551 l 871 618 m 210 496 l 210 640 l 338 640 l 338 761 l 235 761 l 235 879 q 358 990 340 886 l 486 990 l 486 640 l 608 640 l 608 496 l 210 496 m 1149 -11 q 953 37 1015 -11 q 889 185 892 85 l 1056 185 q 1082 133 1057 150 q 1167 117 1107 117 q 1251 157 1251 117 q 1238 181 1251 174 q 1183 188 1224 188 l 1090 188 l 1090 304 l 1176 304 q 1239 336 1239 304 q 1164 374 1239 374 q 1064 313 1064 374 l 900 313 q 969 453 900 401 q 1167 504 1038 504 q 1343 465 1283 504 q 1403 367 1403 426 q 1374 292 1403 315 q 1289 261 1346 269 q 1414 146 1414 243 q 1149 -11 1414 -11 m 796 433 l 426 -56 l 185 156 l 725 500 l 796 433 z "},"⅔":{"ha":1610,"x_min":154,"x_max":1468,"o":"m 871 618 l 1228 1072 l 1468 875 l 946 551 l 871 618 m 154 496 l 154 565 q 243 715 154 667 q 408 771 300 744 q 497 829 497 792 q 418 871 497 871 q 324 799 324 871 l 161 799 q 419 1000 168 1000 q 600 954 542 1000 q 658 833 658 908 q 636 756 658 786 q 499 675 597 703 q 447 660 479 669 q 390 644 414 651 q 349 631 365 638 l 656 631 l 656 496 l 154 496 m 1149 -11 q 953 37 1015 -11 q 889 185 892 85 l 1056 185 q 1082 133 1057 150 q 1167 117 1107 117 q 1251 157 1251 117 q 1238 181 1251 174 q 1183 188 1224 188 l 1090 188 l 1090 304 l 1176 304 q 1239 336 1239 304 q 1164 374 1239 374 q 1064 313 1064 374 l 900 313 q 969 453 900 401 q 1167 504 1038 504 q 1343 465 1283 504 q 1403 367 1403 426 q 1374 292 1403 315 q 1289 261 1346 269 q 1414 146 1414 243 q 1149 -11 1414 -11 m 796 433 l 426 -56 l 185 156 l 725 500 l 796 433 z "},"⅕":{"ha":1610,"x_min":185,"x_max":1468,"o":"m 871 618 l 1228 1072 l 1468 875 l 946 551 l 871 618 m 210 496 l 210 640 l 338 640 l 338 761 l 235 761 l 235 879 q 358 990 340 886 l 486 990 l 486 640 l 608 640 l 608 496 l 210 496 m 796 433 l 426 -56 l 185 156 l 725 500 l 796 433 m 1168 -11 q 980 28 1044 -11 q 897 153 915 68 l 1093 153 q 1175 117 1108 117 q 1272 169 1272 117 q 1188 226 1272 226 q 1076 188 1124 226 l 1067 179 l 922 200 l 954 494 l 1394 494 q 1360 395 1393 421 q 1242 369 1326 369 l 1085 369 l 1069 261 q 1250 336 1131 336 q 1431 172 1431 336 q 1366 40 1431 90 q 1168 -11 1301 -11 z "},"⅖":{"ha":1610,"x_min":153,"x_max":1468,"o":"m 871 618 l 1228 1072 l 1468 875 l 946 551 l 871 618 m 153 496 l 153 565 q 242 715 153 667 q 407 771 299 744 q 496 829 496 792 q 417 871 496 871 q 322 799 322 871 l 160 799 q 418 1000 167 1000 q 599 954 540 1000 q 657 833 657 908 q 635 756 657 786 q 497 675 596 703 q 445 660 478 669 q 388 644 413 651 q 347 631 364 638 l 654 631 l 654 496 l 153 496 m 796 433 l 426 -56 l 185 156 l 725 500 l 796 433 m 1168 -11 q 980 28 1044 -11 q 897 153 915 68 l 1093 153 q 1175 117 1108 117 q 1272 169 1272 117 q 1188 226 1272 226 q 1076 188 1124 226 l 1067 179 l 922 200 l 954 494 l 1394 494 q 1360 395 1393 421 q 1242 369 1326 369 l 1085 369 l 1069 261 q 1250 336 1131 336 q 1431 172 1431 336 q 1366 40 1431 90 q 1168 -11 1301 -11 z "},"⅗":{"ha":1610,"x_min":136,"x_max":1468,"o":"m 871 618 l 1228 1072 l 1468 875 l 946 551 l 871 618 m 396 485 q 201 533 263 485 q 136 681 139 581 l 303 681 q 329 629 304 646 q 414 613 354 613 q 499 653 499 613 q 485 676 499 669 q 431 683 471 683 l 338 683 l 338 800 l 424 800 q 486 832 486 800 q 411 869 486 869 q 311 808 311 869 l 147 808 q 216 949 147 897 q 414 1000 285 1000 q 590 961 531 1000 q 650 863 650 922 q 622 788 650 811 q 536 757 593 765 q 661 642 661 739 q 396 485 661 485 m 796 433 l 426 -56 l 185 156 l 725 500 l 796 433 m 1168 -11 q 980 28 1044 -11 q 897 153 915 68 l 1093 153 q 1175 117 1108 117 q 1272 169 1272 117 q 1188 226 1272 226 q 1076 188 1124 226 l 1067 179 l 922 200 l 954 494 l 1394 494 q 1360 395 1393 421 q 1242 369 1326 369 l 1085 369 l 1069 261 q 1250 336 1131 336 q 1431 172 1431 336 q 1366 40 1431 90 q 1168 -11 1301 -11 z "},"⅘":{"ha":1610,"x_min":142,"x_max":1468,"o":"m 871 618 l 1228 1072 l 1468 875 l 946 551 l 871 618 m 610 585 l 610 496 l 467 496 l 467 585 l 142 585 l 142 693 l 472 990 l 610 990 l 610 707 l 704 707 l 704 585 l 610 585 m 317 707 l 467 707 l 467 806 l 472 849 l 457 829 l 317 707 m 796 433 l 426 -56 l 185 156 l 725 500 l 796 433 m 1168 -11 q 980 28 1044 -11 q 897 153 915 68 l 1093 153 q 1175 117 1108 117 q 1272 169 1272 117 q 1188 226 1272 226 q 1076 188 1124 226 l 1067 179 l 922 200 l 954 494 l 1394 494 q 1360 395 1393 421 q 1242 369 1326 369 l 1085 369 l 1069 261 q 1250 336 1131 336 q 1431 172 1431 336 q 1366 40 1431 90 q 1168 -11 1301 -11 z "},"⅙":{"ha":1610,"x_min":185,"x_max":1468,"o":"m 871 618 l 1228 1072 l 1468 875 l 946 551 l 871 618 m 210 496 l 210 640 l 338 640 l 338 761 l 235 761 l 235 879 q 358 990 340 886 l 486 990 l 486 640 l 608 640 l 608 496 l 210 496 m 1426 167 q 1360 35 1426 83 q 1171 -14 1293 -14 q 999 21 1063 -14 q 883 239 883 82 q 917 376 883 317 q 1163 507 989 507 q 1421 343 1388 507 l 1242 343 q 1161 378 1225 378 q 1071 340 1106 378 q 1036 247 1036 303 q 1038 222 1036 232 q 1246 315 1108 315 q 1426 167 1426 315 m 796 433 l 426 -56 l 185 156 l 725 500 l 796 433 m 1175 118 q 1265 165 1265 118 q 1188 210 1265 210 q 1063 156 1117 210 q 1175 118 1097 118 z "},"⅚":{"ha":1610,"x_min":135,"x_max":1468,"o":"m 871 618 l 1228 1072 l 1468 875 l 946 551 l 871 618 m 406 485 q 217 524 282 485 q 135 649 153 564 l 331 649 q 413 613 346 613 q 510 665 510 613 q 425 722 510 722 q 314 683 361 722 l 304 675 l 160 696 l 192 990 l 632 990 q 597 891 631 917 q 479 865 564 865 l 322 865 l 307 757 q 488 832 368 832 q 668 668 668 832 q 603 535 668 586 q 406 485 539 485 m 1426 167 q 1360 35 1426 83 q 1171 -14 1293 -14 q 999 21 1063 -14 q 883 239 883 82 q 917 376 883 317 q 1163 507 989 507 q 1421 343 1388 507 l 1242 343 q 1161 378 1225 378 q 1071 340 1106 378 q 1036 247 1036 303 q 1038 222 1036 232 q 1246 315 1108 315 q 1426 167 1426 315 m 796 433 l 426 -56 l 185 156 l 725 500 l 796 433 m 1175 118 q 1265 165 1265 118 q 1188 210 1265 210 q 1063 156 1117 210 q 1175 118 1097 118 z "},"⅛":{"ha":1610,"x_min":185,"x_max":1468,"o":"m 871 618 l 1228 1072 l 1468 875 l 946 551 l 871 618 m 208 496 l 208 640 l 336 640 l 336 761 l 233 761 l 233 879 q 357 990 339 886 l 485 990 l 485 640 l 607 640 l 607 496 l 208 496 m 1149 -11 q 942 24 1006 -11 q 879 138 879 60 q 972 253 879 222 q 903 353 903 281 q 972 465 903 426 q 1158 504 1040 504 q 1349 467 1279 504 q 1418 356 1418 431 q 1338 251 1418 285 q 1428 138 1428 221 q 1359 24 1428 60 q 1149 -11 1290 -11 m 796 433 l 426 -56 l 185 156 l 725 500 l 796 433 m 1172 297 q 1261 339 1261 297 q 1238 373 1261 363 q 1158 383 1215 383 q 1060 339 1060 383 q 1143 297 1060 297 l 1172 297 m 1067 119 q 1079 114 1067 119 q 1154 108 1092 108 q 1243 119 1217 108 q 1269 154 1269 129 q 1247 189 1269 179 q 1172 199 1225 199 l 1140 199 q 1042 154 1042 199 q 1067 119 1042 129 z "},"⅜":{"ha":1610,"x_min":138,"x_max":1468,"o":"m 871 618 l 1228 1072 l 1468 875 l 946 551 l 871 618 m 397 485 q 202 533 264 485 q 138 681 140 581 l 304 681 q 331 629 306 646 q 415 613 356 613 q 500 653 500 613 q 486 676 500 669 q 432 683 472 683 l 339 683 l 339 800 l 425 800 q 488 832 488 800 q 413 869 488 869 q 313 808 313 869 l 149 808 q 217 949 149 897 q 415 1000 286 1000 q 592 961 532 1000 q 651 863 651 922 q 623 788 651 811 q 538 757 594 765 q 663 642 663 739 q 397 485 663 485 m 1149 -11 q 942 24 1006 -11 q 879 138 879 60 q 972 253 879 222 q 903 353 903 281 q 972 465 903 426 q 1158 504 1040 504 q 1349 467 1279 504 q 1418 356 1418 431 q 1338 251 1418 285 q 1428 138 1428 221 q 1359 24 1428 60 q 1149 -11 1290 -11 m 796 433 l 426 -56 l 185 156 l 725 500 l 796 433 m 1172 297 q 1261 339 1261 297 q 1238 373 1261 363 q 1158 383 1215 383 q 1060 339 1060 383 q 1143 297 1060 297 l 1172 297 m 1067 119 q 1079 114 1067 119 q 1154 108 1092 108 q 1243 119 1217 108 q 1269 154 1269 129 q 1247 189 1269 179 q 1172 199 1225 199 l 1140 199 q 1042 154 1042 199 q 1067 119 1042 129 z "},"⅝":{"ha":1610,"x_min":135,"x_max":1468,"o":"m 871 618 l 1228 1072 l 1468 875 l 946 551 l 871 618 m 406 485 q 217 524 282 485 q 135 649 153 564 l 331 649 q 413 613 346 613 q 510 665 510 613 q 425 722 510 722 q 314 683 361 722 l 304 675 l 160 696 l 192 990 l 632 990 q 597 891 631 917 q 479 865 564 865 l 322 865 l 307 757 q 488 832 368 832 q 668 668 668 832 q 603 535 668 586 q 406 485 539 485 m 1149 -11 q 942 24 1006 -11 q 879 138 879 60 q 972 253 879 222 q 903 353 903 281 q 972 465 903 426 q 1158 504 1040 504 q 1349 467 1279 504 q 1418 356 1418 431 q 1338 251 1418 285 q 1428 138 1428 221 q 1359 24 1428 60 q 1149 -11 1290 -11 m 796 433 l 426 -56 l 185 156 l 725 500 l 796 433 m 1172 297 q 1261 339 1261 297 q 1238 373 1261 363 q 1158 383 1215 383 q 1060 339 1060 383 q 1143 297 1060 297 l 1172 297 m 1067 119 q 1079 114 1067 119 q 1154 108 1092 108 q 1243 119 1217 108 q 1269 154 1269 129 q 1247 189 1269 179 q 1172 199 1225 199 l 1140 199 q 1042 154 1042 199 q 1067 119 1042 129 z "},"⅞":{"ha":1610,"x_min":185,"x_max":1468,"o":"m 871 618 l 1228 1072 l 1468 875 l 946 551 l 871 618 m 301 496 q 369 626 329 561 q 551 847 460 769 l 242 847 l 242 990 l 728 990 l 728 860 q 492 496 579 711 l 301 496 m 1149 -11 q 942 24 1006 -11 q 879 138 879 60 q 972 253 879 222 q 903 353 903 281 q 972 465 903 426 q 1158 504 1040 504 q 1349 467 1279 504 q 1418 356 1418 431 q 1338 251 1418 285 q 1428 138 1428 221 q 1359 24 1428 60 q 1149 -11 1290 -11 m 796 433 l 426 -56 l 185 156 l 725 500 l 796 433 m 1172 297 q 1261 339 1261 297 q 1238 373 1261 363 q 1158 383 1215 383 q 1060 339 1060 383 q 1143 297 1060 297 l 1172 297 m 1067 119 q 1079 114 1067 119 q 1154 108 1092 108 q 1243 119 1217 108 q 1269 154 1269 129 q 1247 189 1269 179 q 1172 199 1225 199 l 1140 199 q 1042 154 1042 199 q 1067 119 1042 129 z "},"⅟":{"ha":1610,"x_min":185,"x_max":1468,"o":"m 871 618 l 1228 1072 l 1468 875 l 946 551 l 871 618 m 210 496 l 210 640 l 338 640 l 338 761 l 235 761 l 235 879 q 358 990 340 886 l 486 990 l 486 640 l 608 640 l 608 496 l 210 496 m 796 433 l 426 -56 l 185 156 l 725 500 l 796 433 z "},"←":{"ha":1369,"x_min":104,"x_max":1253,"o":"m 428 406 q 535 297 475 367 q 701 38 664 151 l 449 38 q 388 168 439 93 q 104 460 283 331 l 104 561 q 261 700 206 635 q 431 982 403 857 l 685 982 q 626 858 667 926 q 439 625 538 715 l 1253 625 l 1253 406 l 428 406 z "},"↑":{"ha":1369,"x_min":203,"x_max":1146,"o":"m 1146 497 q 1022 556 1090 515 q 789 743 879 644 l 789 -74 l 569 -74 l 569 744 q 461 646 524 694 q 203 493 322 533 l 203 747 q 333 804 263 763 q 625 1076 508 908 l 726 1076 q 867 918 793 983 q 1146 750 1019 778 l 1146 497 z "},"→":{"ha":1369,"x_min":115,"x_max":1265,"o":"m 668 38 q 732 165 686 93 q 940 406 828 308 l 115 406 l 115 625 l 929 625 q 832 731 889 663 q 683 982 725 867 l 939 982 q 994 850 954 922 q 1265 561 1099 676 l 1265 460 q 1103 319 1186 403 q 919 38 949 158 l 668 38 z "},"↓":{"ha":1369,"x_min":201,"x_max":1144,"o":"m 621 -92 q 482 67 556 0 q 201 235 324 208 l 201 488 q 324 429 258 469 q 558 243 465 346 l 558 1058 l 779 1058 l 779 242 q 888 340 819 288 q 1144 492 1033 453 l 1144 238 q 1014 181 1085 222 q 722 -92 846 81 l 621 -92 z "},"↖":{"ha":1369,"x_min":168,"x_max":1164,"o":"m 1007 21 l 429 597 q 422 451 432 524 q 347 161 401 269 l 168 343 q 219 475 194 386 q 233 872 271 674 l 306 943 q 515 932 417 926 q 833 1011 722 943 l 1011 833 q 882 786 956 804 q 585 753 717 747 l 1164 176 l 1007 21 z "},"↗":{"ha":1369,"x_min":169,"x_max":1160,"o":"m 982 169 q 935 297 951 233 q 901 594 896 465 l 325 17 l 169 174 l 747 751 q 600 758 672 749 q 311 833 431 778 l 492 1013 q 625 961 533 986 q 1021 947 811 913 l 1093 875 q 1081 665 1075 758 q 1160 347 1090 461 l 982 169 z "},"↘":{"ha":1369,"x_min":168,"x_max":1164,"o":"m 1026 86 q 815 99 908 104 q 499 19 610 89 l 321 197 q 449 244 378 226 q 746 278 617 283 l 168 854 l 324 1010 l 903 432 q 910 579 900 507 q 985 868 931 754 l 1164 688 q 1111 554 1135 642 q 1097 158 1063 369 l 1026 86 z "},"↙":{"ha":1369,"x_min":169,"x_max":1160,"o":"m 838 15 q 706 68 794 44 q 308 82 508 118 l 238 153 q 249 364 254 264 q 169 681 238 576 l 347 858 q 394 729 376 803 q 428 432 433 564 l 1004 1011 l 1160 856 l 583 276 q 729 269 657 279 q 1019 194 911 249 l 838 15 z "},"∂":{"ha":1174,"x_min":60,"x_max":1131,"o":"m 592 -26 q 279 19 390 -26 q 60 351 60 106 q 177 638 60 535 q 517 742 294 742 q 876 579 781 742 q 758 751 842 669 q 201 1100 594 919 l 557 1100 q 865 893 738 1013 q 1063 641 994 774 q 1131 381 1131 508 q 1076 161 1131 254 q 592 -26 961 -26 m 599 167 q 828 211 761 167 q 896 356 896 256 q 826 506 896 458 q 601 554 757 554 q 375 506 449 554 q 301 356 301 458 q 371 212 301 257 q 599 167 440 167 z "},"∆":{"ha":1569,"x_min":11,"x_max":1556,"o":"m 11 0 l 785 1007 l 1556 0 l 11 0 m 783 686 l 408 196 l 1150 196 l 783 686 z "},"∏":{"ha":1325,"x_min":35,"x_max":1290,"o":"m 826 768 l 500 768 l 500 0 l 265 0 l 265 768 l 35 768 l 35 990 l 1290 990 l 1290 768 l 1061 768 l 1061 0 l 826 0 l 826 768 z "},"∑":{"ha":978,"x_min":50,"x_max":929,"o":"m 929 0 l 50 0 l 50 244 l 408 497 l 61 753 l 61 990 l 890 990 l 890 793 l 349 793 l 722 496 l 339 206 l 929 206 l 929 0 z "},"−":{"ha":906,"x_min":31,"x_max":881,"o":"m 31 399 l 31 608 l 881 608 l 881 399 l 31 399 z "},"√":{"ha":1336,"x_min":39,"x_max":1306,"o":"m 457 0 l 214 488 l 39 488 l 39 700 l 351 700 l 582 224 l 1049 992 l 1306 992 l 686 0 l 457 0 z "},"∞":{"ha":1403,"x_min":85,"x_max":1311,"o":"m 379 201 q 161 282 238 201 q 85 501 85 363 q 124 653 85 588 q 230 760 163 721 q 383 799 297 799 q 547 756 471 799 q 703 636 622 713 q 857 756 785 714 q 1015 799 929 799 q 1234 719 1157 799 q 1311 503 1311 640 q 1276 347 1311 417 q 1017 201 1203 201 q 858 244 932 201 q 703 363 785 286 q 543 244 619 288 q 379 201 467 201 m 382 403 q 560 500 457 403 q 382 599 456 599 q 314 571 340 599 q 288 501 288 543 q 315 431 288 460 q 382 403 342 403 m 1019 403 q 1086 431 1060 403 q 1113 501 1113 460 q 1088 571 1113 543 q 1019 599 1063 599 q 840 501 950 599 q 1019 403 951 403 z "},"∫":{"ha":718,"x_min":-39,"x_max":713,"o":"m -39 -42 l 68 -42 q 208 -12 182 -42 q 239 149 239 18 l 239 901 q 321 1165 239 1085 q 585 1246 403 1246 l 713 1246 l 713 1058 l 617 1058 q 518 1044 547 1058 q 475 993 486 1032 q 464 869 464 954 l 463 140 q 447 -52 463 19 q 393 -164 432 -124 q 89 -236 321 -236 l -39 -236 l -39 -42 z "},"≈":{"ha":972,"x_min":99,"x_max":875,"o":"m 279 869 q 496 818 350 869 q 693 765 639 765 q 875 856 810 765 l 875 638 q 801 581 853 603 q 693 558 750 558 q 469 611 604 558 q 281 663 332 663 q 99 572 165 663 l 99 793 q 170 849 119 828 q 279 869 221 869 m 99 318 q 171 375 119 354 q 281 396 222 396 q 496 344 350 396 q 693 292 639 292 q 875 382 811 292 l 875 164 q 801 106 854 128 q 693 85 749 85 q 469 138 604 85 q 281 189 332 189 q 99 97 165 189 l 99 318 z "},"≠":{"ha":972,"x_min":99,"x_max":875,"o":"m 453 179 l 399 -22 l 265 -22 l 319 179 l 99 179 l 99 378 l 374 378 l 446 644 l 99 644 l 99 840 l 500 840 l 546 1010 l 679 1010 l 633 840 l 875 840 l 875 644 l 579 644 l 507 378 l 875 378 l 875 179 l 453 179 z "},"≡":{"ha":972,"x_min":99,"x_max":875,"o":"m 99 729 l 99 925 l 875 925 l 875 729 l 99 729 m 99 413 l 99 610 l 875 610 l 875 413 l 99 413 m 99 94 l 99 293 l 875 293 l 875 94 l 99 94 z "},"≤":{"ha":972,"x_min":94,"x_max":874,"o":"m 94 567 l 94 750 l 869 1068 l 869 854 l 339 661 l 869 468 l 869 243 l 94 567 m 101 -72 l 101 124 l 874 124 l 874 -72 l 101 -72 z "},"≥":{"ha":972,"x_min":97,"x_max":876,"o":"m 101 468 l 632 661 l 101 854 l 101 1068 l 876 750 l 876 567 l 101 243 l 101 468 m 97 -72 l 97 124 l 871 124 l 871 -72 l 97 -72 z "},"⊠":{"ha":1185,"x_min":101,"x_max":1083,"o":"m 101 990 l 1083 990 l 1083 0 l 101 0 l 101 990 m 281 168 l 904 168 l 904 822 l 281 822 l 281 168 m 590 394 l 439 238 l 333 340 l 489 500 l 332 661 l 438 763 l 592 606 l 746 764 l 850 663 l 693 500 l 850 340 l 744 236 l 590 394 z "},"⌂":{"ha":1090,"x_min":101,"x_max":989,"o":"m 101 0 l 101 553 l 546 979 l 989 553 l 989 0 l 101 0 z "},"■":{"ha":1185,"x_min":101,"x_max":1083,"o":"m 101 990 l 1083 990 l 1083 0 l 101 0 l 101 990 z "},"□":{"ha":1185,"x_min":101,"x_max":1083,"o":"m 101 0 l 101 990 l 1083 990 l 1083 0 l 101 0 m 281 822 l 281 168 l 904 168 l 904 822 l 281 822 z "},"▪":{"ha":983,"x_min":101,"x_max":882,"o":"m 101 781 l 882 781 l 882 0 l 101 0 l 101 781 z "},"▫":{"ha":983,"x_min":101,"x_max":882,"o":"m 101 781 l 882 781 l 882 0 l 101 0 l 101 781 m 281 168 l 706 168 l 706 614 l 281 614 l 281 168 z "},"▲":{"ha":1151,"x_min":-7,"x_max":1158,"o":"m -7 0 l 578 1011 l 1158 0 l -7 0 z "},"►":{"ha":1151,"x_min":101,"x_max":1113,"o":"m 101 1089 l 1113 506 l 101 -76 l 101 1089 z "},"▼":{"ha":1151,"x_min":-7,"x_max":1158,"o":"m 1158 994 l 578 -17 l -7 994 l 1158 994 z "},"◄":{"ha":1151,"x_min":39,"x_max":1050,"o":"m 1050 -76 l 39 506 l 1050 1089 l 1050 -76 z "},"◊":{"ha":1368,"x_min":26,"x_max":1344,"o":"m 26 493 l 685 1151 l 1344 490 l 688 -168 l 26 493 m 690 119 l 1056 486 l 681 861 l 314 496 l 690 119 z "},"○":{"ha":1174,"x_min":88,"x_max":1086,"o":"m 585 -14 q 328 50 439 -14 q 150 228 213 115 q 88 486 88 340 q 228 846 88 701 q 585 989 367 989 q 944 847 803 989 q 1086 486 1086 706 q 946 128 1086 272 q 585 -14 804 -14 m 585 164 q 750 207 678 164 q 866 322 825 249 q 907 486 907 394 q 865 651 907 576 q 749 771 822 728 q 585 814 676 814 q 424 771 499 814 q 308 653 350 726 q 267 486 267 579 q 308 322 267 394 q 424 206 353 247 q 585 164 496 164 z "},"◎":{"ha":1174,"x_min":88,"x_max":1086,"o":"m 585 -14 q 328 50 439 -14 q 150 228 213 115 q 88 486 88 340 q 228 846 88 701 q 585 989 367 989 q 944 847 803 989 q 1086 486 1086 706 q 946 128 1086 272 q 585 -14 804 -14 m 585 164 q 750 207 678 164 q 866 322 825 249 q 907 486 907 394 q 865 651 907 576 q 749 771 822 728 q 585 814 676 814 q 424 771 499 814 q 308 653 350 726 q 267 486 267 579 q 308 322 267 394 q 424 206 353 247 q 585 164 496 164 m 586 254 q 467 285 518 254 q 354 485 354 346 q 385 604 354 553 q 586 718 450 718 q 706 688 654 718 q 821 485 821 624 q 790 367 821 418 q 586 254 725 254 m 586 407 q 640 429 619 407 q 661 485 661 451 q 640 543 661 521 q 586 565 619 565 q 535 543 556 565 q 514 485 514 521 q 535 430 514 453 q 586 407 556 407 z "},"●":{"ha":1174,"x_min":88,"x_max":1086,"o":"m 585 -14 q 328 50 439 -14 q 150 228 213 115 q 88 486 88 340 q 228 846 88 701 q 585 989 367 989 q 944 847 803 989 q 1086 486 1086 706 q 946 128 1086 272 q 585 -14 804 -14 z "},"◢":{"ha":1151,"x_min":28,"x_max":1153,"o":"m 328 -99 l 28 1028 l 1153 726 l 328 -99 z "},"◣":{"ha":1151,"x_min":1,"x_max":1128,"o":"m 1 726 l 1128 1028 l 826 -99 l 1 726 z "},"◤":{"ha":1151,"x_min":6,"x_max":1132,"o":"m 6 228 l 831 1053 l 1132 -72 l 6 228 z "},"◥":{"ha":1151,"x_min":26,"x_max":1151,"o":"m 26 -78 l 328 1047 l 1151 221 l 26 -78 z "},"★":{"ha":1156,"x_min":167,"x_max":986,"o":"m 829 115 l 575 300 l 319 115 l 419 414 l 167 599 l 476 597 l 576 893 l 672 597 l 986 596 l 729 413 l 829 115 z "},"☼":{"ha":1194,"x_min":113,"x_max":1074,"o":"m 557 967 l 629 967 l 606 772 l 579 772 l 557 967 m 319 885 l 385 922 l 458 743 l 440 729 l 319 885 m 801 922 l 864 885 l 746 729 l 725 743 l 801 922 m 157 694 l 193 757 l 350 639 l 336 618 l 157 694 m 989 757 l 1029 696 l 850 618 l 836 640 l 989 757 m 356 483 q 388 603 356 550 q 474 690 421 658 q 592 722 528 722 q 711 690 654 722 q 799 601 767 656 q 831 483 831 547 q 797 365 831 417 q 592 247 726 247 q 474 279 526 247 q 388 366 419 313 q 356 483 356 419 m 113 450 l 113 522 l 306 499 l 306 474 l 113 450 m 1074 522 l 1074 450 l 879 474 l 879 499 l 1074 522 m 196 213 l 157 276 l 336 351 l 350 332 l 196 213 m 1029 278 l 992 213 l 836 333 l 850 351 l 1029 278 m 385 50 l 319 86 l 440 243 l 458 229 l 385 50 m 864 86 l 801 50 l 725 229 l 746 243 l 864 86 m 629 6 l 557 6 l 579 200 l 606 200 l 629 6 z "},"☾":{"ha":1001,"x_min":144,"x_max":789,"o":"m 693 824 q 529 778 606 824 q 410 651 453 729 q 367 481 367 574 q 411 310 367 390 q 530 186 456 232 q 693 140 604 140 q 789 157 735 140 q 547 78 679 78 q 263 196 376 78 q 144 481 144 314 q 263 767 144 649 q 547 885 376 885 q 789 807 682 885 q 693 824 735 824 z "},"♠":{"ha":1158,"x_min":82,"x_max":1075,"o":"m 622 386 q 676 158 622 276 q 704 97 689 128 q 735 38 719 67 q 756 0 751 8 l 411 0 q 424 24 417 10 q 441 58 431 38 q 460 94 451 79 q 538 386 538 256 q 492 299 522 344 q 310 206 422 206 q 196 235 244 206 q 113 311 143 263 q 82 417 82 360 q 114 557 82 490 q 397 847 171 669 l 583 996 l 771 847 q 949 690 890 751 q 1045 557 1015 621 q 1075 417 1075 493 q 1047 311 1075 360 q 864 206 985 206 q 751 232 799 206 q 622 386 664 279 z "},"♣":{"ha":1158,"x_min":75,"x_max":1082,"o":"m 847 175 q 713 219 771 175 q 628 333 654 263 q 663 199 636 268 q 757 0 686 138 l 413 0 q 454 82 436 43 q 536 335 522 218 q 447 219 507 263 q 311 175 388 175 q 192 207 249 175 q 106 294 138 240 q 75 413 75 347 q 107 531 75 481 q 311 647 176 647 q 368 639 332 647 q 340 756 340 697 q 372 874 340 824 q 459 958 406 928 q 578 989 513 989 q 696 957 646 989 q 781 874 750 926 q 811 756 811 821 q 785 636 811 693 q 849 647 818 647 q 967 615 917 647 q 1051 531 1021 585 q 1082 413 1082 478 q 1050 293 1082 347 q 966 207 1019 239 q 847 175 913 175 z "},"♥":{"ha":1158,"x_min":83,"x_max":1074,"o":"m 388 188 q 210 406 279 307 q 83 738 83 585 q 115 864 83 804 q 204 956 149 922 q 328 989 260 989 q 450 960 401 989 q 576 769 565 897 q 614 881 583 831 q 821 989 683 989 q 947 954 890 989 q 1040 863 1006 921 q 1074 738 1074 806 q 1043 581 1074 658 q 763 188 982 428 l 576 -24 l 388 188 z "},"♦":{"ha":1158,"x_min":143,"x_max":1014,"o":"m 579 1000 l 1014 494 l 579 -14 l 143 494 l 579 1000 z "},"♻":{"ha":1060,"x_min":56,"x_max":996,"o":"m 442 926 l 665 926 q 706 923 693 925 q 738 909 719 921 q 769 874 756 897 l 803 817 l 853 846 l 781 651 l 583 689 l 629 717 l 547 861 q 504 904 533 888 q 474 917 489 913 q 450 924 458 922 l 442 925 l 442 926 m 285 856 q 322 890 299 881 q 397 908 360 910 q 469 889 436 906 q 513 850 501 872 l 379 618 l 206 718 l 285 856 m 986 500 q 996 451 996 478 q 974 378 996 410 q 922 326 953 346 q 865 307 892 307 l 732 538 l 904 635 l 986 500 m 188 171 l 78 363 q 60 399 65 385 q 57 435 56 414 q 72 481 58 457 l 106 538 l 56 567 l 258 603 l 325 410 l 279 439 l 238 369 q 217 335 229 354 q 200 306 206 315 q 194 294 194 296 q 179 236 179 265 q 182 203 179 219 q 188 178 185 186 l 190 171 l 188 171 m 974 335 l 860 140 q 838 107 846 118 q 809 85 829 96 q 760 75 789 75 l 694 75 l 694 19 l 565 176 l 694 333 l 694 275 l 860 275 q 919 290 893 275 q 948 311 935 300 q 967 329 961 322 l 972 336 l 974 335 m 335 75 q 285 90 310 75 q 232 147 247 114 q 213 219 215 182 q 224 275 211 256 l 490 275 l 490 75 l 335 75 z "},"♼":{"ha":1060,"x_min":68,"x_max":990,"o":"m 990 481 q 856 157 990 288 q 532 24 722 24 q 204 157 342 24 q 68 481 68 289 q 204 810 68 674 q 532 944 339 944 q 856 810 725 944 q 990 481 990 675 m 453 832 l 468 829 q 536 781 518 815 l 600 669 l 565 647 l 718 618 l 772 768 l 733 749 l 710 790 q 675 826 693 818 q 626 833 657 833 l 453 833 l 453 832 m 278 671 l 413 594 l 514 772 q 481 803 506 788 q 367 804 418 835 q 338 775 344 792 l 278 671 m 819 608 l 685 529 l 789 349 q 832 364 806 349 q 889 465 889 404 q 878 503 889 483 l 819 608 m 265 246 q 261 261 263 250 q 268 343 244 303 l 332 456 l 369 432 l 315 581 l 163 554 l 199 531 l 172 486 q 165 471 168 478 q 162 456 163 464 q 160 444 161 449 q 163 431 160 439 q 166 420 165 424 q 171 408 167 417 q 176 394 175 399 l 264 246 l 265 246 m 868 372 q 858 361 865 368 q 783 329 832 329 l 656 329 l 656 369 l 554 250 l 656 129 l 656 175 l 707 175 q 745 183 729 175 q 766 198 761 192 q 783 222 771 204 l 869 371 l 868 372 m 493 175 l 493 329 l 286 329 q 276 283 276 314 q 332 186 279 218 q 372 175 357 175 l 493 175 z "},"♽":{"ha":1060,"x_min":68,"x_max":990,"o":"m 990 481 q 856 157 990 288 q 532 24 722 24 q 204 157 342 24 q 68 481 68 289 q 204 810 68 674 q 532 944 339 944 q 856 810 725 944 q 990 481 990 675 m 968 481 q 840 793 968 663 q 532 921 713 921 q 221 793 349 921 q 92 481 92 664 q 221 172 92 299 q 532 46 347 46 q 840 172 714 46 q 968 481 968 300 m 453 833 l 626 833 q 675 826 657 833 q 710 790 693 818 l 733 749 l 772 768 l 718 618 l 565 647 l 600 669 l 536 781 q 503 814 522 803 q 479 825 492 821 q 460 831 467 829 l 453 832 l 453 833 m 338 775 q 367 804 344 792 q 425 818 393 821 q 514 772 496 811 l 413 594 l 278 671 l 338 775 m 878 503 q 889 465 889 483 q 872 407 889 432 q 789 349 835 349 l 685 529 l 819 608 l 878 503 m 264 246 l 176 394 q 171 408 175 399 q 166 420 167 417 q 163 431 165 424 q 160 444 160 439 q 162 456 161 449 q 165 471 163 464 q 172 486 168 478 l 199 531 l 163 554 l 315 581 l 369 432 l 332 456 l 268 343 q 256 297 256 324 q 258 272 256 285 q 264 253 261 258 l 265 246 l 264 246 m 869 371 l 783 222 q 766 198 771 204 q 745 183 761 192 q 707 175 729 175 l 656 175 l 656 129 l 554 250 l 656 369 l 656 329 l 783 329 q 831 340 811 329 q 851 354 842 346 q 864 367 860 363 l 868 372 l 869 371 m 372 175 q 332 186 357 175 q 292 228 306 201 q 286 329 263 288 l 493 329 l 493 175 l 372 175 z "},"⚬":{"ha":988,"x_min":83,"x_max":904,"o":"m 493 -14 q 282 39 375 -14 q 135 185 188 93 q 83 393 83 276 q 138 603 83 507 q 288 749 194 696 q 493 801 381 801 q 701 749 608 801 q 851 601 797 693 q 904 393 904 510 q 850 186 904 275 q 702 40 794 93 q 493 -14 610 -14 m 493 150 q 613 182 563 150 q 725 393 725 246 q 694 521 725 465 q 493 638 632 638 q 327 570 390 638 q 264 393 264 503 q 293 268 264 317 q 493 150 353 150 z "},"⸘":{"ha":1185,"x_min":67,"x_max":1101,"o":"m 599 824 q 722 792 686 824 q 757 679 757 760 q 717 569 757 603 q 599 535 678 535 q 480 569 519 535 q 440 679 440 603 q 480 789 440 754 q 599 824 519 824 m 586 -207 q 67 86 67 -207 q 178 269 67 215 q 231 292 200 281 q 281 308 261 303 q 338 323 301 314 q 389 336 375 332 q 513 436 506 367 l 517 475 q 599 471 579 471 q 685 475 639 471 q 692 390 689 457 q 700 42 700 201 l 700 -7 q 828 47 790 7 q 867 164 867 88 l 1101 164 q 973 -117 1101 -26 q 586 -207 844 -207 m 303 96 q 349 19 303 43 q 494 -11 396 -6 l 494 42 q 503 238 494 110 q 368 172 469 213 q 303 96 303 147 z "},"〈":{"ha":585,"x_min":28,"x_max":613,"o":"m 347 -262 l 28 401 l 331 1076 l 582 1076 l 289 410 l 613 -262 l 347 -262 z "},"〉":{"ha":585,"x_min":-28,"x_max":557,"o":"m -28 -262 l 296 410 l 3 1076 l 258 1076 l 557 401 l 242 -262 l -28 -262 z "}}}
